<?xml version="1.0" encoding="UTF-8"?>
<svg id="Layer_1" xmlns="http://www.w3.org/2000/svg" version="1.1" viewBox="0 0 29.3 28.6">
  <!-- Generator: Adobe Illustrator 29.3.1, SVG Export Plug-In . SVG Version: 2.1.0 Build 151)  -->
  <defs>
    <style>
      .st0 {
        fill: #e43584;
        fill-rule: evenodd;
      }
    </style>
  </defs>
  <path class="st0" d="M14.7,1.1C7.2,1.1,1.2,7.2,1.2,14.6s3.9,11,9.2,12.8c.7.1.9-.3.9-.6s0-1.4,0-2.5c-3.4.6-4.3-.8-4.5-1.6-.2-.4-.8-1.6-1.4-1.9-.5-.3-1.1-.9,0-.9,1.1,0,1.8,1,2.1,1.4,1.2,2,3.2,1.5,3.9,1.1.1-.9.5-1.5.9-1.8-3-.3-6.1-1.5-6.1-6.7s.5-2.7,1.4-3.6c-.1-.3-.6-1.7.1-3.6,0,0,1.1-.4,3.7,1.4,1.1-.3,2.2-.5,3.4-.5s2.3.2,3.4.5c2.6-1.8,3.7-1.4,3.7-1.4.7,1.9.3,3.2.1,3.6.9.9,1.4,2.1,1.4,3.6,0,5.2-3.2,6.3-6.2,6.7.5.4.9,1.2.9,2.5,0,1.8,0,3.3,0,3.7s.3.8.9.6c5.3-1.8,9.2-6.8,9.2-12.8S22.1,1.1,14.7,1.1Z"/>
</svg>