<?xml version="1.0" encoding="UTF-8"?>
<svg id="Layer_1" xmlns="http://www.w3.org/2000/svg" version="1.1" viewBox="0 0 269.5 81">
  <!-- Generator: Adobe Illustrator 29.3.1, SVG Export Plug-In . SVG Version: 2.1.0 Build 151)  -->
  <defs>
    <style>
      .st0 {
        fill: #d37065;
      }

      .st1 {
        fill: #98075e;
      }

      .st2 {
        fill: #f09d85;
      }

      .st3 {
        fill: #90045b;
      }

      .st4 {
        fill: #6d0346;
      }

      .st5 {
        fill: #ea2a80;
      }

      .st6 {
        fill: #90105a;
      }

      .st7 {
        fill: #f3a987;
      }

      .st8 {
        fill: #f4b08d;
      }

      .st9 {
        fill: #fddaec;
      }

      .st10 {
        fill: #fbbd9d;
      }

      .st11 {
        fill: #c2297a;
      }

      .st12 {
        fill: #8e0656;
      }

      .st13 {
        fill: #d62587;
      }

      .st14 {
        fill: #fdb1de;
      }

      .st15 {
        fill: #fd89d1;
      }

      .st16 {
        fill: #9a0c5b;
      }

      .st17 {
        fill: #870550;
      }

      .st18 {
        fill: #7f0350;
      }

      .st19 {
        fill: #fcd4bf;
      }

      .st20 {
        fill: #fdbbe2;
      }

      .st21 {
        fill: #fdcfb4;
      }

      .st22 {
        fill: #ab2e7f;
      }

      .st23 {
        fill: #fc66c7;
      }

      .st24 {
        fill: #fcccb1;
      }

      .st25 {
        fill: #fdd0b5;
      }

      .st26 {
        fill: #fcabdc;
      }

      .st27 {
        fill: #fb48aa;
      }

      .st28 {
        fill: #d4216e;
      }

      .st29 {
        fill: #bc3fd7;
      }

      .st30 {
        fill: #bb1e74;
      }

      .st31 {
        fill: #fd92d4;
      }

      .st32 {
        fill: #fdcfb6;
      }

      .st33 {
        fill: #e7499b;
      }

      .st34 {
        fill: #fcc8aa;
      }

      .st35 {
        fill: #fbc6ab;
      }

      .st36 {
        fill: #980b5d;
      }

      .st37 {
        fill: #700745;
      }

      .st38 {
        fill: #fdd2e8;
      }

      .st39 {
        fill: #fbc6a9;
      }

      .st40 {
        fill: #fdb5df;
      }

      .st41 {
        fill: #d71775;
      }

      .st42 {
        fill: #7a014b;
      }

      .st43 {
        fill: #d42682;
      }

      .st44 {
        fill: #fcc4a6;
      }

      .st45 {
        fill: #f7b292;
      }

      .st46 {
        fill: #fdc9e3;
      }

      .st47 {
        fill: #fdd8c1;
      }

      .st48 {
        fill: #fc7bc8;
      }

      .st49 {
        fill: #e390af;
      }

      .st50 {
        fill: #fcc0a2;
      }

      .st51 {
        fill: #b1146f;
      }

      .st52 {
        fill: #fcc0a0;
      }

      .st53 {
        fill: #fcc4a4;
      }

      .st54 {
        fill: #b1465c;
      }

      .st55 {
        fill: #dd1e80;
      }

      .st56 {
        fill: #d2197f;
      }

      .st57 {
        fill: #f1a086;
      }

      .st58 {
        fill: #a70c69;
      }

      .st59 {
        fill: #fc73ca;
      }

      .st60 {
        fill: #e72580;
      }

      .st61 {
        fill: #e72580;
      }

      .st62 {
        fill: #96065f;
      }

      .st63 {
        fill: #da3d94;
      }

      .st64 {
        fill: #c947b2;
      }

      .st65 {
        fill: #ab126a;
      }

      .st66 {
        fill: #f4a988;
      }

      .st67 {
        fill: #c0455f;
      }

      .st68 {
        fill: #fc9ace;
      }

      .st69 {
        fill: #fcc7a7;
      }

      .st70 {
        fill: #cc3889;
      }

      .st71 {
        fill: #cc147c;
      }

      .st72 {
        fill: #f5ab8a;
      }

      .st73 {
        fill: #fb88cb;
      }

      .st74 {
        fill: #dc7668;
      }

      .st75 {
        fill: #b81374;
      }

      .st76 {
        fill: #ce197a;
      }

      .st77 {
        fill: #b10d6e;
      }

      .st78 {
        fill: #fddbeb;
      }

      .st79 {
        fill: #fcd5bf;
      }

      .st80 {
        fill: #d91b84;
      }

      .st81 {
        fill: #fdd3bb;
      }

      .st82 {
        fill: #d660a2;
      }

      .st83 {
        fill: #f5b18e;
      }

      .st84 {
        fill: #b81974;
      }

      .st85 {
        fill: #d81d80;
      }

      .st86 {
        fill: #ce2d8a;
      }

      .st87 {
        fill: #f8b293;
      }

      .st88 {
        fill: #fdb7e1;
      }

      .st89 {
        fill: #fdc9aa;
      }

      .st90 {
        fill: #be1073;
      }

      .st91 {
        fill: #da7466;
      }

      .st92 {
        fill: #fccbae;
      }

      .st93 {
        fill: #fdcee7;
      }

      .st94 {
        fill: #fcbde2;
      }

      .st95 {
        fill: #d47064;
      }

      .st96 {
        fill: #d57668;
      }

      .st97 {
        fill: #fbbfa0;
      }

      .st98 {
        fill: #fdc2e3;
      }

      .st99 {
        fill: #77084e;
      }

      .st100 {
        fill: #a51769;
      }

      .st101 {
        fill: #fdb5e0;
      }

      .st102 {
        fill: #feead2;
      }

      .st103 {
        fill: #5e0440;
      }

      .st104 {
        fill: #cd6a60;
      }

      .st105 {
        fill: #db3f92;
      }

      .st106 {
        fill: #920558;
      }

      .st107 {
        fill: #a41268;
      }

      .st108 {
        fill: #92035a;
      }

      .st109 {
        fill: #d0206e;
      }

      .st110 {
        fill: #7e044e;
      }

      .st111 {
        fill: #fdcae6;
      }

      .st112 {
        fill: #ee49a4;
      }

      .st113 {
        fill: #da358e;
      }

      .st114 {
        fill: #8f0f5c;
      }

      .st115 {
        fill: #e78c77;
      }

      .st116 {
        fill: #780549;
      }

      .st117 {
        fill: #831da4;
      }

      .st118 {
        fill: #fdcfe5;
      }

      .st119 {
        fill: #b62085;
      }

      .st120 {
        fill: #e0207e;
      }

      .st121 {
        fill: #ae1969;
      }

      .st122 {
        fill: #f4a88a;
      }

      .st123 {
        fill: #f243a6;
      }

      .st124 {
        fill: #e58a77;
      }

      .st125 {
        fill: #d36b64;
      }

      .st126 {
        fill: #ac0f67;
      }

      .st127 {
        fill: #fdd6be;
      }

      .st128 {
        fill: #df2181;
      }

      .st129 {
        fill: #49aae3;
      }

      .st130 {
        fill: #fdd5bf;
      }

      .st131 {
        fill: #f8c2ac;
      }

      .st132 {
        fill: #e99079;
      }

      .st133 {
        fill: #fdcee8;
      }

      .st134 {
        fill: #fca0d6;
      }

      .st135 {
        fill: #eb969a;
      }

      .st136 {
        fill: #be1980;
      }

      .st137 {
        fill: #7f084e;
      }

      .st138 {
        fill: #a41269;
      }

      .st139 {
        fill: #f584aa;
      }

      .st140 {
        fill: #fdc3e4;
      }

      .st141 {
        fill: #c22f7f;
      }

      .st142 {
        fill: #f5ab8c;
      }

      .st143 {
        fill: #aa0e64;
      }

      .st144 {
        fill: #ed2e80;
      }

      .st145 {
        fill: #f33299;
      }

      .st146 {
        fill: #a11560;
      }

      .st147 {
        fill: #f8b492;
      }

      .st148 {
        fill: #e04ca2;
      }

      .st149 {
        fill: #d16960;
      }

      .st150 {
        fill: #9f0c59;
      }

      .st151 {
        fill: #ef9e81;
      }

      .st152 {
        fill: #a70f68;
      }

      .st153 {
        fill: #fdd0e8;
      }

      .st154 {
        fill: #dc1d7e;
      }

      .st155 {
        fill: #e83d99;
      }

      .st156 {
        fill: #9c1562;
      }

      .st157 {
        fill: #e28873;
      }

      .st158 {
        fill: #f867be;
      }

      .st159 {
        fill: #bc0f72;
      }

      .st160 {
        fill: #f4ab88;
      }

      .st161 {
        fill: #f7b08e;
      }

      .st162 {
        fill: #f6b28e;
      }

      .st163 {
        fill: #d4197f;
      }

      .st164 {
        fill: #bf136f;
      }

      .st165 {
        fill: #ed957d;
      }

      .st166 {
        fill: #f74c98;
      }

      .st167 {
        fill: #ca196d;
      }

      .st168 {
        fill: #a71665;
      }

      .st169 {
        fill: #ce1e70;
      }

      .st170 {
        fill: #fdccae;
      }

      .st171 {
        fill: #90175b;
      }

      .st172 {
        fill: #f72392;
      }

      .st173 {
        fill: #f0a185;
      }

      .st174 {
        fill: #710445;
      }

      .st175 {
        fill: #9d0865;
      }

      .st176 {
        fill: #fca5da;
      }

      .st177 {
        fill: #900e57;
      }

      .st178 {
        fill: #f4a889;
      }

      .st179 {
        fill: #a41460;
      }

      .st180 {
        fill: #fdc5e5;
      }

      .st181 {
        fill: #fdd9c3;
      }

      .st182 {
        fill: #fa339b;
      }

      .st183 {
        fill: #f852a2;
      }

      .st184 {
        fill: #fdc8ad;
      }

      .st185 {
        fill: #970c64;
      }

      .st186 {
        fill: #fdc9e4;
      }

      .st187 {
        fill: #f7b494;
      }

      .st188 {
        fill: #fdb0dd;
      }

      .st189 {
        fill: #c71677;
      }

      .st190 {
        fill: #d6388e;
      }

      .st191 {
        fill: #fcc0a1;
      }

      .st192 {
        fill: #e08a74;
      }

      .st193 {
        fill: #e53f99;
      }

      .st194 {
        fill: #fce1d0;
      }

      .st195 {
        fill: #fcd4be;
      }

      .st196 {
        fill: #fdd4e7;
      }

      .st197 {
        fill: #9b1259;
      }

      .st198 {
        fill: #f6339b;
      }

      .st199 {
        fill: #cf378e;
      }

      .st200 {
        fill: #fccfb5;
      }

      .st201 {
        fill: #670441;
      }

      .st202 {
        fill: #dd72a5;
      }

      .st203 {
        fill: #faba99;
      }

      .st204 {
        fill: #d33291;
      }

      .st205 {
        fill: #cd217b;
      }

      .st206 {
        fill: #91075b;
      }

      .st207 {
        fill: #bc2075;
      }

      .st208 {
        fill: #ef2d92;
      }

      .st209 {
        fill: #fb6ec6;
      }

      .st210 {
        fill: #7e084f;
      }

      .st211 {
        fill: #f23aa2;
      }

      .st212 {
        fill: #810755;
      }

      .st213 {
        fill: #d656c1;
      }

      .st214 {
        fill: #b11968;
      }

      .st215 {
        fill: #5b063a;
      }

      .st216 {
        fill: #fc6cc9;
      }

      .st217 {
        fill: #dc3597;
      }

      .st218 {
        fill: #fcd5be;
      }

      .st219 {
        fill: #d56c63;
      }

      .st220 {
        fill: #b93f8b;
      }

      .st221 {
        fill: #e04796;
      }

      .st222 {
        fill: #d02384;
      }

      .st223 {
        fill: #e4167c;
      }

      .st224 {
        fill: #c82182;
      }

      .st225 {
        fill: #fcbe9d;
      }

      .st226 {
        fill: #ce197e;
      }

      .st227 {
        fill: #fdb1dc;
      }

      .st228 {
        fill: #b73b89;
      }

      .st229 {
        fill: #ad1669;
      }

      .st230 {
        fill: #d21875;
      }

      .st231 {
        fill: #fdd4bc;
      }

      .st232 {
        fill: #63c8ed;
      }

      .st233 {
        fill: #fcaedb;
      }

      .st234 {
        fill: #860455;
      }

      .st235 {
        fill: #9b0f59;
      }

      .st236 {
        fill: #6f0f49;
      }

      .st237 {
        fill: #f362be;
      }

      .st238 {
        fill: #d56f64;
      }

      .st239 {
        fill: #f598d0;
      }

      .st240 {
        fill: #db7a6d;
      }

      .st241 {
        fill: #fc9bd6;
      }

      .st242 {
        fill: #fdc7e6;
      }

      .st243 {
        fill: #fd9dd7;
      }

      .st244 {
        fill: #fbbc9b;
      }

      .st245 {
        fill: #df177c;
      }

      .st246 {
        fill: #fabfa1;
      }

      .st247 {
        fill: #fbc4a6;
      }

      .st248 {
        fill: #c11871;
      }

      .st249 {
        fill: #fc9ad7;
      }

      .st250 {
        fill: #fc81c7;
      }

      .st251 {
        fill: #ba126a;
      }

      .st252 {
        fill: #960a52;
      }

      .st253 {
        fill: #a12857;
      }

      .st254 {
        fill: #5f023c;
      }

      .st255 {
        fill: #c74595;
      }

      .st256 {
        fill: #f6b291;
      }

      .st257 {
        fill: #fabc9e;
      }

      .st258 {
        fill: #c57465;
      }

      .st259 {
        fill: #f0a083;
      }

      .st260 {
        fill: #f4a98c;
      }

      .st261 {
        fill: #fdbce2;
      }

      .st262 {
        fill: #c31874;
      }

      .st263 {
        fill: #b22b87;
      }

      .st264 {
        fill: #eb3da0;
      }

      .st265 {
        fill: #fcd2bb;
      }

      .st266 {
        fill: #fdbde2;
      }

      .st267 {
        fill: #f03698;
      }

      .st268 {
        fill: #db7a6b;
      }

      .st269 {
        fill: #c81a6f;
      }

      .st270 {
        fill: #bb39d1;
      }

      .st271 {
        fill: #d1177c;
      }

      .st272 {
        fill: #e89078;
      }

      .st273 {
        fill: #c03bd4;
      }

      .st274 {
        fill: #690344;
      }

      .st275 {
        fill: #5ec3eb;
      }

      .st276 {
        fill: #f4a98a;
      }

      .st277 {
        fill: #fdcaab;
      }

      .st278 {
        fill: #be3fdc;
      }

      .st279 {
        fill: #871055;
      }

      .st280 {
        fill: #e83294;
      }

      .st281 {
        fill: #fdcfe8;
      }

      .st282 {
        fill: #c13484;
      }

      .st283 {
        fill: #fcd0b5;
      }

      .st284 {
        fill: #fdd6e9;
      }

      .st285 {
        fill: #fdd8c2;
      }

      .st286 {
        fill: #da1c80;
      }

      .st287 {
        fill: #8d0456;
      }

      .st288 {
        fill: #fc6dc7;
      }

      .st289 {
        fill: #710345;
      }

      .st290 {
        fill: #f1a083;
      }

      .st291 {
        fill: #c01077;
      }

      .st292 {
        fill: #aa106a;
      }

      .st293 {
        fill: #b51465;
      }

      .st294 {
        fill: #e37e73;
      }

      .st295 {
        fill: #fbbb9a;
      }

      .st296 {
        fill: #f5a98b;
      }

      .st297 {
        fill: #fda4d9;
      }

      .st298 {
        fill: #efa084;
      }

      .st299 {
        fill: #fdd1b6;
      }

      .st300 {
        fill: #f6b08e;
      }

      .st301 {
        fill: #f3ae8c;
      }

      .st302 {
        fill: #890456;
      }

      .st303 {
        fill: #cf635c;
      }

      .st304 {
        fill: #f5af8c;
      }

      .st305 {
        fill: #ec927c;
      }

      .st306 {
        fill: #e42182;
      }

      .st307 {
        fill: #db66a9;
      }

      .st308 {
        fill: #e03893;
      }

      .st309 {
        fill: #6a0344;
      }

      .st310 {
        fill: #9525b6;
      }

      .st311 {
        fill: #940a4e;
      }

      .st312 {
        fill: #7d084e;
      }

      .st313 {
        fill: #e32380;
      }

      .st314 {
        fill: #e88b78;
      }

      .st315 {
        fill: #fcc2a2;
      }

      .st316 {
        fill: #fdafdb;
      }

      .st317 {
        fill: #fdcbb1;
      }

      .st318 {
        fill: #fcccaf;
      }

      .st319 {
        fill: #b9136c;
      }

      .st320 {
        fill: #a10965;
      }

      .st321 {
        fill: #d6358d;
      }

      .st322 {
        fill: #ef2d94;
      }

      .st323 {
        fill: #fcc1a2;
      }

      .st324 {
        fill: #f83ca2;
      }

      .st325 {
        fill: #89054e;
      }

      .st326 {
        fill: #fa85c9;
      }
    </style>
  </defs>
  <g>
    <circle class="st139" cx="41.6" cy="40.6" r="36.9"/>
    <path class="st61" d="M41.6,78.5c-5.1,0-10.1-1-14.7-3-4.5-1.9-8.6-4.6-12-8.1-3.5-3.5-6.2-7.5-8.1-12-2-4.7-3-9.6-3-14.7s1-10.1,3-14.7c1.9-4.5,4.6-8.6,8.1-12,3.5-3.5,7.5-6.2,12-8.1,4.7-2,9.6-3,14.7-3s10.1,1,14.7,3c4.5,1.9,8.6,4.6,12,8.1,3.5,3.5,6.2,7.5,8.1,12,2,4.7,3,9.6,3,14.7s-1,10.1-3,14.7c-1.9,4.5-4.6,8.6-8.1,12-3.5,3.5-7.5,6.2-12,8.1-4.7,2-9.6,3-14.7,3ZM41.6,4.7c-4.9,0-9.6,1-14,2.8-4.3,1.8-8.1,4.4-11.4,7.7s-5.9,7.1-7.7,11.4c-1.9,4.4-2.8,9.1-2.8,14s1,9.6,2.8,14c1.8,4.3,4.4,8.1,7.7,11.4s7.1,5.9,11.4,7.7c4.4,1.9,9.1,2.8,14,2.8s9.6-1,14-2.8c4.3-1.8,8.1-4.4,11.4-7.7s5.9-7.1,7.7-11.4c1.9-4.4,2.8-9.1,2.8-14s-1-9.6-2.8-14c-1.8-4.3-4.4-8.1-7.7-11.4s-7.1-5.9-11.4-7.7c-4.4-1.9-9.1-2.8-14-2.8Z"/>
  </g>
  <g>
    <path class="st218" d="M47,72.5c-.8,0-1.7,0-2.5,0h2.5Z"/>
    <path class="st194" d="M71.9,44.7v-1.4c0,.6,0,.9,0,1.4Z"/>
    <g>
      <g>
        <path class="st78" d="M54.6,16.3c1.4,0,2.9.2,4.3.3s3.9.3,4.6.6.5.6.3,1c0,0,0-.3,0-.3-.2,1.5-.5,3-.8,4.5s0,.1,0,.2c-.2,0-.2,0-.2-.2,0-.4,0-1.6-.3-1.8-.4-.3-1.1-.2-.9.5v-.2c0-.3,0-.6,0-.9s0-.2,0-.4c0-.2.2-.8,0-.8l-5.7-.5c-.8,0-1.6-.2-2.4-.2-.8-.1-1.7-.2-2.6-.2s-.9,0-1.3,0c.8-.1,1.3,0,1.4-1s-.2-.6-.1-.6c.1-.1,3.2,0,3.6,0Z"/>
        <path class="st266" d="M24.3,17.4c0,.3-.3,0-.4.2,0,.2.8.2.8.4s-.2.1-.2.3c0,.4.2.6-.3.9,1.3-.1,2.6-.4,3.9-.6s2-.2,2.9-.2,0,0,.1,0c-2.9.2-6.1.8-9,1.3s-.5.4-1,1.3-1.3,0-1.6.4l-.4-2c0-.2,0-.5.1-.7.2-.4,4.2-1,5-1.1Z"/>
        <path class="st140" d="M28.1,16.9h-.2c1.4-.1,1,1.1.3,1.6-1.3.2-2.6.5-3.9.6.5-.3.3-.4.3-.9s.2-.3.2-.3c0-.2-.8-.2-.8-.4s.4.1.4-.2c.3,0,.7,0,1-.1.9-.1,1.9-.2,2.8-.4Z"/>
        <path class="st15" d="M19.2,19.6c0,.2.3,2.3.4,2.3s1.6-.3,1.7-.4,0-1.1,0-1.3h0c0,.2,0,.7,0,.9,0,.5-.2,1.7.6,1.6-.9,0-1.6,0-2.6,0,0-.2,0-.4,0-.6.1-.2-.1-.5-.1-.6,0-.1,0-.3,0-.4,0-.4,0-.8-.1-1.2s0-.2,0-.2Z"/>
        <path class="st14" d="M19.2,19.3l.4,2c.2-.3,1.5-.3,1.6-.4.5-.8-1-.9,1-1.3,0,.2-.7,0-.9.2s0,.2,0,.3c0,.3,0,1.3,0,1.3s-1.6.4-1.7.4-.4-2.1-.4-2.3,0-.2,0-.3Z"/>
        <path class="st153" d="M63.8,18.2c0,.3,0,.8,0,1-.2,1-.5,2.2-.7,3.2h0c.3-1.5.6-3,.8-4.5.1,0,0,.2,0,.3Z"/>
        <path class="st100" d="M50.3,29.7l.7-.5c.7-.2.7.5,1,.7,1,.9,2.2.8,3.3.2s.2-.7.7-.2.1.3.3.4c-1.3.3-2.9,1.1-4.1,1.7-.3-.4-.6-.8-.9-1.1s-.6-.7-.9-1.1Z"/>
        <path class="st293" d="M59.9,29.2c0,.3,0,.7-.2.9-1.3-.2-2.3-.2-3.6,0-.2,0-.2-.3-.3-.4,0-.2-.1-.3-.2-.4,1.4-.5,2.9-.4,4.3-.5,0,0,0,.2,0,.3Z"/>
        <path class="st227" d="M60.1,28.4c0,0,0,.2,0,.3s1.6.7,1.6.4c0,.5,0,.9-.2,1.4-.6-.2-1.2-.3-1.9-.4.2-.3.2-.6.2-.9.1-.1,0-.3,0-.5v-.3Z"/>
        <path class="st5" d="M53.5,18.1c.8,0,1.6.1,2.4.2s1.4.3,2.1.2c0,.2-.4,0-.5,0s.1.2.1.4c0,.3-.1.8,0,1s1.6,1.9,1.8,1.9c.3,0,.4,0,.6-.2-.5.9-1,1.5-1.6,2.2-.6.1-.8-1-1-1.1s-.4.2-.6,0-1.1-.9-1.3-1,0-.2-.1-.3c0,0-.4.1-.2-.3s.6-.2.2-.5c-.5-.2-2.6-1-2.6-1.6s.9-.8.1-.9h.7c-.6-.1-2,0-2.5-.2.8,0,1.7,0,2.5,0Z"/>
        <path class="st242" d="M36.5,16.2c-.7.2.2.3.3.4,0,.2-.2.5-.3.5s.2.3.1.4-.8.3-.9.4c2.1,0,4.2-.1,6.2-.1s1.3,0,2,0c1.9,0,3.8,0,5.7.1s.9,0,1.3,0h0c0,0-11.9,0-11.9,0-.5,0-1.1,0-1.6,0-.5,0-1,0-1.5,0h-1.1c-.2,0-.7,0-1,0-.9,0-1.8,0-2.6.2-.9,0-2,.1-2.9.2.7-.6,1.2-1.8-.3-1.5h.2c.8-.2,1.6-.4,2.4-.4s.8,0,1.2-.1c1.6-.1,3.2-.2,4.9-.3Z"/>
        <path class="st196" d="M43.5,16.1c.1,0,.2,0,.4,0,1.9,0,3.9,0,5.7,0s1,0,1.5,0h1.8c.5,0,1.2,0,1.7.1-.4,0-3.5-.2-3.6,0s.2.4.1.6c0,1-.6.9-1.4,1-1.9,0-3.8-.1-5.7-.1.4,0,0-1.1-.2-1.3s-.4-.2-.6-.2c0-.2.2-.1.3-.1Z"/>
        <path class="st144" d="M61.6,19.6c0-.2,0-.6,0-.7,0-.1-.4,0-.5,0s-.4,1.3-.5,1.5c-.2.4-.5.8-.7,1.2-.2.1-.3.3-.6.2s-1.7-1.8-1.8-1.9c0-.2,0-.7,0-1s-.2-.4-.1-.4c0,0,.5,0,.5,0-.7,0-1.4-.1-2.1-.2l5.7.5c.2,0,0,.7,0,.8Z"/>
        <path class="st28" d="M61.6,19.6c0,.1,0,.2,0,.4l-1,5.4.2-1.7c-.2.8-1.2,1.6-1.6.5s.2-.5-.2-.5-1.3.9-1.7,1.2c0,0,0,0,0-.1.1-.2.7-.7.9-.9.7-.7,1.1-1.3,1.6-2.2s.5-.8.7-1.2.5-1.5.5-1.5.4,0,.5,0,0,.5,0,.7Z"/>
        <path class="st20" d="M61.5,20.8c0,.8-.3,1.7-.4,2.5s-.4,1.8-.4,2.8c.3-.7,1.1-.4,1.6,0-.2,1-.4,2-.5,3,0,.3-1.6-.4-1.6-.4s0-.2,0-.3c0-.6.3-2.3.4-3l1-5.4c0,.3,0,.6,0,.9Z"/>
        <path class="st153" d="M62.9,22.6c0,.3-.2.6-.2.9s0,.6-.1.9h-.2c0-.3-.1-.6-.4-.8s-.7,0-.9-.3c.1-.8.3-1.7.4-2.5v.2c-.1-.7.6-.8,1-.5s.2,1.5.3,1.8,0,.2.2.2Z"/>
        <path class="st46" d="M53.5,18.1c-.8,0-1.7,0-2.5,0,0,0,0,0,0,0h0c.9,0,1.7,0,2.6.1Z"/>
        <path class="st242" d="M62.8,23.6h0c0-.3.2-.6.2-.9s0-.1,0-.2h0c0,.4-.1.8-.2,1.1Z"/>
        <path class="st163" d="M32.7,18.3c.2,0,.5,0,.7,0-1.5.2-.5,0-.1.6s.2.6.3.8c.5.6,1.4.6,1.8,1s.1.6.2.8.3,0,.4,0c.3.3.5.7.7.9s.7.3,1.1.6.5,1,.7,1.2c-.2,0-.6-.2-.8,0-.1,0-.7.9-.9,1.1-.4.3-.6.7-.9,1s-.8.8-1.2,1.3c.7-.9-.3-.1-.4-.2s.2-.6.1-.9-.5-.7-.5-.8c-.2-.4-.4-1.2-.6-1.6-.6-.8-1.1-.4-1.4-.6s-.2-.6-.2-.8.1-.1,0-.3c-.2-.7-1.7-.5-1.6-.7s.2-.1.3-.2,0-.4,0-.4c0,0,1.3,0,1.3-.5s-.4-.2-.7-.4-.6-.9-.6-.9c.5,0,1,.5,1.1.4.3,0,0-.4-.2-.6s0-.3,0-.3-.8.1-.9,0c-.3-.4,1.4-.2,1.6-.4-1.3,0-2.7.2-4,.4s-5.3.7-5.5.9-.2.7-.2.7c0,.3.3.6.3.7,0,.5-.9-.4-1-.5s-.4-1.1-.5-.4h0c0,0,0-.2,0-.3.2-.1.8,0,.9-.2,2.9-.5,6.1-1,9-1.3s1.1,0,1.6,0Z"/>
        <path class="st140" d="M33.7,18.1h0c-.3,0-.7,0-.9.1-.5,0-1.1,0-1.6,0,0,0,0,0-.1,0,.9-.2,1.8-.2,2.6-.2Z"/>
        <path class="st46" d="M42,16.1h-1.4c.3.3,1.3.2,1.5.4s.4,1.2,0,1.3c-2.1,0-4.2.1-6.2.1.1-.1.9-.3.9-.4s-.2-.3-.1-.4.4-.4.3-.5-1-.2-.3-.4c1.8,0,3.6-.1,5.4-.1Z"/>
        <path class="st118" d="M43.5,16.1c-.1,0-.3,0-.3.1.2,0,.5,0,.6.2s.6,1.2.2,1.3c-.7,0-1.3,0-2,0,.5,0,.2-1.1,0-1.3-.2-.2-1.2,0-1.5-.3h1.4c.5-.1,1-.2,1.5-.1Z"/>
        <path class="st118" d="M49.6,16.1c-1.9,0-3.9-.1-5.7,0h5.7Z"/>
        <path class="st140" d="M31.2,16.5c.1,0,.3,0,.4,0-.4.1-.8.1-1.2.1h0c.3,0,.5-.1.8-.1Z"/>
        <path class="st242" d="M61.1,23.3c.2.3.5,0,.9.3s.4.5.4.9h.2c0,.1,0,.4,0,.6,0,.4-.1.7-.2,1.1-.5-.4-1.3-.7-1.6,0,0-.9.3-1.9.4-2.8Z"/>
        <path class="st20" d="M62.5,25.1c0-.2,0-.4,0-.6s0-.6.1-.9h0c0,.5-.2,1-.3,1.5Z"/>
        <path class="st271" d="M21.3,20.1c.1-.7.3.2.5.4s.9,1.1,1,.5-.3-.4-.3-.7.1-.7.2-.7c.2-.2,4.9-.8,5.5-.9,1.3-.2,2.7-.3,4-.4-.2.2-2,0-1.6.4s.9,0,.9,0,0,.2,0,.3c0,.2.4.5.2.6s-.6-.5-1.1-.4.5.9.6.9c.3.2.7-.1.7.4s-1.2.5-1.3.5,0,.3,0,.4-.3.2-.3.2c0,.2,1.4,0,1.6.7s0,.3,0,.3c-1.2.2-.6-.3-.7-.4s-.3,0-.4,0c-.1,0-.1-.3-.3-.3s-2,.9-1.6,0,.3,0,.2-.3-.7.3-.8.3-.2,0-.3,0c-1,.3-2,.5-3.1.8-.1,0-.3,0-.4-.1-.6-.3-1.1-.5-1.6-1s-1.3-1.3-1.4-1.3,0,.5,0,.6c-.1-.2-.1-.6,0-.9Z"/>
        <path class="st251" d="M24.4,22.6c.1.4,0,.3-.3.3-.7,0-1.5-.2-2.2-.3-.7,0-.6-1.1-.6-1.6s0-.6,0-.6,1.2,1.1,1.4,1.3c.6.4,1,.6,1.6,1Z"/>
        <path class="st229" d="M55.6,29.4c0,.1.2.2.2.4-.5-.5-.2,0-.7.2-1.1.6-2.3.7-3.3-.2s-.3-1-1-.7l-.7.5s0-.1,0-.1l2.9-1.9s0,0,0,0c.2-.1.7-.4.9-.3s1.4,1.8,1.6,2.2Z"/>
        <path class="st167" d="M56,26c.8-.2,1.8,0,2.5.3s.5.6.8.9.4,0,.5.2,0,.8.1.8,0-.9.2-.9c0,.5-.1.9-.1,1.4s0,.4,0,.5c0,0,0-.2,0-.3-1.4.1-2.9,0-4.3.5-.2-.3-1.4-2.1-1.6-2.2s-.7.2-.9.3l.8-.5c.6,0,1.5-.7,2.1-1.1Z"/>
        <path class="st109" d="M57.3,24.9c.4-.3,1.3-1.2,1.7-1.2s.1.4.2.5c.4,1.1,1.4.3,1.6-.5l-.2,1.7c0,.7-.5,2.4-.4,3v.3c-.1-.5,0-.9,0-1.4-.2,0-.1.9-.2.9-.2,0,0-.6-.1-.8s-.4-.1-.5-.2c-.3-.3-.4-.7-.8-.9-.7-.4-1.7-.5-2.5-.3.4-.3.9-.7,1.3-1.1Z"/>
        <path class="st60" d="M50.9,17.9s0,0,0,0c.5.2,1.9,0,2.5.1h-.7c.7.2-.1.7-.1,1,0,.5,2.1,1.4,2.6,1.6.4.3-.1.4-.2.5-.2.4.2.2.2.3s0,.2.1.3,1.2,1,1.3,1c.3,0,.4-.2.6,0s.4,1.2,1,1.1c-.2.2-.8.7-.9.9-.5,0-.4.6-1,.4s-.2-.3-.3-.5c-.3-.4-1.3-1.7-1.7-1.9s-.9-.1-1.2-.3,0-.4,0-.4-.3,0-.4,0c-.3,0-.3-.2-.8-.3s-.3.3-.5,0c0,0,0,.1,0,.2-.7-1.6-2.8-2.5-4.4-1.6-.2,0-.4.1-.6.3.2-.4.9-.5,1.2-.7-1.1.2-.4-.3-.9-.8s-.8-.4-.9-.6,0-.5-.4-.7h3c-2.9,0-5.8-.1-8.7,0s-.4,0-.6,0h-.1,11.9Z"/>
        <path class="st55" d="M39.7,17.9c-.2.5,0,1.3.5,1.7s1.1.7,1.4.9c.5.4,1.6,2,2,2.6s1.2,2.6,1.6.5c0,.7.2,1.1.6,1.6s.6.5.9.8.4.2.4.3,0,.2,0,.3c0,0,.3,0,.3,0,0,0,0,.6,0,1,.5,1.3.9-.2,1.3-.6s.3,0,.4-.2.1-.6.2-.2-.3.3,0,.3c.1-.2.7-.3.7-.4.1-.2-.2-.3,0-.6.2-.1.5-.5.7-.6s.2-.3.4-.3c-.1.2-.1.6-.2.8s-.3,0-.4.2,0,.6,0,.6c0,0,.3,0,.3.4s-.9,1-.6,1.6c-.2,0-.7.1-.6.4-.7-.6-1.6.2-2.3.6v-.2c.3,0,.5,0,.4-.2-.5,0-1.5.2-1.9-.2s-.2-.5-.3-.6-.5-.2-.7-.4-.3-.7-.5-.8-.8-.5-.8-.5c-.2-.3,0-1,0-1,0,0-.3.3-.5.2s-.6-1.2-.8-1.5c-.6-.6-.8,0-1.2,0s-.2-.8-.4-.8,0,.4-.3.2,0-.2-.1-.3-.6.2-.7-.4.2-.3.2-.6-.6-.7-.6-.8.2-.2.2-.3c0-.6-1-.6-1.2-.9s-.2-.6-.4-.6-.3.1-.4,0c-1-.2-.6-1.2-.8-1.3-.2-.2-1.4,0-1.6-.2h1.6c-.9-.2-1.9,0-2.8,0h0c.3,0,.7-.1,1-.1h1.1c.5,0,1,0,1.5,0s1.2,0,1.8,0,.4,0,.6,0Z"/>
        <path class="st306" d="M39,17.9h.1c-.6,0-1.2,0-1.8,0,.5-.1,1.1,0,1.6,0Z"/>
        <path class="st313" d="M51.4,22.1c0,0,0-.1,0-.2.2.3.2,0,.5,0,.5,0,.5.2.8.3s.3-.1.4,0-.1.3,0,.4.9.1,1.2.3,1.4,1.5,1.7,1.9,0,.4.3.5.5-.4,1-.4c0,0,0,0,0,.1-.4.3-.9.8-1.3,1.1s-1.4,1.2-2.1,1.1-.2-.8.1-1.1.6,0,.6-.5-.5-.8-.5-.8c0,0-.4,0-.8,0s-.1-.2-.2-.3c-.5-.3-1.5-.5-1.3-1.2-.1.1-.2.4-.2.6.1-.5-.1-1-.1-1.5Z"/>
        <path class="st226" d="M24.9,22.8c1-.3,2-.5,3.1-.8s.3,0,.3,0,.6-.7.8-.3-.2.2-.2.3c-.4,1,1.4,0,1.6,0s.2.2.3.3.3-.1.4,0c0,0-.5.6.7.4,0,.2.2.7.2.8.3.2.8-.2,1.4.6s.4,1.2.6,1.6.5.7.5.8c0,.3-.2.7-.1.9s1-.7.4.2c-.2.3-.4.5-.6.8l-3.8-1.4c-.5-.5-.7-1.1-1.2-1.7s-.2-.3-.3-.4-.3-.2-.4-.2c-.9-.7-2.6-1.3-3.6-1.9Z"/>
        <path class="st286" d="M33.7,18.2c.9,0,1.9-.2,2.8,0h-1.6c.2.2,1.3,0,1.6.2s-.2,1.1.8,1.3.2-.2.4,0,.2.5.4.6c.3.2,1.3.3,1.2.9s-.2.1-.2.3.6.7.6.8c0,.2-.3.3-.2.6,0,.6.6.4.7.4.1,0,0,.2.1.3.3.1,0-.3.3-.2.3,0,0,.7.4.8s.6-.5,1.2,0,.8,1.5.8,1.5c.2.1.4-.3.5-.2s-.1.7,0,1,.6.3.8.5.3.7.5.8c.2.2.6.3.7.4,0,0,0,.5.3.6.4.4,1.4.2,1.9.2,0,.2-.2.2-.3.2-1,.2-2.1,0-2.9-.6s-.5-.6-.5-.6c-.1,0-.2.2-.3.2-.1,0-.2-.7-.4-.9s-.6-.4-.7-.6c-.2-.4-.2-1.3-.7-1.7s-.9-.2-1.1-.3c-.3-.1-.4-.5-.7-.6s-.3.1-.4.1-.3-.1-.5-.1-.1.3-.6.1-.1-.1-.2-.2c-.2-.3-.4-.9-.7-1.2s-.8-.4-1.1-.6-.4-.7-.7-.9-.4,0-.4,0c0-.1.3-.4-.2-.8s-1.4-.4-1.8-1-.1-.5-.3-.8c-.4-.5-1.4-.4.1-.6-.2,0-.5,0-.7,0,.3-.1.6,0,.9,0Z"/>
        <g>
          <g>
            <path class="st20" d="M69.2,22.4c0-.7-2-.6-2.4,0-.2-.1-.9-.3-1.2-.4s-.8-.3-1.1-.4c-.3-.4,0-1.3,0-1.8,1.1.5,3.5,1,4.4,1.6s.4.5.3,1Z"/>
            <path class="st188" d="M66.9,23.1c0,.7.5,0,.8-.1.5,0,.8.2,1,.6-.4,1.2-.9,2.3-1.3,3.4-.2-.6-.7-.7-1-1.3s-.2,0-.3,0c0,0,.5-1.6.6-1.9s.2-.5.2-.6Z"/>
            <path class="st243" d="M65.2,27.9l1.1.4.4.6c-.3.8-.6,1.7-.9,2.5-.2-.1-1.5-.7-1.5-.8s.5-1.5.6-1.7.1-.5.2-.7.1-.1.1-.1Z"/>
            <path class="st297" d="M66.7,23.8c0,.3-.6,1.8-.6,1.9s.2,0,.3,0c.4.6.8.7,1,1.3-.2.6-.5,1.2-.7,1.9l-.4-.6-1.1-.4c.2-.4.3-.9.4-1.4.3-.9.7-1.9,1.1-2.8Z"/>
            <path class="st326" d="M63.7,19.2c0,.3.4.5.7.6,0,.5-.3,1.4,0,1.8-.2,0-.3,0-.5-.1s-.5-.3-.6-.2,0,.5,0,.6l-1,5.4c0,0,0,.2,0,.3-.2,1-.4,2.1-.5,3.1,0,0-.1-.1-.1-.1.1-.4.1-.9.2-1.4.2-1,.3-2,.5-3s.1-.7.2-1.1.2-1,.3-1.5.1-.8.2-1.1c.2-1,.6-2.2.7-3.2Z"/>
            <path class="st101" d="M69.2,22.4c0,.4-.3.8-.4,1.1-.2-.3-.5-.6-1-.6s-.8.8-.8.1c0,0,0-.2,0-.2.4-.2,0-.4-.2-.6.3-.5,2.3-.6,2.4,0Z"/>
            <path class="st158" d="M65.8,31.4c-.1.3-.3.7-.3,1.1-.4-.3-1.3-.8-1.8-1.1.2,0,.2,0,.3-.1.4-.7.5-1.8.9-2.4,0,.2-.6,1.7-.6,1.7s1.3.7,1.5.8Z"/>
            <path class="st248" d="M63.1,26.6c.2.6-.6,1.9.3,2s.8-.3,1.2-.5.3,0,.3,0c.2,0,0-.2,0-.2.2,0,0,.1,0,.2,0,.2-.1.5-.2.7-.4.7-.5,1.8-.9,2.4s0,.2-.3.1c-.7-.3-1-.4-1.7-.6,0-.2.5,0,.5,0,.1-.1.5-3.3.4-3.7,0-.1.1-.3.2-.4Z"/>
            <path class="st197" d="M62.9,27c0,.4-.3,3.6-.4,3.7s-.4-.2-.5,0c0,0-.1,0-.2,0,.1-.7.1-1.8.4-2.5s.5-.7.7-1.2Z"/>
            <path class="st141" d="M63.1,26.6c0,.1-.1.3-.2.4-.2.4-.6.7-.7,1.2-.3.7-.3,1.7-.4,2.5,0,0,0,0,0,0,0-1,.3-2.2.5-3.1.4-.3.6-.6.9-1h0Z"/>
            <path class="st198" d="M64.4,21.6c.4.1.8.3,1.1.4h0c0,0-.2,0-.2.1,0,.1-.4,1.7-.7,2-.4.5-.7,1.1-1.1,1.6h-.2c0-.8.3-1.7.5-2.6s.5-1.3,0-1.6c.2,0,.3,0,.5.1Z"/>
            <path class="st188" d="M66.8,22.3c.2.1.6.3.2.6,0-.2.1-.2,0-.4s-1.3-.5-1.4-.5h0c.3,0,1,.2,1.2.3Z"/>
            <path class="st169" d="M65.6,22.1c0,0,1.3.5,1.4.5.2.2,0,.2,0,.4s0,.1,0,.2c0,.1-.2.4-.2.6-.4.9-.7,1.9-1.1,2.8.2-.4-.4-.3-.5-.5,0-.3.6-1.2.3-2s-.5-.6-.5-.6-.2.4-.3.5c.3-.3.6-1.9.7-2s.1,0,.2,0Z"/>
            <path class="st269" d="M64.6,24.1c0-.1.3-.5.3-.5s.5.5.5.6c.2.7-.4,1.7-.3,2s.7,0,.5.5c-.2.4-.3.9-.4,1.4s-.1.1-.1.1c0,0,0-.2,0-.2s0,0,0,.2-.2,0-.3,0c-.4.2-.2.6-1.2.5s0-1.4-.3-2h0c.1-.2.2-.4.3-.6s.1-.2.1-.3c.4-.5.7-1.1,1.1-1.6Z"/>
            <path class="st308" d="M63.3,21.8c-.2,1.4.2.3.6,1.2-.2.9-.5,1.8-.5,2.8h.2c0,0,0,0-.1.2h-.2c.4-.5-.3-.5-.5-.2s-.3,1.2-.4,1.4l1-5.4Z"/>
            <path class="st280" d="M63.9,21.4c.4.4,0,1.2,0,1.6-.4-.9-.7.1-.6-1.2s0-.6,0-.6.5.2.6.2Z"/>
            <path class="st321" d="M62.3,27.2c0-.2.3-1.4.4-1.4.3-.3.9-.3.5.3h.2c0,0-.2.2-.3.4-.3.4-.5.8-.9,1,0,0,0-.2,0-.3Z"/>
          </g>
          <g>
            <path class="st9" d="M39.3,13.4c-.2,0-.8.2-1,.1-.8,0-1.4-.6-2.3,0-.6.7-2.3.2-3,.3s-.2.1-.1.3c-.5,0-4.2-.5-4.5-.4s-.3,1.1-.4,1.1-.5-.3-.7-.3c-.4,0-1,.5-1-.2.2-.7.2-2.2,1-2.4s2.7.1,3.5.2c2.9.3,5.7.8,8.6,1.1Z"/>
            <path class="st281" d="M39.3,13.4c1.4.1,2.9.4,4.3.6,0,.2,1.8.3,1.6.5s-1.5,0-1.8.6c-.8.1-2.6-.5-3.3-.4s-.2.3-.5.4c0,0,0,0,0,0,0-.2-.5-.2-.6-.2-1.3-.1-2.5-.3-3.8-.4s-1.5-.2-2.3-.3c0,0,0,0,0,0-.1-.2,0-.2.1-.3.8-.2,2.4.3,3-.3,1-.6,1.6,0,2.3,0s.9-.2,1-.1Z"/>
            <path class="st134" d="M49.9,15.3c.3,0,.5.1.8.1l1.8.4c1.3.5,2.8.4,4.1.5s1.5,0,2.1.2.1,0,.1,0c-1.4-.1-2.9-.2-4.3-.3-.5,0-1.2-.1-1.7-.1h-1.8c-.5,0-1,0-1.5,0h-5.7c-.1,0-.2,0-.4,0-.5-.1-1,0-1.5,0-1.8,0-3.6,0-5.4.1s-3.2.2-4.9.3-.3,0-.4,0l12.4-.6-2.4-.5c.6,0,1.3.1,1.9.2v-.3s.2,0,.3,0c.6,0,1.2.1,1.8.1,1.5,0,3.2-.1,4.5,0s1.5.7,2.4.5c-.8-.4-1.7-.5-2.6-.7,0,0,.2,0,.3,0Z"/>
            <path class="st183" d="M52.6,12.7c-.3.5-.4.7,0,1.1-.3.1-.7.4-1.1.5-.8.2-1.4,0-2.1,0s-1.7,0-1.9-.1c-.3,0-.5-.2-.5-.6,1.8-.3,3.7-.7,5.5-1Z"/>
            <path class="st182" d="M57.9,12c-.5-.1-.5.4-.6.6-.3.4-.8.7-1.1,1.2-.4,0-1.5.3-1.9.4.3-.1-.3-.5-.3-.7.5-.3.3-.5.1-.9s0-.2,0-.2c.8-.2,3.3-.8,3.9-.4Z"/>
            <path class="st172" d="M57.9,12c.4.3.4,2.1.4,2.7-.2,1.1-1.2.6-1.8.2,0-.4,0-1.1-.4-1.1.3-.5.7-.8,1.1-1.2s0-.7.6-.6Z"/>
            <path class="st186" d="M44.5,14.1c.8.1,1.6.3,2.4.5s1,.2,1.5.4,1,.3.7.4c-.7.2-2.4,0-3.2,0-.8,0-1.6-.2-2.4-.2s0,0,0,0h0c.3-.8,1.6-.6,1.8-.7.3-.2-1.5-.3-1.6-.5.3,0,.7,0,.9,0Z"/>
            <path class="st193" d="M16.6,20.8c.3.8.6.6,1.2.4-.2.3-.4.5-.4.9,0,0,0-.2-.1-.2-.2,0-1.9.4-2.2.5s-.6.5-1,.6-.8-.1-1.2,0c0-.1,0-.3,0-.4.2-.3,3.1-1.6,3.7-1.8Z"/>
            <path class="st133" d="M32.8,14.2s0,0,0,0c-.6,0-4.3-.4-4.5-.4s-.4,1.6-.5,1.9-.1.5-.3.6-1.5.3-1.8.3c.2-.6.3-1.5.5-2.2,0,.7.6.1,1,.2s.6.4.7.3.1-1.1.4-1.1,3.9.4,4.5.4Z"/>
            <path class="st190" d="M19.3,21.4s.3.3.1.6c0,0-.1-.5-.2-.5-1.2.7-2.6,1.2-3.9,1.8s-1.2.6-1.8.9c-.1-.3-.6-.9-.6-1.1.4-.2.8,0,1.2,0s.6-.4,1-.6,2-.6,2.2-.5,0,.2.1.2c.3.2.8-.2.9-.5.4.2.5-.2.9-.2Z"/>
            <path class="st208" d="M58.7,16.6c-.6-.1-1.4-.2-2.1-.2,0-.4,0-1,0-1.4.6.4,1.6.9,1.8-.2,0,.6.1,1.3.4,1.9Z"/>
            <path class="st264" d="M19.3,21l-.2-.9c-.1.5-.4.6-.6,1.1,0-.3-.4,0-.6,0-.6.2-.9.4-1.2-.4.8-.3,1.7-.6,2.5-1.1,0,.4,0,.8.1,1.2Z"/>
            <path class="st166" d="M53.3,12.5c.1,0,.6,0,.8,0,.2.3.3.6-.1.9s-1,.3-1.3.4c-.4-.4-.4-.7,0-1.1.2,0,.4-.1.7-.1Z"/>
            <path class="st241" d="M27.8,15.8c0,.2-.3,1-.2,1.1s1.9-.3,2.2-.3.4,0,.6,0h0c-.8.1-1.6.3-2.4.4s-1.9.2-2.8.4c.3-.2.3-.4.4-.6.3,0,1.6-.2,1.8-.3s.2-.4.3-.6Z"/>
            <path class="st27" d="M47.1,13.7c0,.4.2.5.5.6l-.8.2h.1c-.8,0-1.6-.2-2.4-.4.8-.2,1.7-.3,2.6-.4Z"/>
            <path class="st30" d="M15.4,23.3c-.2.2,0,.6.2.5-.3.2-.7.5-1,.7s-.5.3-.8.5c0-.2-.1-.6-.2-.8.6-.4,1.2-.6,1.8-.9Z"/>
            <path class="st324" d="M54.1,12.4c0,0,0,.2,0,.2-.2,0-.7,0-.8,0,.2-.2.5-.1.7-.1Z"/>
            <path class="st128" d="M32.9,14.3c.8,0,1.5.2,2.3.3h0c-.5,0-1,0-1.4,0,1.1-.1-.3.9-.3,1.3s1.4-.2,1.6,0c-1.8.2-3.5.6-5.3.8-.3,0-2.1.4-2.2.3s.3-.9.2-1.1c.1-.3.4-1.8.5-1.9.2,0,4,.3,4.5.4Z"/>
            <path class="st123" d="M39.6,15.2s0,0,0,0c.5,0,1,.2,1.5.2s0,0,0,0l2.4.5-12.4.6c-.3,0-.5,0-.8,0s-.4,0-.6,0c1.8-.2,3.5-.6,5.3-.8s.7,0,1,0,.9-.1.5.3h6.4c-1.2-.3-2.4-.6-3.6-.8,0,0,.2,0,.3,0Z"/>
            <path class="st261" d="M43.4,15.2h0c-.8,0-1.6-.2-2.2.2-.5,0-1-.1-1.5-.2.2,0,.3-.3.5-.4.7-.1,2.4.5,3.3.4Z"/>
            <path class="st261" d="M35.2,14.5c1.3.1,2.5.3,3.8.4s.7,0,.6.2c0,0-.2,0-.3,0-.1,0-.3,0-.4,0-.4,0-.8-.1-1.1-.1-.8-.2-1.7-.3-2.6-.4h0Z"/>
            <path class="st214" d="M56.2,13.8c.3,0,.3.7.4,1.1s0,1,0,1.4c-1.4-.1-2.9,0-4.1-.5h0c.2,0,.4.1.6.1.3,0,2.5.3,2.6.2s0-.1-.1-.1h-1.1s-.5,0-.5-.1-.6-.4-.6-.5c-.2-.4.1-1,.1-1.1s-1.2.2-1.4.2h0c.6,0,1.4-.3,2.1-.4s1.6-.4,1.9-.4Z"/>
            <path class="st146" d="M53.1,16c-.2,0-.4-.1-.6-.1-.6-.1-1.2-.3-1.9-.4s-.5-.1-.8-.1l-.4-.2c.2,0,.4,0,.6,0,1.5-.2,2.1-.4,3,1Z"/>
            <path class="st33" d="M51.6,14.3c0,.3.4.2.6.2h0c-.7.2-1.4.2-2.1.4-.2,0-.4,0-.6,0l.4.2c0,0-.2,0-.3,0-.1,0-.3-.1-.4-.1-.1-.2,0-.6.2-.7.7,0,1.4.1,2.1,0Z"/>
            <path class="st316" d="M49.3,15.1c0,0,.2.1.4.1.9.2,1.8.4,2.6.7-.9.2-1.7-.4-2.4-.5-1.3-.1-3,0-4.5,0,.2,0,.4,0,.6,0,.8,0,2.5.1,3.2,0s-.6-.4-.7-.4c.3,0,.6,0,.9.1Z"/>
            <path class="st26" d="M43.4,15.3s0,0,0,0h0c-.1,0-.3,0-.4,0v.3c-.5,0-1.2-.1-1.8-.2s0,0,0,0c.7-.4,1.4-.2,2.2-.1Z"/>
            <path class="st261" d="M45.9,15.5c-.2,0-.4,0-.6,0-.6,0-1.2-.1-1.8-.1h0c.8,0,1.6,0,2.4.1Z"/>
            <path class="st168" d="M52.6,15.8h0l-1.8-.4c.6.1,1.2.3,1.9.4Z"/>
            <path class="st324" d="M54,13.5c0,.3.6.6.3.7-.6.1-1.4.4-2.1.4s-.6,0-.6-.2c.4,0,.7-.4,1.1-.5s1.1-.2,1.3-.4Z"/>
            <path class="st112" d="M49.5,14.4c-.2.2-.3.5-.2.7-.3,0-.6-.1-.9-.1-.5-.2-1-.2-1.5-.4h-.1c0-.1.8-.4.8-.4.2,0,1.6.1,1.9.1Z"/>
            <path class="st148" d="M17.9,21.3c.1,0,.6-.3.6,0,0,0,0,.3,0,.4-.1.3-.6.7-.9.5,0-.4.2-.6.4-.9Z"/>
            <path class="st177" d="M19.4,22c0,.2,0,.5,0,.6-1.3.1-2.6.5-3.8,1.1-.3,0-.4-.3-.2-.5,1.3-.6,2.7-1.1,3.9-1.8,0,0,.2.4.2.5Z"/>
            <path class="st217" d="M19.3,21c0,.1,0,.3,0,.4-.3,0-.5.4-.9.2,0,0,0-.3,0-.4.2-.5.5-.7.6-1.1l.2.9Z"/>
            <path class="st154" d="M35.2,14.6c.9,0,1.7.2,2.6.4-.6,0-1.2-.1-1.8-.1,1,.2-1,.9.8.7-.2,0-.5,0-.6.1-.3,0-.7,0-1,0-.2-.1-1.7.3-1.6,0s1.4-1.4.3-1.3c.5,0,1,0,1.4,0Z"/>
            <path class="st211" d="M39.3,15.2c1.2.2,2.4.5,3.6.6h-6.4c.5-.3-.1-.1-.5-.1.2,0,.4-.1.6-.1.8-.1,1.6-.3,2.4-.3h-.2c.1-.1.3,0,.4,0Z"/>
            <path class="st41" d="M37.7,15c.4,0,.8,0,1.1.1h.2c-.8.2-1.6.3-2.4.4-1.8.1.2-.5-.8-.7.6,0,1.2,0,1.8.1Z"/>
            <path class="st168" d="M52.2,14.6c.2,0,1.3-.3,1.4-.2s-.3.7-.1,1.1.6.5.6.5.5.1.5.1h1.1s.1.1.1.1c-.1,0-2.3-.2-2.6-.2-.9-1.4-1.5-1.2-3-1,.7-.2,1.4-.3,2.1-.4Z"/>
          </g>
        </g>
        <path class="st90" d="M29.2,25.4c.5.5.7,1.2,1.2,1.7l3.8,1.4c-.6.7-1.3,1.4-1.8,2.2,0,0-.3,0-.4,0,0,0,.2,0,.1-.2s-1.7-1.1-2.1-1.3c.3-.9.3-1.5,0-2.4s-.3-.9-.7-1c0,0,0,0,0,0,0,0,0-.2,0-.3Z"/>
        <path class="st16" d="M29.9,26.7c.2.8.1,1.5,0,2.3,0,0-.1-.1-.1,0,0,0-.2-.1-.1-.3.3-.7.3-1.2,0-1.8s-.3,0-.2-.4c0,.2,0,.5-.1.7v-.9c0-.2-.1-.4-.1-.6.4.1.6.6.7,1Z"/>
        <path class="st143" d="M30,29.1s0,0,0,0c.1-.8.2-1.5,0-2.3.3.9.4,1.4,0,2.4Z"/>
        <path class="st76" d="M46.3,30c-.2.1-.4.4-.6.4,0,0,0-.1,0-.1-.3-.3-1.6,0-2,0s-.4-.4-.1.2c-.5-.5-1-1.1-1.4-1.6s0-.2-.1-.3c.9.6,2.8.6,3.9,1s.6.2.3.5Z"/>
        <path class="st230" d="M53.1,27.6l-2.9,1.9c-.1-.1-.2-.2-.4-.4s-.3-.4-.3-.4c0-.2.5-.3.6-.4,1-.3,1.9-.5,2.9-.8Z"/>
        <path class="st120" d="M51.6,23.6c0-.2,0-.5.2-.6-.2.8.8.9,1.3,1.2s.1.2.2.3c.3.2.7,0,.8,0s.5.7.5.8c0,.4-.4.3-.6.5-.4.4-.9,1-.1,1.1l-.8.5s0,0,0,0c-1,.3-1.9.5-2.9.8-.3-.6.6-1.4.6-1.6,0-.3-.3-.3-.3-.4s0-.6,0-.6c0-.2.3,0,.4-.2s.1-.6.2-.8c-.1,0-.2.2-.4.3.1-.2.2-.4.3-.6.2-.5.3-.6.4-1.1Z"/>
        <path class="st306" d="M39.7,17.9c2.9,0,5.8,0,8.7,0h-3c.4.2.3.6.4.7.2.2.8.5.9.6.5.5-.2,1,.9.8-.4.2-1.1.3-1.2.7h0c-.1.1-.5.5-.6.6-.9,1.1-.8,2.5,0,3.6-.4-.5-.6-.9-.6-1.6-.4,2.2-1.1.3-1.6-.5s-1.5-2.2-2-2.6-1.1-.6-1.4-.9c-.4-.4-.6-1.2-.5-1.7Z"/>
        <path class="st38" d="M51.4,22.1c0,.5.2,1,.1,1.5-.2.5-.2.6-.4,1.1-1-.3-1,.5-2,.4-1.6,0-2-1.1-2.9-1.4s-.7.3-.8.3c-.3-.1-.1-1.5,0-1.8-.2,1,1,.6,1,.3s-.2-.8-.3-.8c-.2-.2-.6.4-.4-.2.1-.1.5-.5.6-.6.3-.2,1.2-.4,1.6-.4-.1.4-.7.2-.9.6s0,1.7.1,1.9c.2.9,1.2.5,1.3.7s-.1.3-.1.3c0,.8.6.3.9-.1s.4-1.6.3-2.1c-.1-1-1.3-1-1.3-1.2,0-.5,1.3,0,1.6-.1-1-.4-1.8-.4-2.9,0,1.6-.9,3.7,0,4.4,1.6Z"/>
        <path class="st284" d="M47,20.6c1-.4,1.8-.4,2.9,0-.2.2-1.5-.4-1.6.1s1.1.3,1.3,1.2-.1,1.7-.3,2.1-.8.9-.9.1.2-.3.1-.3c0-.1-1.1.2-1.3-.7s-.2-1.8-.1-1.9c.2-.5.8-.2.9-.6-.3,0-1.3.2-1.6.4h0c.2-.2.4-.3.6-.4Z"/>
        <path class="st85" d="M38.7,24.4c.4.2.5-.1.6-.1.2,0,.3.1.5.1s.2-.1.4-.1c.3,0,.4.4.7.6s.8.1,1.1.3c.5.4.5,1.3.7,1.7s.6.4.7.6.2.8.4.9.2-.2.3-.2.4.5.5.6c.8.6,1.9.7,2.9.6v.2c-.4.2-.8.4-1.1.6.3-.2,0-.4-.3-.5-1.1-.4-3-.3-3.9-1s-.8-1.1-1.4-1.5c-.4-.5-1.6-2.2-2-2.5h0Z"/>
        <path class="st93" d="M45.8,21.5c-.2.6.2,0,.4.2s.3.8.3.8c0,.3-1.2.7-1-.3-.2.3-.3,1.7,0,1.8s0-.5.8-.3,1.2,1.4,2.9,1.4,1-.7,2-.4c0,.2-.2.4-.3.6-.2.2-.5.5-.7.6-1,.6-2.5.6-3.5,0-.2-.2-.7-.5-.9-.8-.7-1.2-.9-2.5,0-3.6Z"/>
        <path class="st120" d="M50.1,25.9c-.3.2,0,.3,0,.6s-.6.3-.7.4c-.3,0,0-.2,0-.3-.1-.5-.2.1-.2.2-.1.1-.3,0-.4.2-.3.4-.7,1.9-1.3.6s0-1,0-1-.3,0-.3,0,0-.2,0-.3c0,0-.2-.1-.4-.3,1,.6,2.5.6,3.5,0Z"/>
        <g>
          <path class="st304" d="M22.1,55.1c-.2.4-1,.3-1.2.5s.4,1.2.2,1.7-.3.1-.4.2c-.1.2.2.8-.4,1,0,0,0,.1-.1.1-.6,0-1.6.3-2.3.4-4.2.1-6.3-4.3-4.7-7.8.2,1.5.6,3,1.8,4,2.2,2,4.6.6,7,0Z"/>
          <path class="st25" d="M19.3,46.8c-4.9,3.1-3,8.9,2.9,8.2h0c-.5.1-1.7,0-2.2,0s-.5,1.2-.8.8,0-.5,0-.6-.3,0-.4,0c-.3-.2-.6-.7-1.1-1s-1.2-.3-1.3-.4c0,0,0-.3-.2-.4-.3-.2-.9-.3-1-.5s0-.3,0-.5c-.1-.3-.7-.9-.7-1v-1.1h-.7c.5-.6,1.3-1.4,2-1.9s2.1-1.1,3.1-1.6.4,0,.5-.1Z"/>
          <path class="st318" d="M13.7,50.5h.7c0-.1,0,1,0,1,0,0,.5.7.7,1s0,.3,0,.5.8.3,1,.5.1.4.2.4.9.2,1.3.4.8.7,1.1,1,.3,0,.4,0c.2.1,0,.6,0,.6.3.3.4-.7.8-.8s1.6,0,2.2,0c0,0,0,0,0,0-2.4.7-4.8,2-7,0s-1.5-2.5-1.8-4c.1-.3.2-.4.4-.6Z"/>
          <path class="st258" d="M20.9,58.3c.3,0,.7-.3.6,0-.2.2-.5.4-.7.6.2-.3-.2-.4-.4-.4,0,0,.1-.1.1-.1,0,0,.3-.1.4-.1Z"/>
          <path class="st58" d="M32.5,36c2.5,2,6.1,4,9.3,2.4l1.6-.8h.9c-.3.5-.4.9-.6,1.3s-.3.4-.5.9-.3,1.2,0,1.8c0,0,0,.1,0,.2,0,2.5,1.7,3.9,3.9,4.8s.6.2.8.4c-1-.2-2-.3-2.9-.5-2.5-.5-5-1.4-7.5-2s-.5,0-.7,0-.1,0-.1,0c-.4-.2-1.5-1.6-2-2s-.6-.9-1-.8c0-.4-.7-3.1.2-2.6s0,.4.2.4.2-.2.3-.2.2,0,.3,0c.4-.2-.4-.7-.5-1s.2-.6,0-.7c-.4-.3-.6.3-.8.2-.4-.2-.6-.9-.8-1.1s-.4-.6-.6-.4c.2-.2.4,0,.6,0Z"/>
          <path class="st291" d="M32.6,36c4.1.2,8.6.4,12.7.4s.2.1.2.1l-.3.3s.2-.3.1-.3c0,0-1.9-.1-1.9,0-.1.1,0,.5,0,.7s-1.3,1.1-1.6,1.3c-3.2,1.6-6.8-.4-9.3-2.4,0,0,0,0,.1,0Z"/>
          <path class="st23" d="M30.9,31.6c0,.2.3,0,.4.1s-.1.3-.1.4,1.4,1.4,1.6,1.4,2.1-.2,2.2-.2c.3-.1,0-.5.4-.5.5.4,1.3.9,1.9,1.2.2.4-.5.6-.7.6-.3.4,1.2.7,1.1,1.3,1.8-.1,3.9.4,5.7.2.2,0,.6,0,.8,0h1c0,0,.9-.9,1.4-.7-.2.4-.7.5-.9.6s.3.2.1.3c0,0,0,0,0,0s0-.1-.2-.1c-4.1,0-8.6-.2-12.7-.4l-1-1c-.4-1-.9-.9-1.8-.9.8-.1-.3-.5-.6-.6l-.7-.3c.5.1.6-.3.9-.6.4,0,1.1-.8,1.4-1.1Z"/>
          <path class="st48" d="M52.1,31.9c-1.2.6-2.4,1.5-3.5,2.2-.2-.6-.6,0-.8,0s-.3-.1-.5,0c-.6.1-.6.5-1.6.3s-1.6-.1-2.7-.2-1.6-.4-1.7-.5c-.3-.2.5-.8-.6-.6.7-.3,1.3-.7,1.9-1s.7-.3,1.1-.5c.5.4.9.3,1.4.6s.6.6.7.7c.8.4,1.3-.2,2.1-.2s1.1.3,1.1.3.8-.5.8-.5c0,0,0-.3.2-.4.3-.3,1.3-.9,1-1.2.3.4.7.7.9,1.1Z"/>
          <path class="st59" d="M40.8,33.1c1-.2.2.4.6.6s1.5.5,1.7.5c1,0,1.6,0,2.7.2s1-.2,1.6-.3.3.1.5,0c.2,0,.7-.6.8,0-.1,0-.3.2-.5.3-.4.1-.6.4-.9.6s-1.5,1.4-1.6,1.4c.1-.1-.2-.3-.1-.3.3-.2.7-.3.9-.6-.5-.2-1.3.7-1.4.7h-1c-.2,0-.5-.1-.8,0,.7,0,.6-.2,0-.3s-1.9.1-2.6-.1-1-1.5-1.4-1.7-.8.2-1,.3c.4-.3.9-.6,1.4-.8s.2-.1.3-.1c.3-.1.7-.4.9-.4Z"/>
          <path class="st159" d="M41.8,38.4c.3-.1,1.5-1,1.6-1.3s0-.6,0-.7,1.9,0,1.9,0-.1.2-.1.3c-.2.3-.7.7-.9,1h-.9c0-.1-1.6.6-1.6.6Z"/>
          <path class="st202" d="M43.3,39.9h0c.2-.6.3-.6.5-1h0s-.5.9-.5,1Z"/>
          <path class="st48" d="M48,34.4c-.3.2-.5.6-.9.6.3-.2.5-.5.9-.6Z"/>
          <path class="st72" d="M26.4,54.5c-.9.4-.5.7-1.3,1.1,0,0-.2.1-.2.1-.4.2-1,.4-1.4.7l-2.6,1.9c0,0-.3.1-.4.1.6-.2.2-.8.4-1s.3,0,.4-.2c.2-.4-.4-1.3-.2-1.7s.9-.1,1.2-.5,0,0,0,0c1.4,0,2.8-.3,4.2-.6Z"/>
          <path class="st157" d="M23.4,56.4c-.2.1-1.4,1.1-.5.9,0,0-.2.2-.3.3-.4.2-.9.5-1.2.8,0-.4-.3-.1-.6,0l2.6-1.9Z"/>
          <path class="st181" d="M23.2,45.2c.2,0,1.7-.4,1.8-.4s-.1.2,0,.3c.2.4,1.1.2,1.4.3s.7.6,1.2.4c-.2.5-1.2.4-1.3.7s.1.2.1.2c-.3,1-.8,1.8,0,2.9,0,0,.3.5.3.5,0,.4-.5.4-.5.4-.2.2.4.9,0,1.4s-1,.2-1.3.4,0,.9-.4,1.3-.8.3-1,.7c-.5.2-.9.4-1.4.5-5.8.7-7.7-5-2.9-8.2s.3-.3.5-.4c.6-.3,1.6-.7,2.2-.9s.4-.2.5-.2c.2,0,.5,0,.7-.1Z"/>
          <path class="st53" d="M33.5,51c-.3.1-1.4.1-1.6.2-.2.2,0,.7,0,.9s-.8.5-.9.7c-1.7.8-3.2,1-4.7,1.6-1.4.3-2.8.5-4.2.6h0c.5-.1.9-.4,1.4-.6,3.4-1.1,6.5-3.2,10-3.5Z"/>
          <path class="st104" d="M19.8,45.5h0c-.3,0-.3,1.1,0,1h0c-.2,0-.3.3-.5.4-.1,0-.4,0-.5.1-1.9.8,0-.7.4-1.2.2-.1.3-.2.6-.3Z"/>
          <path class="st110" d="M32.5,36.4c.2,1.2.5,2.3,0,3.5-.4.5-1.6,1.7-1.9,2.2-.3.1-.6.5-.9.7s-2.6.9-1.6,1.2c-1.3.2-2.9.6-4.1.9.6-.4,2.8-.5,3.1-.8s-.1-.2,0-.3c.5-.3,2-.9,2.4-1.4s0-.4.2-.6.7-.6.5-.7-.8.9-1.1.9c.1,0,.3-.3.4-.4.5-.4.7-.7,1.1-1.2s.3-.4.4-.7c.9-.3.8-1.5.8-2.2,0-.4,0-.9,0-1.2s0-.2,0-.2c.3-.2.5.2.6.4Z"/>
          <path class="st309" d="M29.3,41.9c.3,0,1-.9,1.1-.9.1.1-.4.6-.5.7s0,.4-.2.6c-.3.5-1.8,1.1-2.4,1.4s0,.3,0,.3c-.4.3-2.6.4-3.1.8-.2,0-.6.3-.9.4-.2,0-.5,0-.7.1-.3,0,.2-.3-.1-.5s-.4,0-.4,0,1.1-.4,1.2-.5c2.2-.7,4.3-1,6.2-2.4Z"/>
          <path class="st220" d="M21.9,44.7c-.1.2-.3,1,0,.9-.6.2-1.7.6-2.2.9h0v-.9c0,0,0,0,0,0,.7-.3,1.4-.6,2.1-.8Z"/>
          <path class="st99" d="M23.2,44.4c-.1,0-1.2.4-1.2.5s.3,0,.4,0c.3.2-.2.5.1.5-.1,0-.3.2-.5.2-.4,0-.2-.8,0-.9.4-.1.8-.2,1.2-.3Z"/>
          <path class="st71" d="M44.8,46.5c.9.3,1.8.4,2.6.6-1.1,0,.4.7.5.9s0,.4,0,.6,2.2,1,2.5,1.2l-6.7-.5c-2.4-.2-4.7-.3-7.1-.4s0,0,0,0c0,0,0,0,0,0,.2-.7,0-1.5-.3-2.1s-.5-1.3-1-1.1c0,0-.1,0-.1-.1.6,0,1-.7,1.5-1.1.3,0,.4,0,.7,0,2.5.7,5,1.5,7.5,2Z"/>
          <path class="st252" d="M55.8,45c-1.1.5-2.4.5-.8,1.9-2.8.8-4.1.7-6.9.3,0,0-.1,0-.2,0,0-.2,0-.1-.2-.1-.2-.2-.5-.2-.8-.4,1.1.1.4-.5.6-.9-.3-.1-.9-.2-1.1-.4,3,1.1,6.4.8,9.4-.3Z"/>
          <path class="st320" d="M32.5,36.4c.2.3.3,1,.8,1.1s.3-.5.8-.2,0,.4,0,.7.8.8.5,1-.2,0-.3,0-.2.2-.3.2c-.2,0,0-.3-.2-.4-1-.4-.2,2.2-.2,2.6,0,0-.5.4-.6.5-.2,0-.3.2-.4.4h-.1c.4-.5,0-.1-.2-.6-.5-1.1,0-1.1.4-1.9.5-1.2.2-2.3,0-3.5Z"/>
          <path class="st325" d="M43.5,42.7c.4.8.8,1.3,1.6,1.9s.4.3.6.4c.2.2.3.2.6.3,0,0,0,.1.1.1.3.2.8.3,1.1.4-.3.4.5,1-.6.9-2.1-.9-3.8-2.3-3.9-4.8.1.3.3.5.4.8Z"/>
          <path class="st31" d="M32.5,42.5c-.2.3.1.5.5.7.6.4,1.5.3,1.9.6s1,1.9,1.6.7c0,0,.1,0,.1,0-.5.4-.9,1-1.5,1.1-.8-1.4-1.1-1.4-2.6-1.1.6-.1-.3-.7-.6-.8,1,.2-.1-.4,0-.8.2-.1.3-.3.4-.4h.1Z"/>
          <path class="st249" d="M32.9,42.1c0,0-.2.2-.1.2.1.3,1.7.8,2.1.6l-.4-.6c.5.4,1.6,1.8,2,2-.6,1.2-1.2-.4-1.6-.7s-1.2-.2-1.9-.6-.7-.4-.5-.7.2-.3.4-.4Z"/>
          <path class="st176" d="M34.5,42.4l.4.6c-.4.2-2-.3-2.1-.6s.1-.2.1-.2c0-.1.5-.5.6-.5.4,0,.7.6,1,.8Z"/>
          <path class="st119" d="M32.6,36s0,0-.1,0c-.1,0-.4-.2-.6,0,0,0,0,.2,0,.2-.1-.4-.1-.8-.3-1.2l1,1Z"/>
          <path class="st319" d="M47.8,47c.1,0,.3,0,.2.1-.2,0-.3,0-.5,0-.9-.1-1.8-.3-2.6-.6,1,.2,2,.3,2.9.5Z"/>
          <path class="st49" d="M43.3,39.9c0,.4-.1,1.3-.1,1.7-.3-.6-.1-1.2,0-1.8h0Z"/>
          <path class="st94" d="M33.5,31.5c.3,0,0-.3,0-.4s.3,0,.4,0c.1,0,.2-.2.4-.3s1.5-.4,1.6-.4c.1,0,2.2,1,2.5,1.1-.7.5.6.8.6.6,0-.4-.8-.5.6-.5-.8.8,0,.5.4.8s0,.4.1.4c.1,0,.3-.2.4-.3.2,0,.5.1.7,0,.4,0,1-.7,1.5-.7-.6.3-1.3.7-1.9,1-.2,0-.7.3-.9.4,0-.2.4-.2.4-.3,0-.4-1.8.3-.7.5-.4.2-1,.5-1.4.8-.4,0-.5,0-.9-.3s-1.3-.9-1.9-1.2-1.3-1-1.9-1.4Z"/>
          <path class="st185" d="M29.9,29s0,0,0,0c.3.2,2,1.2,2.1,1.3s-.1.2-.1.2c-.2.3-.8.8-1.1,1.1s-1.1,1.1-1.4,1.1-.8-.4-1.1-.6-.5-.4-.7-.4h0c.5-.1,2.5-2.1,2.2-2.8,0-.1,0,0,.1,0Z"/>
          <path class="st288" d="M32.4,30.6c.2.1.7.6,1.1.9.6.4,1.3,1,1.9,1.4-.3,0-.1.4-.4.5s-2.1.2-2.2.2c-.3,0-1.6-1.3-1.6-1.4s.2-.3.1-.4-.4,0-.4-.1c.3-.2.9-.8,1.1-1.1,0,0,.4,0,.4,0Z"/>
          <path class="st216" d="M38.2,34.4c.3,0,.8-.4,1-.3s1,1.6,1.4,1.7c.7.3,1.9,0,2.6.1s.8.2,0,.3c-1.7.2-3.9-.3-5.7-.2.1-.5-1.4-.9-1.1-1.3.2,0,.9-.2.7-.6.4.2.5.4.9.3Z"/>
          <path class="st209" d="M28.3,32.1c.3.1.9.6,1.1.6-.3.3-.4.7-.9.6l.7.3c-1-.3-2.7-.3-3.8-.3.4-.2,1.5,0,1.8,0s.8-1,1-1.1Z"/>
          <path class="st98" d="M36,26.4c.6.3.3,1.1.5,1.5s.6,0,1,.4c.8.7,0,1.4,1.4,2.1s1.6.3,2.5.2c0-.5,0-1,.4-1.3s.4.1.4-.3c.5.6,1,1.1,1.4,1.6.1.3.4.5.6.8-.2,0-.4.2-.5.3-.4.2-.7.3-1.1.5-.5,0-1.1.6-1.5.7s-.6-.1-.7,0-.3.4-.4.3,0-.3-.1-.4c-.4-.3-1.2,0-.4-.8-1.3,0-.5,0-.6.5s-1.3-.1-.6-.6c-.3-.1-2.3-1.1-2.5-1.1s-1.4.3-1.6.4-.2.2-.4.3-.3-.1-.4,0c-.1.1.2.5,0,.4-.3-.2-.9-.7-1.1-.9.5-.8,1.2-1.5,1.8-2.2s.4-.5.6-.8c.4-.4.8-.9,1.2-1.3Z"/>
          <path class="st250" d="M50.2,29.6s0,0,0,.1c.3.3.6.7.9,1.1.3.4-.7,1-1,1.2s-.1.3-.2.4-.8.5-.8.5-.9-.3-1.1-.3c-.8,0-1.3.5-2.1.2s-.5-.6-.7-.7c-.5-.2-.9-.1-1.4-.6.1,0,.3-.2.5-.3.5-.2.8-.5,1.3-.6,1.2-.5,2.9-1,4.1-1.2s.4.4.2-.2c.1.1.2.2.4.4Z"/>
          <path class="st98" d="M39.8,33.5c0,0-.2,0-.3.1-1.1-.2.8-.9.7-.5s-.4.2-.4.3Z"/>
          <path class="st311" d="M56.9,44.5c.4-.1,0,1,0,1.2s-.2.4-.2.6c-.5.2-1.1.3-1.6.5-1.7-1.4-.4-1.3.8-1.9s.7-.3,1.1-.5Z"/>
          <path class="st298" d="M31.5,52.7l-1.1.6c-.8.2-1.9.8-2.6,1.1s-1.1.5-1.7.7-.3.1-.5.2-.4.1-.5.1c.8-.4.4-.7,1.3-1.1,1.5-.6,3.1-.9,4.7-1.6s.3,0,.4-.1Z"/>
          <path class="st263" d="M26.4,31.1c-.2.2,1,.7,1.2.6h0c-.1,0-1.3.9-1.7,1.1-.8.3-1.6.5-2.4.7-.2,0-.4,0-.6,0-.4,0-.6.2-.7,0,.2,0,1-.1,1.1-.3s.4-1.1,1.2-1h-.2c.6-.3,1.5-.6,1.9-1.1,0,0,.1,0,.1,0Z"/>
          <path class="st4" d="M29.1,28.2c0,.6.7.3.4.9-.1.2-1.9,2.3-2,2.4-.3.1-1-.5-1.1-.5.4-.2.9-.7,1.1-1.2.8-.1,1.4-1,1.6-1.6Z"/>
          <path class="st228" d="M22.8,32.5c-.6.2-.9.1-.6,1s.4,0,.7,0c-1.1.2-2.2.4-3.2.6.8.2.8-1.2.6-1.4s-.3,0-.4,0l2.9-.4Z"/>
          <path class="st116" d="M19.9,32.9c0,0,.3,0,.4,0,.1,1.3-.3.7-.8.7s-1.2.5-1.4.1c0,0-.1-.2,0-.3s.3,0,.3-.2c.3,0,1.3-.4,1.6-.4Z"/>
          <path class="st22" d="M24.3,32.1h.2c-.7,0-.9.9-1.2,1.1s-.9.2-1.1.3c-.3-.9,0-.8.6-1s1.1-.2,1.5-.4Z"/>
          <path class="st270" d="M33.4,47.1c-1.3.6-.3.3.1.6s.7,1.3,1.3,1.4.4-.3.6-.3c-.1.4-.8.6-1.1.8-1.8.9-6,2.5-7.5.6s-.3-.4-.3-.5c0,0,0-.2,0-.3l7-2.3Z"/>
          <path class="st79" d="M34.2,49.5c.2.3-.4,1.3-.6,1.4s0,0,0,0c-3.5.3-6.7,2.4-10,3.5.2-.4.8-.4,1-.7s0-1,.4-1.3,1,0,1.3-.4-.1-1.2,0-1.4.5,0,.5-.4c1.5,1.9,5.7.2,7.5-.6Z"/>
          <path class="st195" d="M30.8,43.6c.3,0,.9,0,1.1,0s1.2.6.6.8c-1.2.2-4.8,1.4-5.7,2.1s-.8,1.8-.5,2.9,0,.2,0,.3c-.8-1.1-.3-1.9,0-2.9s-.2,0-.1-.2c0-.3,1-.2,1.3-.7-.5.2-.8-.3-1.2-.4s-1.2.1-1.4-.3,0-.3,0-.3c-.1,0-1.5.3-1.8.4.2-.1.6-.3.9-.4,1.2-.3,2.9-.7,4.1-.9s1.8-.3,2.6-.4Z"/>
          <path class="st10" d="M33.6,51.1c0,0-.1.2-.2.3s-.1.1-.1.1c-.4.3-.9.7-1.4,1s-.3,0-.4.1-.3,0-.4.1c.1-.2.8-.5.9-.7s-.2-.7,0-.9,1.2,0,1.6-.2,0,0,0,0h0Z"/>
          <path class="st54" d="M19.8,45.5v.9c-.3.1-.3-.9,0-.9Z"/>
          <path class="st180" d="M38.5,24.4c-.2,0-.5,0-.7,0,.8,0,.4,1.2,0,1.4s-.6,0-.7.3.5.4.8.6c1,.7-.3.7,0,1.3s.8.2,1,.3c.3,0,.8.3,1.1.3s-.1-.3.2-.4,1.3.1,1.3,0-.8-1-.9-1.1c.5.4.8,1.1,1.4,1.5,0,0,0,.2.1.3,0,.4-.3.2-.4.3-.4.3-.5.8-.4,1.3-.9.2-1.6.3-2.5-.2-1.4-.7-.6-1.4-1.4-2.1s-.8-.1-1-.4c-.2-.4.1-1.1-.5-1.5.3-.3.5-.7.9-1,0,.1-.8.9-.7.9.3.3,1.6-1.6.7-.9.1-.2.7-1,.9-1.1.2-.1.6-.1.8.1Z"/>
          <path class="st55" d="M38.5,24.2c0,0,0,.2.2.2h0c0,.1-.2,0-.2,0-.1-.3-.5-.3-.8-.1.1-.3.6-.1.8,0Z"/>
          <path class="st1" d="M32.5,39.9c-.4.8-.9.8-.4,1.9s.6.1.2.6-.3.3-.4.4-.1,0-.1,0c.2-.4-.5.3-.6.3-.6,0-.6-.6-.5-1.1s1.4-1.7,1.9-2.2Z"/>
          <path class="st108" d="M30.7,42.1c-.2.4-.1,1.1.5,1.1s.8-.7.6-.3c-.3.2-.6.5-.9.7-.8,0-1.8.2-2.6.4-1-.3,1.2-1,1.6-1.2s.5-.5.9-.7Z"/>
          <path class="st262" d="M24.9,22.8c1.1.6,2.7,1.3,3.6,1.9-.3,0-.7,0-.9,0s-1.1-.8-1.6-1c-.6-.3-1.3-.5-1.9-.7.4,0,.4,0,.3-.3,0,0,.3,0,.4.1Z"/>
          <g>
            <path class="st66" d="M15.9,44.9c.9-.1,1.5-.4,2.4-.6.8,0,1.6,0,2.4,0-.3.2-2.4,0-2.4.5s.5.2.6.3c.2.2-.8.5-.9.6-.8.5-1.5,1.1-2.4,1.5s-2,.3-.5.9h-.4c-4.1-.5-5.9-4-4.3-7.9-.2,3.3,2.1,5.9,5.5,4.9ZM17.9,44.5c-.2,0-.1.5,0,.4s.2-.5,0-.4Z"/>
            <path class="st173" d="M29.7,41.6c-.1,0-.2.3-.4.4-1.9,1.4-4,1.7-6.2,2.4-.4,0-.8.2-1.2.3-.8.2-1.4.4-2.1.8s-.3.1-.6.3c-1.4.8-2.5,2-4.2,2.3-.1,0-.2,0-.4,0h.4c-1.6-.7,0-.9.5-1.1.9-.4,1.6-1,2.4-1.5s1.1-.4.9-.6-.6,0-.6-.3c0-.4,2-.3,2.4-.5.8,0,1.5-.2,2.3-.3s1.6-.2,2.4-.4,1.3-.4,1.9-.6.3,0,.5,0c.7-.3,1.3-.8,2-1.2Z"/>
            <path class="st318" d="M12.1,37.9c.4-.1.6.6.5,1s-.7,1.3-.7,1.7c0,2.1,3.4,3,5,3.3s1.2.2,1.8.2c-.1,0-.4.2-.5.2-.3,0-.5.2-.8.1s-.5-.4-1-.4-.9.6-1.2-.3l-2.1-.2c-.4-.4-.9-.9-1.2-1.4-.6-.8-.6-1.6-1.4-2.2.3-.6,1-1.8,1.6-2Z"/>
            <path class="st21" d="M16.5,35.4c-.3.1-2.1.9-2.1,1s.3,0,.2.4-.9,1.1-1,1.5c-1.3,2.9.6,4.9,3.4,5.6-1.6-.3-5-1.2-5-3.3s.6-1.3.7-1.7,0-1.1-.5-1c.7-.6,1.4-1.1,2.1-1.5s1.5-.8,2.3-1Z"/>
            <path class="st34" d="M10.4,39.9c.8.6.8,1.4,1.4,2.2s.9,1,1.2,1.4.5.3.8.6.5.9.2.9c.6,0,1.2,0,1.9,0-3.4,1-5.7-1.5-5.5-4.9,0,0,0,0,0-.1Z"/>
            <path class="st96" d="M19.2,45.7c-.5.5-2.4,2-.4,1.2-1,.4-2.2,1-3.1,1.6.4-.3-.5-.5-.7-.5,1.7-.3,2.8-1.5,4.2-2.3Z"/>
            <path class="st170" d="M13.1,43.5l2.1.2c.3.9.6.3,1.2.3s.7.4,1,.4.5-.1.8-.1c-.8.2-1.4.5-2.4.6s-1.2,0-1.9,0c.3,0,0-.7-.2-.9-.2-.3-.5-.4-.8-.6Z"/>
            <path class="st246" d="M19.8,43.8c.3,0,1.3-.2,1.5-.1s0,.3.2.3c.2,0,.9,0,1.2,0s.1,0,.2,0c-.8.1-1.5.2-2.3.3s-1.6,0-2.4,0c.1,0,.4-.2.5-.2.2,0,.4-.1.6-.1s.3,0,.4,0Z"/>
            <path class="st173" d="M17.9,44.5c.2,0,.3.4,0,.4s-.2-.4,0-.4Z"/>
            <path class="st295" d="M28.4,41.1c.4,1.1-.4,1.3-1.2,1.7-.7.3-1.2.5-1.9.6.4-.4.6-.7.9-1.2.7-.3,1.4-.9,2.1-1.1s.2,0,.2,0Z"/>
            <path class="st191" d="M26.2,42.2c-.3.5-.5.8-.9,1.2-.8.2-1.6.3-2.4.4,0,0-.1,0-.2,0,.8-.1.1-.3.3-.6s1.6-.5,1.9-.6.9-.3,1.3-.5Z"/>
            <path class="st187" d="M29.7,41.6c-.7.3-1.2.9-2,1.2s-.4,0-.5,0c.8-.4,1.6-.6,1.2-1.7.8-.3,1.5-.5,2.3-.7-.4.6-.6.8-1.1,1.2Z"/>
            <path class="st285" d="M18.6,34.6c.2,0,1.1-.3,1.1-.2s-.2.4-.1.5c.2.6,3.2.2,3.4.6s-1.1,2.5-.5,3c0,.3.3,1,.3,1-.1.1-1-.3-.7.7s1.8.6,1.9,1.6-.9.5-1.2.6-.5.6-.8.7c-.7.3-2.3,0-2.8.8-.2,0-.4,0-.6.1-.6,0-1.2-.1-1.8-.2-2.8-.6-4.7-2.7-3.4-5.6s1-1.4,1-1.5c0-.3-.3-.3-.2-.4s1.9-.9,2.1-1,.4-.2.5-.3c.4-.2,1-.4,1.4-.5s.2,0,.2,0Z"/>
            <path class="st310" d="M31.6,35c.2.4.2.8.3,1.2,0,.3.2.9,0,1.2,0-.2,0-.9,0-.9-.2-.2-5.3,1.1-6,1.3s-3,.7-3.2.6,0,0,0,0c-.3-3.3,4.7-4.1,7.2-4.3s1.4-.2,1.8.9Z"/>
            <path class="st79" d="M25.4,33.3c1.1,0,2.7,0,3.8.3s1.3.5.6.6c-2.5.2-7.5,1-7.2,4.3-.6-.4.7-2.6.5-3s-3.3,0-3.4-.6.2-.4.1-.5-1,.2-1.1.2c.3-.2.7-.3,1-.4,1-.3,2.2-.5,3.2-.6s.4,0,.6,0c.6,0,1.4-.2,2-.2Z"/>
            <path class="st130" d="M24.9,40.5c-.4,0-.6,0-1-.1,0,.2.4.2.5.2h2.5c-.4-.1-.8,0-1.2,0,.2-.1.4,0,.6,0,.4,0,.8,0,1.2,0,.7,0,1.5-.1.6.7-.7.3-1.4.9-2.1,1.1s-.9.3-1.3.5l-5.1,1.1c-.1,0-.3,0-.4,0,.4-.9,2.1-.5,2.8-.8s.4-.6.8-.7,1.4,0,1.2-.6c-.2-.9-1.7-.8-1.9-1.6s.6-.6.7-.7-.3-.7-.3-1c0,0,0,0,0,0,.1,1.3,1.1,1.9,2.3,2.1Z"/>
            <path class="st89" d="M24.9,42.7c-.3.1-1.9.5-1.9.6-.2.3.5.4-.3.6-.3,0-.9.2-1.2,0s0-.2-.2-.3-1.2.1-1.5.1l5.1-1.1Z"/>
            <path class="st278" d="M25.9,37.8c.7-.1,5.8-1.5,6-1.3s0,.8,0,.9c0,.8.1,2-.8,2.2l-3.6.7c-.4,0-.8,0-1.2,0,1.6-.3-.3-.5-.5-1.3s.1-.4,0-.6-.5-.6-.1-.8Z"/>
            <path class="st283" d="M31.2,39.7c0,.3-.3.5-.4.7-.8.2-1.5.4-2.3.7s-.2,0-.2,0c.8-.8,0-.7-.6-.7l3.6-.7Z"/>
            <path class="st29" d="M25.9,37.8c-.4.2,0,.5.1.8s-.2.2,0,.6c.2.8,2.1,1,.5,1.3-.2,0-.5,0-.6,0-.3,0-.5,0-.8,0-1.2-.2-2.1-.8-2.3-2.1.2,0,2.8-.6,3.2-.6Z"/>
            <path class="st285" d="M24.9,40.5c.3,0,.5,0,.8,0,.4,0,.9,0,1.2,0h-2.5s-.6,0-.5-.2c.4,0,.6.1,1,.1Z"/>
            <g>
              <path class="st160" d="M15.5,32.1h1.5c-1.4.2-.4.5-.4.7s-.4.9-.4,1.1c-.4.2-.5.4-1.1.6-.9.3-1.8.3-2.7.4-2.2-1.8-2.2-5.2-.8-7.4-.2,2.7,1.2,4.4,3.9,4.6Z"/>
              <path class="st92" d="M12,27c.2,0,.6.4.7.5.2.3.3.9.4,1.1s.4.3.5.4,0,.4.1.4c.3.3,1,.5,1.3.9s.3.6.4.8c.8.9,1.6,1,2.8.7,1.6.1,3.7-.7,5.3-.8-2.5.6-5.5,1.2-8.1,1s-4.1-1.9-3.9-4.6c.1-.2.2-.3.4-.5Z"/>
              <path class="st299" d="M14.6,24.5c-.9,1,.5-.2.6.2s-.6,1-.7,1.2c-.5,1.1-.5,2.1,0,3.3s1,1.4,1.6,1.7,1.6.4,1.7.5c.4.3-.2.4.6.4-1.2.2-2,.1-2.8-.7s-.2-.6-.4-.8c-.3-.3-1-.6-1.3-.9s0-.3-.1-.4-.5-.3-.5-.4c-.1-.2-.3-.9-.4-1.1s-.5-.6-.7-.5c.5-.6,1.2-1.5,1.8-2s.5-.3.8-.5Z"/>
              <path class="st268" d="M16,34.3c-.3.4,0,.2.1.5s0,.4.2.5.5-.3.6-.2c-.1,0-.4.2-.5.3-.8.2-1.6.6-2.3,1,.2-.5-.8-.8-1.1-1,0-.6.7-.3,1.2-.4s1.1-.4,1.7-.7Z"/>
              <path class="st132" d="M24.3,32.1c-.5.2-1,.2-1.5.4l-2.9.4c-.3,0-1.2.3-1.6.4-1.1.3-1.4.7-2.3,1.1s-1.1.6-1.7.7-1.2-.2-1.2.4c-.2-.2-.4-.2-.6-.4.9-.1,1.8,0,2.7-.4s.7-.4,1.1-.6c1.5-.8,2.6-1.5,4.4-1.5.1,0,.2,0,.4,0,.5,0,1.1,0,1.6-.1,1.4-.1,2.5-.5,3.6-1.2-.4.5-1.3.9-1.9,1.1Z"/>
              <path class="st244" d="M27.4,29.9c-.1.5-.7,1-1.1,1.2s-.1,0-.1,0c-1.2.7-2.3,1.1-3.6,1.2s-1.1,0-1.6,0c-1.3,0-2.6-.2-3.9-.1s0,0,0,0h-1.5c2.5,0,5.6-.6,8.1-1.1s2.9-.3,3.6-1.2c0,0,.2,0,.3,0Z"/>
              <path class="st151" d="M17,32.2s0,0,0,0c1.1.3,2.4.2,3.5.2-1.7,0-2.9.7-4.4,1.5,0-.2.4-1,.4-1.1,0-.3-1-.6.4-.6Z"/>
              <path class="st47" d="M21.9,22.6c.8,0,1.6.3,2.2.3.6.3,1.3.4,1.9.7s1.3.9,1.6,1h0c-1.6-.1-3.5-.1-5,.1-1.2.2-2.2,1.1-2.3,2.3s0,.9.4,1.6.3.4.3.6-.9.6-1,.7c-.5.1-1,0-1.4,0s-.3.3-.6.4c-2.2.7-2.2.4-3.6-1.2-.5-1.1-.5-2.1,0-3.3s.7-1.1.7-1.2c0-.5-1.5.7-.6-.2.3-.2.7-.6,1-.7,1.2-.6,2.4-1,3.8-1.1s1.6,0,2.6,0Z"/>
              <path class="st231" d="M27.2,29.9c-.7.9-2.5,1-3.6,1.2-1.6,0-3.7.9-5.3.8s-.2-.1-.6-.4-1.3-.3-1.7-.5-1.3-1.1-1.6-1.7c1.5,1.6,1.5,1.9,3.6,1.2s.3-.3.6-.4c.4-.1.9,0,1.4,0s1-.6,1-.7c0-.2-.2-.4-.3-.6,1.5,1.2,4.6,1.3,6.4,1.1Z"/>
              <path class="st0" d="M18.3,33.2c0,.1-.3.1-.3.2,0,.1,0,.3,0,.3,0,.2.1.9.4.9-.4,0-1,.3-1.4.5-.2,0-.6.2-.6.2-.2,0-.1-.4-.2-.5-.1-.2-.5,0-.1-.5.9-.4,1.2-.8,2.3-1.1Z"/>
              <path class="st129" d="M29.4,27.1c0,.3-.2.8-.3,1.1-.3.7-.9,1.5-1.6,1.6s-.2,0-.3,0c-1.9.2-5,0-6.4-1.1-.3-.7-.5-.8-.4-1.6l8.9.2c0,0,0-.2,0-.3,0-.2,0-.5,0-.7v.9Z"/>
              <path class="st160" d="M20.9,32.4h0c-.1,0-.2,0-.4,0-1.1,0-2.4,0-3.5-.2,1.3,0,2.5.2,3.9.1Z"/>
              <path class="st151" d="M22.6,32.3c-.5.2-1.1.1-1.6.1h0c.5,0,1.1,0,1.6-.1Z"/>
              <path class="st232" d="M27.6,24.7c.8,0,1.4,0,1.6.9,0,0,0,0,0,0,0,.2,0,.3,0,.6s0,.5,0,.7c-.5.1-4.2.2-4.4,0s0-1.2,0-1.5-.4-.8,0-.8h1.1c-1.1,0-2.3-.2-3.4,0,1.5-.3,3.4-.3,5,0Z"/>
              <path class="st275" d="M22.6,24.8c1.1-.2,2.3,0,3.4,0h-1.1c-.4,0,0,.7,0,.8,0,.3,0,1.4,0,1.5.2.2,3.9,0,4.4,0,0,0,0,.2,0,.3l-8.9-.2c0-1.2,1.1-2.1,2.3-2.3Z"/>
              <path class="st136" d="M28.5,24.7c.1,0,.3.1.4.2s.2.3.3.4c0,0,0,.2,0,.3-.3-.9-.9-.8-1.6-.9h0c.2,0,.7,0,.9,0Z"/>
            </g>
          </g>
          <path class="st17" d="M19.6,34.2c-.3,0-.7.2-1,.4,0,0-.2,0-.2,0-.3,0-.4-.6-.4-.9.2.3.9,0,1.4-.1s.9.6.8-.7c.2.1.2,1.5-.6,1.4Z"/>
          <path class="st117" d="M35.1,45.5c0,0,.1.1.1.1,0,.1.2.6.2.7-.7.2-1.5.4-2.1.7l-7,2.3c-.3-1-.4-2.1.5-2.9s4.5-1.9,5.7-2.1,1.8-.3,2.6,1.1Z"/>
          <path class="st56" d="M47.5,47.1c.2,0,.3,0,.5,0s.1,0,.2,0c1.4.3,2.5,1.1,3.7,1.6-.7.4.2,1.3.8,1.2h-1.6c-2.5-.3-5-.5-7.4-.7l6.7.5c-.3-.2-2.4-1.1-2.5-1.2s.1-.4,0-.6-1.6-.9-.5-.9Z"/>
          <path class="st126" d="M36.6,48.9c0-.4,0-.8-.1-1.2-.2-.9-1-2.3-.8-.3,0-.3-.2-.7-.3-1s-.2-.6-.2-.7c.5-.2.9.8,1,1.1.3.7.6,1.4.3,2.1Z"/>
          <path class="st319" d="M56.7,46.4c0,0,0,.1,0,.2-.2.9-.4,1.8-.6,2.7,0,0,0-.6,0-.6,0,0-1.8.2-1.9.3-.2.2,0,.6-.4.6-.6-.3-1.3-.5-1.9-.8-1.2-.6-2.4-1.4-3.7-1.6,2.8.4,4.1.5,6.9-.3s1.1-.3,1.6-.5Z"/>
          <path class="st73" d="M31.9,42.9c0,.4,1.1,1,0,.8-.3,0-.9,0-1.1,0,.3-.3.6-.5.9-.7s.1,0,.1,0Z"/>
          <path class="st237" d="M27.6,31.8c.2,0,.5.3.7.4-.3,0-1,1.1-1,1.1-.3.1-1.4-.2-1.8,0-.6,0-1.4.1-2,.2.8-.2,1.6-.3,2.4-.7s1.6-1,1.7-1Z"/>
          <path class="st212" d="M29.8,29c.3.6-1.7,2.7-2.2,2.7s-1.4-.4-1.2-.6.7.6,1.1.5,1.9-2.2,2-2.4.1-.2.2-.4c0,.2.1.3.1.3Z"/>
          <path class="st189" d="M43.7,30.5c-.3-.6,0-.2.1-.2.4,0,1.7-.3,2,0s0,0,0,.1-.1.1-.1.2c-.5.2-.8.4-1.3.6-.2-.3-.4-.5-.6-.8Z"/>
          <path class="st68" d="M49.6,28.8s.2.3.3.4c.3.6,0,.2-.2.2-1.2.2-3,.7-4.1,1.2,0,0,.1-.2.1-.2.3,0,.4-.3.6-.4s.6-.4.9-.6c.7-.4,1.6-1.2,2.3-.6Z"/>
          <path class="st137" d="M29.4,27.1c0-.3,0-.5.1-.7-.1.5.2.4.2.4.3.7.2,1.2,0,1.8s-.1.3-.2.4c.3-.6-.4-.4-.4-.9.1-.3.2-.7.3-1.1Z"/>
          <path class="st273" d="M35.5,46.4c0,.3.3.7.3,1,0,.5,0,1-.3,1.4,0,0,0,0,0,0-.1,0-.3.4-.6.3-.6-.1-1.1-1.2-1.3-1.4-.4-.3-1.4,0-.1-.6s1.4-.5,2.1-.7Z"/>
          <path class="st111" d="M38.5,24.4c0,0,.2.1.2.1.4.3,1.6,2,2,2.5s.9,1.1.9,1.1-1-.2-1.3,0,.1.4-.2.4-.9-.2-1.1-.3-.7.2-1-.3,1-.6,0-1.3-.9-.1-.8-.6.4-.2.7-.3c.4-.2.8-1.4,0-1.4.2,0,.5,0,.7,0Z"/>
          <path class="st111" d="M36.9,25.4c.9-.7-.4,1.2-.7.9s.6-.8.7-.9Z"/>
          <path class="st164" d="M53.8,49.6c.3,0,.2-.4.4-.6s1.8-.4,1.9-.3,0,.6,0,.6c0,.4-.1.9-.3,1.3,0,0,0,0,0,0-.1,0-.3-.1-.5-.1-.5-.3-.9-.6-1.4-.9Z"/>
          <path class="st80" d="M51.9,48.8c.6.3,1.3.5,1.9.8s.9.6,1.4.9c-1.4-.2-2.8-.4-4.1-.5h1.6c-.6.1-1.5-.8-.8-1.1Z"/>
          <g>
            <path class="st21" d="M22.7,57.6c-.1.2-.9,1.3-1,1.6-1.4,3.5,2.2,6.2,5.4,5.2-1.4.4-2.3.8-3.9,1.1s-.5.3-1,.2c-1.6-.2-2.2-1.8-3-2.8,0-.3,0-.7-.4-.7.2-1,1.2-2.3,1.9-3.1s.5-.4.7-.6c.4-.3.8-.5,1.2-.8Z"/>
            <path class="st300" d="M18.7,63.1c0-.6.1-.8.5-.3.7,1,1.4,2.6,3,2.8s.6-.1,1-.2c1.2-.2.7,0,1,.6s.3.5.4.8-.4.6.4.4c-.8.2-1.3.3-2.1.4-1.7-.6-4.2-2.4-4.1-4.4Z"/>
            <path class="st315" d="M19.2,62.8c-.4-.5-.5-.3-.5.3,0-.3,0-.7,0-1,.3,0,.3.5.4.7Z"/>
            <path class="st285" d="M33.6,53.6h.3c0,.2,0,.2-.1.2-.2,0-.3.2-.5.3s-.2,0-.3.1c-1.8,1-6.2,2.9-5,5.4s3.5,1.1,4.9.4c0,.4-.7.3-.9.4s-.1.2-.3.3-.7.2-.7.3c-.2.3.5.8.3,1.1-.8.6-1.7,1.1-2.6,1.6-.5.1-.9.4-1.4.6,0,0-.1,0-.2,0-3.3,1-6.9-1.7-5.4-5.2s.8-1.4,1-1.6.2-.2.3-.3c.6-.5,1.6-.8,2.1-1.3.2,0,.4-.3.6-.4s.6-.1.8-.4c.8-.2,1.6-.7,2.4-.9.8-.2,1.6-.5,2.4-.6s1.6-.2,2.4-.1Z"/>
            <path class="st147" d="M27.3,64.3c.3,0,.8-.1,1.1,0,.8.3-.3,1,1.1.4l-1.1.7c-.3,0-.5.3-.8.4-.7.4-1.5,1-2.3,1.3s-.2,0-.2,0c-.8.2-.3,0-.4-.4s-.3-.5-.4-.8c-.3-.6.3-.8-1-.6,1.6-.3,2.4-.6,3.9-1.1s.1,0,.2,0Z"/>
            <path class="st82" d="M58.9,45.7h0s0,0,0-.1,0,0,0-.1c0-.3.1-.8,0-1.1-.5.3-1.4,1.5-1.8.5l-.2.9c0-.2.4-1.3,0-1.2.7-.3,1.2-.7,1.8-1.1s.4-.2.6-.4c-.1.1-.4,2.3-.4,2.6Z"/>
            <path class="st125" d="M24.9,55.7c-.6.4-.4.6.2.4-.6.5-1.6.8-2.1,1.3-.9.2.3-.8.5-.9.4-.3,1-.5,1.4-.7Z"/>
            <path class="st67" d="M25.6,55.4c-.2.3-.2.3.1.3-.2,0-.4.3-.6.4-.7.2-.8,0-.2-.4s.2-.1.2-.1c0,0,.4,0,.5-.1Z"/>
            <path class="st245" d="M33,54.3c.1.4.6,0,.7.3s0,1.3,0,1.4c0,.7-.9.7-1.1,1.3-1.5.8-2.9,1.9-4.5,2.5,0,0-.1,0-.1,0-1.2-2.5,3.2-4.3,5-5.4Z"/>
            <path class="st97" d="M31.6,63.5s-.1,0-.2,0c-1.3.8-.5,0-1.3,0s-1.1.1-1.4.2c.9-.5,1.7-1,2.6-1.6s2-1.5,2.9-2.2.4,0,.6-.4c-.6,1.3-2,3.2-3.2,4Z"/>
            <path class="st223" d="M35.7,54.4c0,0,.2.2.2.2.1.2.3.5.4.7-.4,0-.8.3-1.1.5-.8.5-1.7.9-2.6,1.4.2-.5,1.1-.6,1.1-1.3s0-1.3,0-1.4c-.1-.3-.6,0-.7-.3.1,0,.2-.1.3-.1.2.4.8-.2.5-.3,0,0,.2,0,.1-.1h-.3c1,0,1.4,0,2.1.7Z"/>
            <path class="st19" d="M34.8,58.9s.1.1,0,.2-.6.6-.7.8c-1,.7-1.9,1.5-2.9,2.2.2-.3-.5-.8-.3-1.1s.6-.2.7-.3.2-.3.3-.3c.3-.1.9,0,.9-.4-1.4.6-4.1,1.4-4.9-.4,0,0,.1,0,.1,0,2.2,2.1,4.5.3,6.7-.8Z"/>
            <path class="st203" d="M28.7,63.7c.3,0,1.1-.3,1.4-.2.8.1,0,.8,1.3,0-.6.5-1.2.9-1.9,1.2-1.4.6-.3-.1-1.1-.4s-.8,0-1.1,0c.4-.2.9-.5,1.4-.6Z"/>
            <path class="st103" d="M30.9,53.2c1.1-.1,2.6.3,3.7.3-1.1.3-2.4-.2-3.4.3-.8.1-1.6.4-2.4.6s-.6.2-.9.3c-.4.1-.9.3-1.3.4l1.2-.6c.8-.3,1.9-.9,2.6-1.1s.4-.1.5-.1Z"/>
            <path class="st236" d="M28.9,54.4c-.7.3-1.6.7-2.4.9s-.7.3-.4-.1c.6-.3,1.1-.5,1.7-.7l-1.2.6c.5,0,.9-.3,1.3-.4s.6-.2.9-.3Z"/>
            <path class="st253" d="M26.1,55.2c-.2.4.1.2.4.1-.2.2-.5.2-.8.4-.4,0-.4,0-.1-.3.2,0,.3-.1.5-.2Z"/>
            <path class="st274" d="M32.8,53.2c2.4.2,4.9.4,7.3.6l5.2.6c-.1,0-.5,0-.5,0,.2,0,1,0,.8.4s-.7,0-.8.4c-2.7-.3-5.5-.7-8.2-.7-.3,0-.6,0-.9,0-.7-.8-1.1-.7-2.1-.8s-1.6,0-2.4.1c1.1-.5,2.3,0,3.4-.3-1.2,0-2.6-.4-3.7-.3.6-.1,1.3,0,1.9,0Z"/>
            <path class="st245" d="M33.7,53.8c.3,0-.3.7-.5.3.2,0,.3-.2.5-.3Z"/>
            <path class="st210" d="M33.4,63.1c-1.2,1.1-2.5,1.7-3.9,2.5s-.3.1-.4.2c-.4,0-.3-.3-.7-.3l1.1-.7c.7-.3,1.4-.8,1.9-1.2,0,0,.2,0,.2,0v.2c.6-.2,1.2-.4,1.8-.6Z"/>
            <path class="st279" d="M28.3,65.5c.4,0,.3.4.7.3-.3.1-1.2.9-1.3.9-.1,0,0-.2-.2-.3,0-.2-.1-.2,0-.4.2-.1.5-.4.8-.4Z"/>
            <path class="st292" d="M34,62.9c-.1,0-.3.1-.3.3,1.2.5,1.5,0,2.5-.3-.3,0,0,1.1,0,1.1s.2,0,.4,0l-4.8,1.6c-1.1.3-2.2.7-3.2,1,.1-.7.6-.5.9-1.1,1.4-.8,2.7-1.4,3.9-2.5,0,0,0,0,.1,0,.1,0,.3,0,.4,0Z"/>
            <path class="st156" d="M29.4,65.6c-.3.6-.7.4-.9,1.1-.6.1-.8.6-1.1-.3.1,0,0,.3.2.3s1-.7,1.3-.9.3-.1.4-.2Z"/>
            <path class="st40" d="M43.7,49.3c2.5.2,5,.4,7.4.6s2.8.3,4.1.5.4,0,.5.1c-1.6.2-5.8-.7-7.8-.9-1.9-.2-3.8-.3-5.8-.4.3.2.8-.2.8.3.3-.2,1.9,0,1.8.3s-1.1,0-1.4.3,0,1,.4.8,0-.3.2-.3v.4c-2.7-.2-5.6-.3-8.4-.4.1-.2.2-.4.4-.6.2-.4.4-.7.6-1.1,2.4.1,4.7.2,7.1.4Z"/>
            <path class="st255" d="M35.5,48.7c0,0,.6.2,1.1.2s0,0,0,0c-.2.4-.4.8-.6,1.1l-.6.7c3.9.2,7.8.4,11.7.7s9,1.4,10.2,1.1h0c-.7.2-1.5,0-2.2-.1-1.2-.2-2.5-.4-3.7-.4-5.3-.5-10.8-1.1-16.1-1.2s-1.1-.2-1.7.2h0c.3-.3.9-1.2.6-1.6.4-.2,1-.4,1.1-.8,0,0,0,0,0,0Z"/>
            <path class="st150" d="M36.6,48.9s0,0,0,0c-.4,0-1-.2-1.1-.2.3-.4.3-.9.3-1.4-.3-2.1.5-.6.8.3s.2.8.1,1.2Z"/>
            <path class="st221" d="M61,52.4c.1,1.2.2,2.3.4,3.5,0,0,0,0,0,0s0-.2,0-.1c-.7,0-1.4.4-2.1.6-.3,0-1.7.5-1.9.4s.6-1.2.4-1.6c0,0,.2,0,.2-.1.3,0,.7-.2,1.1-.3s.3,0,.4-.1,0-1.2-.1-1.5c0,0,0-.2,0-.3,2,1.3,1.6-.6,1.6-1.9,0,.5.2,1,.2,1.4Z"/>
            <path class="st207" d="M59.1,56.3c.7-.2,1.4-.5,2.1-.6s0,.1,0,.1c-.1,0-.2.1-.2.2-.3.1-.7.2-1,.4-1.1.2-2.1.7-3.1,1s-.5,0-.6.1c0-.6-.9-.3-1.3-.2.3-.2.6-.2.9-.3,1.1-.3,2.2-.5,3.3-.8Z"/>
            <path class="st152" d="M41.5,61.3c.2,0,.6-.1.7-.1.4,0,1.1.7.3.9-1.7.4-4.4,1.8-5.9,1.9s-.3,0-.4,0c0,0-.3-1.1,0-1.1.1,0,.3-.1.4-.1s.2,0,.3,0c1.4-.4,3.3-1.1,4.7-1.4Z"/>
            <path class="st65" d="M47.7,59.5c.3,0,.8-.2,1.1,0s0,.3-.3.5-1.1.4-1.6.6c-1.2.4-2.5.7-3.7,1.2-.2,0-.4,0-.6.1.8-.1.1-.8-.3-.9s-.5.1-.7.1c1.9-.5,4.2-1.5,6.2-1.8Z"/>
            <path class="st307" d="M56.9,45.7l.2-.9c.4,1,1.3-.2,1.8-.5.1.3,0,.8,0,1.1-.7.3-1.7.6-2.1,1.1,0,0,0-.1,0-.2,0-.2.2-.5.2-.6Z"/>
            <path class="st233" d="M58.9,45.5s0,0,0,.1l-.7,3c0-.1,0-.4,0-.5,0-.1-1,.7-1.2.8s-.5,0-.6,0c-.2,0,0,1.6-.5,1.7.2-.4.3-.9.3-1.3.2-.9.4-1.8.6-2.7.5-.5,1.5-.8,2.1-1.1Z"/>
            <path class="st235" d="M59.4,43.1s.2,0,.2,0c0,0,.5,1.6.5,1.9,0,.2.1,1.3,0,1.4s-.4,0-.6.4c-.6,0-.5.2-.8.6,0-.5.2-1,.2-1.5s.3-2.5.4-2.6Z"/>
            <path class="st179" d="M58.9,45.7c0,.5-.2,1-.2,1.5.3-.4.2-.6.8-.6,0,.1-.1.6-.3.7s-.3.1-.6.4-.1,0-.1,0c.1-.7.3-1.4.4-2.1h0Z"/>
            <path class="st307" d="M58.9,45.7c0,.7-.2,1.4-.4,2.1s-.3,1.8-.5,2.6h0c0-.1,0-.2,0-.4,0-.5.2-1.1.2-1.6l.7-3s0,0,0,.1Z"/>
            <path class="st171" d="M32.8,53.2c-.6,0-1.3-.1-1.9,0-.1,0-.4.1-.5.1l1.1-.6c0,0,.2,0,.4-.1-.2.8.4.4.9.6Z"/>
            <path class="st322" d="M35.2,55.8c-.4.3,0,.6,0,.9,0,.7-.1,1.5-.3,2.1s0,0,0,0c-2.2,1-4.6,2.9-6.7.8,1.6-.6,3-1.7,4.5-2.5s1.7-.9,2.6-1.4Z"/>
            <path class="st289" d="M37,55.5s0,0,0,0c.3.5.2,1.6.1,2.2-.3.6-.5.9-1,1.4-.7.7-1.5,1-1.4,2.4-.4.5-.9,1-1.4,1.5,0,0,0,0-.1,0-.6.2-1.2.4-1.8.6v-.2c1.3-.8,2.7-2.7,3.3-4,.2-.2.3-.4.3-.7.4-.3,1.2-.8,1.4-1.3.6-.4-.1-2.2,0-2.3s.5.2.6.3Z"/>
            <path class="st131" d="M35.1,58.8c0,.3-.1.5-.3.7-.3.4-.4.3-.6.4.1-.2.6-.6.7-.8s0-.2,0-.2c0,0,0,0,0,0,0,0,.2,0,.3,0Z"/>
            <path class="st145" d="M36.3,55.3c.3.7.5,1.3.2,2.1s-1,1-1.4,1.3-.2,0-.3,0c.1-.6.2-1.4.3-2.1s-.3-.6,0-.9c.3-.2.8-.5,1.1-.5Z"/>
            <path class="st175" d="M36.6,54.5c2.3.2,4.6.3,6.9.6l-6.4.3c-.2-.3-.7-.8-1.1-.8,0,0-.2-.2-.2-.2.3,0,.6,0,.9,0Z"/>
            <path class="st206" d="M37,55.4h0s-.5-.2-.6-.2c0,0,.7,1.9,0,2.3.3-.8,0-1.4-.2-2.1s-.2-.6-.4-.7c.4,0,.8.5,1.1.8Z"/>
            <path class="st138" d="M33.2,51.5l7.7.5c-1.3,0-5-.5-5.8-.3s-.7.6-.8.7,0,0,0,0c-.4.2-.8.3-1.1.6h1.2c2.2.4,4.4.3,6.5.7-.2,0-.4,0-.6,0-2.4-.2-4.9-.5-7.3-.6-.5-.2-1.1.2-.9-.6.5-.3.9-.7,1.4-1Z"/>
            <path class="st174" d="M35.3,50.9c.3,0-.3.7-.3.7s-1.7.2-1.6-.2c0,0,.1-.2.2-.3.6-.4,1-.2,1.7-.2Z"/>
            <path class="st106" d="M51.4,52.1c-.5,0-1.6-.3-1.4.4s3.3.6,3.9.9c-.2,0-.3,0-.5,0-1.9-.2-3.7-.6-5.7-.7-.5,0-.9-.2-1.4-.1-1.6-.1-3.4-.5-4.9-.4,0-.1-.3,0-.4,0l-7.7-.5s0,0,.1-.1c-.1.4,1.5.2,1.6.2s.7-.6.3-.7c5.3,0,10.8.7,16.1,1.2Z"/>
            <path class="st302" d="M37.2,57.8c-.2.9-.8,1.7-.3,2.8.4-1,.3,0,.5.2s.3,0,.4,0c.8.4.9.4,0,.8-.4.1-.8.3-1.1.4-.8.3-2.2.6-2.9,1-.1,0-.3,0-.4,0,.4-.5,1-1,1.4-1.5.6-.8.9-1.6,1.4-2.4.5-.5.7-.8,1-1.4Z"/>
            <path class="st77" d="M36.8,61.9c0,.2-.5.9-.2.9-.1,0-.3,0-.4.1-1,.3-1.3.8-2.5.3,0-.2.2-.2.3-.3.6-.4,2.1-.7,2.9-1Z"/>
            <path class="st88" d="M55.8,50.6c.4-.1.3-1.6.5-1.7s.3.1.6,0,1.2-.9,1.2-.8,0,.4,0,.5c0,.5-.2,1.1-.2,1.6-.1,0-.2.4-.2.5,0,.5,0,1.8-.5,1.9-4.3-.5-8.7-1-13.1-1.4v-.4c-.3,0-.2.2-.3.3-.4.2-.4-.7-.4-.8.3-.3,1.3,0,1.4-.3s-1.5-.5-1.8-.3c0-.5-.6,0-.8-.3,1.9,0,3.8.2,5.8.4,1.9.2,6.1,1,7.8.9s0,0,0,0Z"/>
            <path class="st239" d="M36,50.1c-.1.2-.2.4-.4.6,2.8.1,5.6.2,8.4.4,4.4.3,8.7.9,13.1,1.4.5-.1.5-1.4.5-1.9s0-.6.2-.5c0,.1,0,.2,0,.4,0,.7-.2,1.4-.4,2.1,0,0,0,0-.1,0-1.2.2-8.3-1-10.2-1.1-3.9-.3-7.8-.5-11.7-.7l.6-.7Z"/>
            <path class="st12" d="M51.4,52.1c1.2,0,2.5.3,3.7.4v1c-.2,0-.3,0-.3,0-.3,0-.7-.2-1-.2-.6-.2-3.7-.3-3.9-.9s1-.4,1.4-.4Z"/>
            <path class="st37" d="M57.6,55c0,0-.6.3-.7.2s.3-.8,0-.9c0-.1,0-.2,0-.4,0-.4.2-.8.3-1.1h0c0,0,0-.1.1-.1.3-.2.2-.4.3-.7.6,1.1,0,1.9-.1,3.1Z"/>
            <path class="st84" d="M57.3,52.8c-.1.4-.2.8-.3,1.1-.4-.4-1.4-.3-2-.4s0,0,0,0v-1c.9,0,1.7.3,2.4.2Z"/>
            <path class="st113" d="M60.6,49.8c0,.2.1,1.4,0,1.5s-.2,0-.2,0c-.8.7-1.2.4-1.3,1.5s0,.2,0,.3,0,.1,0,.2c-.1-.2,0-.5,0-.7.1-.5-.2-1.4-.1-1.9s.9-1.7,1-1.9c.2-.4.4.1.4-.8h0c0,.4.1,1.3.1,1.8Z"/>
            <path class="st107" d="M57,54.3c.2.2-.1.9,0,.9.1.1.6-.2.7-.2s.1,0,.1,0,0,0,0,0c0,0-.2.1-.2.1-.3.5,0,1.4-1,1.6s-3,0-4.2.1h0c0,0,2.5-.8,2.5-.8.1,0,.3,0,.4,0,.2,0,.5,0,.7,0,0-.2-.4-.2-.5-.2s0,0,0,0h0c0,0,.2,0,.3,0,.2,0,.4.2.6.1.6,0,.5-1,.6-1.5Z"/>
            <path class="st36" d="M58.9,50.5c0,0,0,.2,0,.3,0,.6.2,1.3.2,1.9s0,.5,0,.7c0,.5.3,1.3-.3,1.4-.3.1-.7.2-1.1.3s0,0,0,0c.1-1.5.9-3.2,1-4.6,0,0,0,0,0,0Z"/>
            <path class="st105" d="M60.8,51c0,1.3.4,3.2-1.6,1.9,0-1.2.5-.9,1.3-1.5s.2,0,.2,0c0,0,0-1.3,0-1.5h0c0,.4,0,.8,0,1.1Z"/>
            <path class="st11" d="M57.6,55.1c.2.3-.5,1.5-.4,1.6.2.1,1.6-.4,1.9-.4-1.1.3-2.2.5-3.3.8,0-.1.2-.1,0-.2s-3.2,0-3.5,0c0,0,0,0,.1,0,1.2,0,3.2.1,4.2-.1s.7-1.1,1-1.6Z"/>
            <path class="st105" d="M58.9,54.7c.6,0,.3-.8.3-1.4s0-.1,0-.2c0,.3.2,1.3.1,1.5s-.3,0-.4.1Z"/>
            <path class="st13" d="M52.3,56.9c.4,0,3.3,0,3.5,0s.1,0,0,.2c-.3,0-.6.1-.9.3-1.3.3-2.7,1-4,1.1s-.6-.1-1-.4-.6,0-.6-.3c.9-.3,2.1-.8,2.9-.9Z"/>
            <path class="st51" d="M55,57.4c.4,0,1.3-.4,1.3.2-2.6.8-5.2,1.7-7.8,2.5.3-.1.5-.2.3-.5s-.7-.1-1.1,0h0c1.1-.3,2.2-.6,3.3-1,1.3-.1,2.7-.9,4-1.1Z"/>
            <path class="st224" d="M47.7,59.5h0c-2,.4-4.2,1.4-6.2,1.9-1.4.2-3.3.9-4.7,1.4h-.1c.8-.5,1.7-1.2,2.5-1.6,1.4-.7,3.1-1.1,4.6-1.6-.3.1-.7.2-.5.4s1.1.2,1.2.2c.9,0,2.3-.5,3.2-.7Z"/>
            <path class="st75" d="M39.2,61.1c-.8.4-1.7,1.1-2.5,1.5h.1c-.1.1-.2.2-.3.2-.2,0,.2-.6.2-.9.4-.1.8-.3,1.1-.4s.9-.2,1.3-.4Z"/>
            <path class="st205" d="M60.4,47.5c0,1.2-.2.5-.8.8s-.3,1.1-.5,1.4h-.1c0,0,0,1,0,1,0,0,0-.2,0-.3,0-.4,0-1.1,0-1.5s.3-.4.4-.7c.1-.4.2-1.2.3-1.5.2-.4.6-.2.7-.6,0,.5.2.9.1,1.4Z"/>
            <path class="st43" d="M60.4,48c0,.9-.1.4-.4.8s-1,1.8-1,1.9c0,.5.2,1.3.1,1.9,0-.6-.1-1.3-.2-1.9v-1.1s.1,0,.1,0c.3-.3.2-1.2.5-1.4.6-.3.8.3.8-.8.1.1,0,.3,0,.5Z"/>
            <path class="st121" d="M60.2,46.2c0,.4-.4.2-.7.6s-.2,1.1-.3,1.5-.4.7-.4.7c0,.4,0,1.1,0,1.5,0,0,0,0,0,0,0-.9-.2-1.7-.1-2.6.3-.3.5-.3.6-.4s.2-.6.3-.7c.3-.4.6-.3.6-.4,0,0-.2-1.1,0-1.4,0,.4,0,.8.1,1.2Z"/>
            <path class="st312" d="M58.8,50.4c-.1,1.4-.9,3.1-1,4.6,0,0,0,0-.1,0,.2-1.2.8-2,.1-3.1.1-.4.1-.9.2-1.4.2-.9.4-1.8.5-2.6,0,0,.1,0,.1,0,0,.9.2,1.7.1,2.6Z"/>
            <path class="st179" d="M57.8,51.9c0,.3,0,.6-.3.7.2-.7.3-1.4.4-2.1h0c0,.4-.1.9-.2,1.4Z"/>
            <path class="st3" d="M40.4,55.5c-.2,0-3.4-.2-2.7.5s8.9.5,10.2.5c1,.2.6.9.2,1.5h.6c-1.4.3-3.5.9-4.8,1.5-1.5.5-3.2.9-4.6,1.6-.4.1-.9.2-1.3.4.9-.4.7-.3,0-.8s-.3,0-.4,0c-.2-.2-.1-1.2-.5-.2-.5-1.1.1-1.8.3-2.8s.2-1.7-.1-2.2c1,0,2,0,3-.1s.3,0,.3.1Z"/>
            <path class="st42" d="M36.2,59.1c-.5.8-.8,1.6-1.4,2.4-.2-1.4.6-1.6,1.4-2.4Z"/>
            <path class="st62" d="M43.5,55.1c.2,0,.6,0,.8.2-.4,0-.9,0-1.3,0-.9,0-1.7.1-2.6.1,0-.2-.2-.1-.3-.1-1,0-2,0-3,.1,0,0,0,0,0,0h0c0,0,6.4-.4,6.4-.4Z"/>
            <path class="st18" d="M44.8,55.2c3.2.3,6.5.8,9.7.9.1,0,.2,0,.4,0l-2.5.7c-.2,0-.1-.2-.5-.3-.8-.1-2.5,0-3.4,0-1.5-.2-3.1,0-4.6,0-1.4,0-4.6-.4-1-1.1.4,0,.9-.1,1.3,0-.2-.3-.5-.2-.8-.2-2.2-.3-4.6-.5-6.9-.6,2.7,0,5.5.4,8.2.7Z"/>
            <path class="st201" d="M45.3,54.4c2.2,0,4.5.6,6.7.9-.3,0-.6,0-.9,0,0,.8,1.2.6,1.8.7s1.1.1,1.6.1c-3.2,0-6.5-.5-9.7-.9,0-.3.6,0,.8-.4s-.5-.3-.8-.4c0-.1.4,0,.5,0Z"/>
            <path class="st114" d="M40.8,53.8c5,.4,9.9,1.3,14.7,1.8h0c-.6,0-1.3-.1-1.9-.1-.5-.1-1-.2-1.6-.2-2.2-.3-4.4-.8-6.7-.9l-5.2-.6c.2,0,.4,0,.6,0Z"/>
            <path class="st199" d="M36.5,52.4c-.7,0-1.1.2-.5.8,2,.2,4.1.3,6.1.5s2.4.3,3.6.4,3,.3,4.4.5,3.7.6,5.6.9c0,0-.2,0-.3,0-4.9-.5-9.8-1.3-14.7-1.8-2.1-.4-4.4-.3-6.5-.6s-.8-.1-.9-.1c0,0,.7-.4.8-.5.8.2,1.5-.3,2.4-.1Z"/>
            <path class="st282" d="M40.9,52c.1,0,.3,0,.4,0-1.1,0,.3.2-.2.4s-2.1-.3-2.7,0c-.1,0-.3,0-.4,0h-3.7c.2-.2.8-.8.8-.8.9-.2,4.6.3,5.8.3Z"/>
            <path class="st70" d="M34.2,52.4h3.7c-.4,0-1,0-1.4,0-.9-.2-1.6.3-2.4.1h0c0,0,0-.1,0-.1Z"/>
            <path class="st282" d="M34.2,52.5h0c0,.2-.8.5-.8.6s.7.1.9.1h-1.2c.3-.4.8-.5,1.1-.7Z"/>
            <path class="st86" d="M53.3,53.4c.5,0,1,.2,1.5.2s.1,0,.1,0,0,0,0,0c-.1.6-1.7.3-2.3.3-1-.2-2.1-.2-3.1-.4-1.1-.1-.6-.5-.7-.6s-1.1-.2-1.2-.2c1.9,0,3.8.5,5.7.7Z"/>
            <path class="st70" d="M41.3,52.1c1.5-.1,3.4.3,4.9.4-.3,0-.6,0-.9,0-.4,0-.4.4-.8.3-.6,0-1.2,0-1.9,0-1.4-.1-2.9-.3-4.4-.4.6-.2,2.3.2,2.7,0s-.9-.3.2-.4Z"/>
            <path class="st204" d="M46.3,52.5c.5,0,.9,0,1.4.1s1.2.2,1.2.2c0,.1-.3.4.7.6-1.6-.2-3.4-.5-5-.6.4,0,.4-.3.8-.3s.6,0,.9,0Z"/>
            <path class="st84" d="M53.8,53.4c.3,0,.7.1,1,.2-.5,0-1-.2-1.5-.2.2,0,.3,0,.5,0Z"/>
            <path class="st267" d="M49.1,53.5c1.2.1,2.4.2,3.6.3s2.2.3,2.3-.3c.6,0,1.6,0,2,.4,0,.1,0,.2,0,.4-.1.4,0,1.4-.6,1.5s-.4-.1-.6-.1c-1.8-.4-3.7-.7-5.6-.9-.4-.3-1.8-.4-1.1-1.1Z"/>
            <path class="st287" d="M48.5,56.5c.9,0,2.6-.1,3.4,0s.2.2.5.3h0c0,0-.1,0-.1.1-.9,0-2,.7-2.9.9s-.5,0-.7.1h-.6c.4-.5.7-1.2-.2-1.4.2,0,.5,0,.7,0Z"/>
            <path class="st215" d="M53.6,55.5c.6,0,1.3.1,1.9.2s0,0,0,0h.1c0,.1-.4.3-.4.3-.1,0-.3,0-.4,0s-.2,0-.4,0c-.5,0-1.1,0-1.6-.1-.5-.7,0-.5.6-.4Z"/>
            <path class="st6" d="M55.6,55.7c.1,0,.5,0,.5.2-.2,0-.5,0-.7,0h.4c0-.1-.1-.3-.1-.3Z"/>
            <path class="st222" d="M49.3,57.8c0,.4.5.2.6.3.4.3,0,.5,1,.4-1.1.4-2.2.7-3.3.9s-2.3.7-3.2.7-1.2-.1-1.2-.2c-.1-.2.3-.3.5-.4,1.3-.6,3.4-1.2,4.8-1.6s.5,0,.7-.1Z"/>
            <path class="st234" d="M43,55.4c-3.6.7-.4,1,1,1.1,1.5,0,3.1-.2,4.6,0-.2,0-.5,0-.7,0-1.3,0-9.6,0-10.2-.5s2.5-.5,2.7-.5c.9,0,1.7,0,2.6-.1Z"/>
            <path class="st254" d="M52,55.3c.5,0,1.1,0,1.6.2-.6,0-1.1-.3-.6.4-.6,0-1.7.2-1.8-.7.3,0,.6,0,.9,0Z"/>
            <path class="st63" d="M38,52.5c.1,0,.3,0,.4,0,1.4,0,2.9.2,4.4.4-.1,0-.8,0-.9,0,0,0,.3.7.2.9-2-.2-4.1-.3-6.1-.5-.6-.6-.2-.8.5-.8s1,0,1.4,0Z"/>
            <path class="st308" d="M42.8,52.8c.6,0,1.2,0,1.9,0,1.6.1,3.4.4,5,.6s2.1.2,3.1.4c-1.2,0-2.4-.2-3.6-.3s-2.7-.5-3-.4-.4.8-.3,1c-1.2-.1-2.4-.3-3.6-.4.1-.2-.3-.9-.2-.9s.7,0,.9,0Z"/>
            <path class="st155" d="M49.1,53.5c-.7.7.7.9,1.1,1.1-1.5-.2-3-.3-4.4-.5,0-.2.2-1,.3-1,.4-.1,2.5.3,3,.4Z"/>
          </g>
        </g>
      </g>
      <g>
        <path class="st192" d="M25.2,67.2l-.2.3h.6c-.6.1-1.4.4-2,.4s-.5-.2-.8-.3c.8,0,1.4-.1,2.1-.4s.2,0,.2,0Z"/>
        <g>
          <path class="st285" d="M59.7,30.1c.6,0,1.3.2,1.9.4s.1.1.1.1,0,0,0,0c0,0,.1,0,.2,0,.7.2,1,.3,1.7.6s1.4.8,1.8,1.1c2,1.6,4.4,5.4,5.4,7.7-.9.4-.8-.8-.9-.9-.2-.2-1.1,1.1-1.6,1.1s-.3-.2-.5-.3-.3,0-.5,0c-.6-.2-.5-.6-.8-1s-.6-.2-.7-.5,1.3-.8.4-1.1c-.6,1.7-1,0-1.1,0s-.3,0-.4,0c-.2-.1-.3-.4-.5-.5s-.2,0-.3,0-.3-.6-.5-.8c-.4-.3-2.2-.7-2.6-.3s-.1.4-.3.5c-.4.4-.6.3-.9,1.1s0,.7,0,.8c0,.2-.4.2-.5.5s.3.7.2.8-3.6.6-4,.9-1,3.6-2,2.5.2-1.5-1.1-.5c0,0,.3-.4.4-.6.7-1.4.7-1.7.2-3.1s-1.2-2.9-2.8-2.8-5.9,2.4-6.3,2.9h0c.2-.4.4-.8.6-1.1s.8-.7.9-1l.3-.3s0,0,0,0c.1,0,1.4-1.2,1.6-1.4.3,0,.6-.5.9-.6s.4-.2.5-.3c1.1-.8,2.3-1.6,3.5-2.2s2.8-1.4,4.1-1.7,2.3-.2,3.6,0ZM58.9,30.1c-.1,0-1.5,0-1.7,0s0,0,0,0h1.7s0,0,0,0Z"/>
          <path class="st8" d="M68.7,55.6c-2.8,7-5.7,12.2-13.1,15-.4-.1-.7-.8-1.1-.8s-1.6.9-1.3-.5c0,0,.1,0,.2,0,1,0,1-.3,1.7-.8,1-.7,2.1-1.4,1.6-2.7s-2.9-2.3-4.1-2.6c.8.2,2.1-.8.8-1.3,0,0,0,0,0,0-.5-.4-.5-.7-.6-1.3.6.1.8.4,1.2.7s.6.5,1,.8c.9.6,1.5.9,2.6,1.2,2.3.6,4.2.4,6.1-1.1s1.4-1.4,1.9-2.2,1.4-2.9,1.5-3.1.4,0,.6-.2.2-.2.3-.3c.3-.2.5-.4.7-.6s.2-.2.1,0Z"/>
          <path class="st83" d="M36,67.2c0,.1-.1.1,0,.2.8.7,2.5,1.3,3.5,1.7s1.5.5,2.4.7c3.5.8,6.5.7,9.9-.2s.9-.2,1.3-.4c-.3,1.4.8.5,1.3.5s.7.7,1.1.8c-2.7,1.1-5.6,1.7-8.6,1.9h-2.5c-3.4-.1-6.7-.8-10-1.6.3,0,.2,0,.2-.2,0-.3,0-1.1,0-1.4s-.3-.9-.2-1.2.8-.9.9-1c.2,0,.5,0,.6,0Z"/>
          <path class="st195" d="M52.2,42.6c1.4-1.1.6-.1,1.1.5,1,1.2,1.7-2.3,2-2.5.4-.3,3.9-.8,4-.9s-.3-.5-.2-.8.4-.3.5-.5,0-.5,0-.8c.2-.8.5-.7.9-1.1s0-.3.3-.5c.4-.4,2.2,0,2.6.3s.4.7.5.8.3,0,.3,0c.2.1.3.4.5.5s.3,0,.4,0,.5,1.7,1.1,0c.9.3-.4.9-.4,1.1s.6.4.7.5c.3.3.2.7.8,1s.3,0,.5,0,.2.3.5.3c.5,0,1.4-1.3,1.6-1.1s0,1.3.9.9c.3.8.8,1.5.8,2.4-.4-1.5-.3-.6-1-.9s-.1-.3-.3-.4c-.7-.3,0,.5,0,.6s.2,1.1.2,1.1c-.3.3-.6-.8-.7-.8-.2-.2-.5,0-.6,0-.2,0-.4-.4-.7-.5-.7-.1-.7.5-1.1.6s-.8-.8-.9-.8c0,0-1.7.4-1.9.6l-1.1-.5c0-.2-.1-.7-.1-.9v-1.1c0-.5.2-1.4,0-1.8s-.3-.2-.5-.3,0-.3-.1-.3-1,0-1,0c-.6.2-2.1,1.7-1.4,2.3s1.2-.2.2.9c-.6.5-1.4,1.3-2.1,1.8s-1.2.8-1.7,1.1c-.2,0-.3,0-.5.1-.6,0-.9.5-1.6.7s-.4,0-.6,0c-.3,0-.5.4-.9.4-.7,0-.7-1.3-.8-1.6s-.3,0-.3-.2ZM56.9,41.1c-.5.1-.5,1.8.5,1.3s.6-1.6-.5-1.3Z"/>
          <path class="st265" d="M71.7,42.6c0,.2.1.4.1.6v1.4c0,.7-.2,1.4-.4,2.1-.4.1-.1.5-.2.7s-.4,0-.6.6,0,.7,0,.8-.3-.1-.4,0c-.2,0-.5.4-.7.4s-1.7-1.2-2.1-1,0,.7,0,.9c0,.5-.5.6-.3,1.3s.9,1.6,1.1,2.1.1,1.6.7,2.1c0,.2-.2.5-.3.7-1-.5-.6-1.5-1-2.2s-.9-.4-1.2-.8c.1-.7-.3-1.4-.3-2.1s.6-2.1.5-2.4-.5,0-.5-.4c.5-.1,1.2-.4,1.7-.6s.1,0,.2,0c.8.3,1.5.2,2.2-.4,0-.8-.2-1.9-.8-2.5s-.4,0-.5,0,0-.3-.2-.4c-1.6-1.2-1-.1-1.6-.1s-.8-.8-1.3-.8-1,1.1-1.7.9c-.2-.5-.4-.8-.5-1.4s0-.2,0-.4l1.1.5c.2-.2,1.8-.6,1.9-.6s.6.8.9.8.4-.7,1.1-.6.5.4.7.5.4-.2.6,0,.4,1.1.7.8-.1-1.1-.2-1.1c0-.1-.7-.9,0-.6s.1.3.3.4c.7.3.6-.6,1,.9Z"/>
          <path class="st127" d="M69,54.7c-.6-.5-.5-1.5-.7-2.1s-.9-1.4-1.1-2.1.3-.8.3-1.3-.4-.7,0-.9,1.8,1,2.1,1,.5-.3.7-.4.4.1.4,0,0-.6,0-.8c.1-.6.5-.5.6-.6.1-.2-.1-.6.2-.7-.5,2.7-1.5,5.3-2.5,7.9Z"/>
          <path class="st301" d="M36.6,66.9c-.2,0-.4.2-.6.3s-.5,0-.6,0-.8.9-.9,1c0,.3.2.8.2,1.2s0,1,0,1.4,0,.2-.2.2c-1.4-.3-2.8-.7-4.1-1.1v-1c0,.1,0,.5.1.5s.7-.8.8-1,.1-.3.1-.3c.2-.2.4,0,.5,0h1.1c0,0,1.1-.2,1.2-.3.3-.1.5-.7.6-.9.4-.4,1.5-.6,1.9,0Z"/>
          <path class="st200" d="M66.3,47.5c0,.3.4,0,.5.4s-.5,1.9-.5,2.4c0,.7.4,1.3.3,2.1.3.4.9.4,1.2.8.5.7,0,1.7,1,2.2,0,0,0,.1,0,.2,0-.3,0-.1-.1,0-.3.2-.5.4-.7.6.2-.9-.5-1-.8-1.6s-.2-1.1-.4-1.4c-.4-.9-1.5-1.8-1.2-2.9s.8-.6.3-1.5-1.2,0-1.2-.7c.5,0,1.3-.3,1.9-.4Z"/>
          <path class="st7" d="M29.4,67c.2,0,1.3-.2,1.3,0v1.5c0,.2.3,0,.4-.1,0,.2-.6,1-.8,1s-.2-.4-.3-.5c-.4-.9-.6-1.6-1.8-1.6s-.9.8-1.1,1.7c-1.2-.3-2.4-.6-3.6-1.1.6,0,1.4-.2,2-.4s1.2-.6,1.3-.6c.2,0,.3.3.7.4.6,0,1.2-.1,1.8-.2Z"/>
          <path class="st162" d="M30.2,68.8v1c-.9-.3-1.9-.6-2.9-.9.2-.9-.1-1.7,1.1-1.7s1.4.7,1.8,1.6Z"/>
          <path class="st64" d="M52.8,38.9v.3c0-.4-.3-.4-.6-.3-1.2.2-7.1,2.9-8.6,3.6s-.2,0-.2.2c-.1-.3-.3-.5-.4-.8,0,0,0-.1,0-.2,0-.4,0-1.4.1-1.7s.5-1,.5-1c.3-.4,5.6-2.8,6.3-2.9,1.7,0,2.4,1.4,2.8,2.8Z"/>
          <path class="st213" d="M43.5,42.7c0-.3,0-.2.2-.2,1.5-.7,7.4-3.4,8.6-3.6s.5,0,.5.3v-.3c.5,1.5.6,1.8-.1,3.1-1.3,1.1-4,2.3-5.7,2.6h-1.8c-.8-.6-1.1-1.1-1.6-1.9Z"/>
          <path class="st231" d="M52.2,42.6c0,.2.3.2.3.2.1.3.2,1.6.8,1.6s.7-.3.9-.4.3.1.6,0c.6-.2.9-.7,1.6-.7-.2.1-.5.3-.7.4-1.3.6-2.8,1-4.2,1.2-1.1.1-2.2.3-3.3.2s-1.8,0-1.6-.6c.2,0,.3,0,.4,0,1.7-.3,4.4-1.4,5.7-2.6,0,.2-.4.5-.4.6Z"/>
          <path class="st102" d="M58.9,30.1s0,0,0,0h-1.7s0,0,0,0c.3,0,1.6,0,1.7,0Z"/>
          <path class="st44" d="M42.3,64.6c.4-.2.5.3.5.4,0,0,1,0,1.1,0s1.8-.5,1.9-.5c.3-.2,0-.6.4-.7.5-.1,0,.7.7.3s.3-.5.5-.5.5.5.9.5.4-.6.8-.6.3.4.4.5c.7.6,1.1.4,1.7.6,1.5.5,1.2,2,1.9,2.9s1.2,1,1.2,1.1c0,.2-.4.3-.4.4-.1,0-.3.2-.4.2s-.1,0-.2,0c-.4.1-.9.2-1.3.4.4-.1-1-.7-1.1-.8s.1-.2.1-.3c0-.5-.4-.3-.7-.5s-.6-.5-.7-.5c-.3,0-.7.2-1,0s-.3-.6-.6-.7c-.5-.2-.9.1-1.4.2s-2.3,0-2.4,0,.1.2,0,.4c-.3.5-.9,2-1.4,2.1s-.9-.2-.9.3c-.9-.2-1.5-.4-2.4-.7-.5-.3,0-.7.3-.7s.3.3.4.2c.3-.4-.3-.3-.4-.3-.2-.2.8-.8.9-1s0-.4.3-.7c.4-.6,1.5-.9.4-1.8.3-.1.6-.2.9-.4Z"/>
          <path class="st323" d="M62.3,50.2c0,.3-.2.9-.2,1.2,1.2,2,2,5.2,4.8,5.2s.4,0,.6,0c-.2.2-.5.1-.6.2s-1.2,2.6-1.5,3.1c-.5.8-1.1,1.6-1.9,2.2,0-.6-.7-.1-.9-.2-.2-.2.3-.4-.2-.6s-.5.3-.9,0-.5-1.4-.7-1.5-.5.2-.6.2-.2-.5-.4-.7c-.8-.9-.7.7-.9,1.1s-.7.6-.9.8c-.3.5-1.2,1.8-.7,2.2-1.1-.3-1.7-.6-2.6-1.2-.2-.6,1.1-.4,1.3-.6.3-.2-.1-.5,0-.7s.4-.3.5-.5c.7-1,.9-1.1,2-1.7s.8-.3,1.1-.5c.4,0,1-.4,1.3-.6,1.5-1,1.2-2.1.9-3.7,0-.6-.2-1.2-.3-1.9s-.1-1.3,0-1.4.5.5.7-.3Z"/>
          <path class="st50" d="M52.2,63c.1,0,.3,0,.4,0,1.2.3,3.7,1.4,4.1,2.6s-.7,2.1-1.6,2.7c-.4.2-.9.4-1.3.6,0-.1.5-.2.4-.4s-1.2-1-1.2-1.1c-.7-.9-.4-2.4-1.9-2.9s-1,0-1.7-.6,0-.4-.4-.5-.3.5-.8.6-.7-.5-.9-.5-.3.4-.5.5c-.6.4-.1-.4-.7-.3s-.1.5-.4.7-1.8.5-1.9.5-1,0-1.1,0,0-.5-.5-.4c1.6-.6,3.4-1.3,5.1-1.6s3.2-.3,4.9,0Z"/>
          <path class="st178" d="M46.4,62.2c.5-.1,2.8-.8,3.1-.7s0,.2.1.2c.5.1,4,.9,4.2.7s-.4-.6-.5-.6c1.3.5,0,1.4-.8,1.3-.1,0-.2,0-.4,0-1.5-.4-3.3-.4-4.9,0-1.7.3-3.5,1-5.1,1.6s-.6.2-.9.4c-1.4.5-2.8,1.1-4.1,1.7-.5.2-.4-.2-.6-.4s-.4,0-.6-.2c-.3-.3,0-.6-.6-.6l1.2-.4c3.3-.8,6.5-1.9,9.7-2.8Z"/>
          <path class="st69" d="M57.5,63.1c-.5-.4.4-1.8.7-2.2s.8-.7.9-.8c.2-.4.1-1.9.9-1.1s.3.6.4.7.5-.3.6-.2.5,1.3.7,1.5c.4.3.6,0,.9,0,.5.2,0,.5.2.6s.9-.3.9.2c-1.9,1.6-3.8,1.8-6.1,1.1Z"/>
          <path class="st317" d="M64.4,48c0,.8.8-.2,1.2.7s-.2.9-.3,1.5c-.2,1.1.9,2.1,1.2,2.9s.2,1,.4,1.4,1.1.7.8,1.6c0,0-.2.2-.3.3-.2,0-.4,0-.6,0-.3-.3.2-.6,0-.9s-.7-.3-.9-.4,0-.7-.6-.2c.5-.9,0-1.7-.3-2.6s-.3-.2-.3-.4c-.1-.4,0-1,0-1.3s-.9-.8-1.1-1.1,0-.4-.2-.5-.5.2,0-.6,0-.1,0-.1c.1-.2.4-.3.6-.4,0,0,.2,0,.3,0Z"/>
          <path class="st45" d="M59.8,58c-.3.2-.7.3-1.1.5-1.4.5-2.8,1.3-4.1,2s-.7.3-.7.6c-.4-.3-.7-.6-1.2-.7,0,0-.2-.2-.1-.3s.7-.3.9-.4.4-.2.6-.3c.9-.2,1.7-.5,2.5-.8,1.2-.4,1.9-.5,3.1-.7Z"/>
          <path class="st165" d="M52.4,60.1l-.7.6c.5,0,1.2.7,1.6,1s0,0,0,0c0,0,.6.6.5.6-.2.2-3.7-.6-4.2-.7s0-.2-.1-.2c-.3,0-2.6.6-3.1.7h0c.8-.2,4.1-.9,4.7-1.2s.4-.3.6-.5c.1,0,.5-.3.7-.4Z"/>
          <path class="st225" d="M58.7,58.5c-1.1.6-1.3.7-2,1.7s-.5.4-.5.5c0,.2.3.5,0,.7s-1.5,0-1.3.6c-.4-.2-.7-.5-1-.8,0-.3.5-.5.7-.6,1.3-.7,2.7-1.5,4.1-2Z"/>
          <path class="st2" d="M53.5,59.8c-.2,0-.9.3-.9.4,0,0,.1.3.1.3,0,.6.1.9.6,1.3-.3-.3-1.1-1.1-1.6-1l.7-.6c.3-.1.7-.4,1.1-.4Z"/>
          <path class="st83" d="M55.1,68.4c-.7.5-.7.9-1.7.8.1,0,.3-.2.4-.2.4-.2.9-.4,1.3-.6Z"/>
          <path class="st277" d="M41.9,69.9c0-.5.6-.2.9-.3.6-.2,1.2-1.6,1.4-2.1s0-.3,0-.4c0-.1,2.1,0,2.4,0,.5,0,.9-.4,1.4-.2s.4.6.6.7c.4.2.8,0,1,0s.5.4.7.5c.3.2.7,0,.7.5s-.2.2-.1.3,1.5.7,1.1.8c-3.4.9-6.5,1-9.9.2Z"/>
          <path class="st52" d="M41.4,64.9c1.1.9,0,1.2-.4,1.8s-.1.5-.3.7-1,.8-.9,1,.7,0,.4.3-.3-.2-.4-.2c-.4,0-.8.4-.3.7-1-.4-2.7-1-3.5-1.7s0,0,0-.2c.2,0,.4-.2.6-.3s.4-.2.6-.3c1.4-.6,2.7-1.2,4.1-1.7Z"/>
          <path class="st161" d="M58.9,42.2c-.2.3-.1.8-.2,1.2-.6.4-1.1.7-1.8,1.1s-.7.3-1.1.5c-3,1-6.3,1.4-9.4.3,0,0,0,0-.1-.1,1.6.4,3.6.2,5.2,0s2.9-.6,4.2-1.2c.5,0,.8-.3,1.2-.6.6-.3,1.2-.7,1.7-1.1h.3Z"/>
          <path class="st81" d="M60.7,40.4c1-1.1.3-.5-.2-.9-.7-.6.8-2.1,1.4-2.3s1-.1,1,0c0,0,0,.2.1.3.2.1.3,0,.5.3-.2,0-.3.2-.4.3-.7.8-1.4,1.5-2.2,2.2s-.2.1-.3.1Z"/>
          <path class="st285" d="M56.9,41.1c1.1-.3.7,1.2.5,1.3-.9.5-1-1.2-.5-1.3Z"/>
          <path class="st247" d="M60.9,40.9c-.4.4-1.8,1-2,1.3h-.3c.6-.5,1.4-1.2,2.1-1.8s.2,0,.3-.1c0,0,.2.4.2.4s-.2.2-.3.2Z"/>
          <path class="st35" d="M63.6,37.8c.2.4,0,1.3,0,1.8v1.1c0,.2.1.7.1.9s0,.2,0,.4l-.3-4h-.1c0,0,0,0,0,0,.1-.1.2-.3.4-.3Z"/>
          <path class="st247" d="M56.9,43.3c-.4.2-.8.5-1.2.6.2-.1.5-.3.7-.4s.3-.2.5-.1Z"/>
          <path class="st32" d="M64.2,43.5c.7.3,1.4-.9,1.7-.9.5,0,.5.8,1.3.8s0-1.1,1.6.1,0,.3.2.4.3,0,.5,0c.6.6.9,1.7.8,2.5-.6.6-1.3.7-2.2.4,1.9-.8.7-.8,0-1.4s-.4-.8-.8-1.1c-.7-.4-1.7.2-2.4.3-.4-.5-.5-.7-.8-1.3Z"/>
          <path class="st256" d="M63.7,42c.1.6.3.9.5,1.4s.4.8.8,1.3c.6.8,1.1,1.2,2,1.7s1.2.2,1,.6c-.5.2-1.2.4-1.7.6s-1.3.3-1.9.4-.2,0-.3,0l2.4-.8c.1,0,.6,0,.6-.3-.5,0-1.1-.2-1.5-.5s-.4-.3-.4-.4c-.4-.4-1.8-2.5-2.1-3.1s-.5-1.1-.5-1.6c.1-.4.1-1,.2-1.4,0,0,.4-1.1,0-.9.2-.3.4-.6.4-.9h.1c0,0,.3,3.9.3,3.9Z"/>
          <path class="st24" d="M68.2,46.9c0,0-.1,0-.2,0,.2-.3-.7-.4-1-.6-.9-.4-1.4-.9-2-1.7.7,0,1.8-.7,2.4-.3s.5.8.8,1.1c.7.6,1.9.6,0,1.4Z"/>
          <path class="st260" d="M35.5,65.4c.7,0,.3.3.6.6s.4.1.6.2.1.6.6.4c-.2,0-.4.2-.6.3-.4-.6-1.4-.3-1.9,0s-.3.7-.6.9-1.1.3-1.2.3h-1.1c-.1,0-.3-.2-.5,0,.1-.6,0-1,0-1.5.9-.2,3.3-1.2,4.1-1.1Z"/>
          <path class="st115" d="M31.4,66.6c-.1.5,0,.9,0,1.5s-.1.2-.1.3c0,0-.4.3-.4.1v-1.5c0-.2-1.1,0-1.3,0,.6-.2,1.3-.3,1.9-.4Z"/>
          <path class="st240" d="M36.7,65l-1.2.4c-.8,0-3.2.9-4.1,1.1s-1.3.2-1.9.4c-.6,0-1.2.3-1.8.2s-.5-.4-.7-.4-1.1.5-1.3.6h-.6c0,0,.2-.2.2-.2.8-.3,1.6-.9,2.3-1.3-.1.2,0,.3,0,.4.2.8.5.4,1.1.3,1.1-.3,2.1-.7,3.2-1s2.1-.6,2.2-.5.1.3.2.4c.2.2,2.1-.4,2.5-.5Z"/>
          <path class="st135" d="M46.9,44.6c-.1,0-.2,0-.4,0-.4,0-.7,0-1.1,0,0,0,.2.2.3.3-.2,0-.4-.2-.6-.4h1.8Z"/>
          <path class="st39" d="M46.5,44.7c-.2.6,1.2.6,1.6.6,1.1,0,2.2-.1,3.3-.2-1.6.3-3.6.5-5.2,0s-.4-.1-.6-.3-.2-.2-.3-.3c.4,0,.7.1,1.1,0Z"/>
          <path class="st184" d="M63.5,48.5c-.6.7-.1.4,0,.6s0,.4.2.5c.2.2,1.1.9,1.1,1.1.2.4,0,1,0,1.3s.3.2.3.4c.3.9.7,1.7.3,2.6.6-.5.4,0,.6.2s.8.3.9.4c.2.3-.2.6,0,.9-2.9,0-3.7-3.2-4.8-5.2,0-.3.1-.9.2-1.2.2-.6.7-1.3,1.2-1.6Z"/>
          <path class="st305" d="M61.6,51.8c0,.6.2,1.2.3,1.9s.3,1.8.2,1.9-.4,0-.6.1,0,.2-.2.2c-.2-1.2-.2-2.3-.4-3.5,0-.5-.1-1,0-1.5,0-.8.4-.6.3-1.8h0c0,.8.2,1.9.4,2.7Z"/>
          <path class="st87" d="M63.6,48.4s0,.1,0,.1c-.6.3-1,1-1.2,1.6-.2.7-.7.2-.7.3,0,0,0,1.2,0,1.4-.1-.8-.3-1.9-.4-2.7s0-.3,0-.5c1,1,1.1-.8,2.3-.2Z"/>
          <path class="st259" d="M61.1,57.4l-.6-.2c.2-.2.4-.8.6-1.1s.1-.2.2-.2c0,0,0,0,0,0,0,0,0-.2.2-.2s.6,0,.6-.1c0,0-.2-1.6-.2-1.9.4,1.6.7,2.8-.9,3.7Z"/>
          <path class="st142" d="M61.1,57.4c-.3.2-.9.5-1.3.6-1.2.2-1.9.3-3.1.7.3-.2.7-.3,1-.4.6-.2,2.3-.7,2.8-1.1l.6.2Z"/>
          <path class="st8" d="M52.2,63c-1.6-.3-3.3-.3-4.9,0,1.5-.4,3.3-.4,4.9,0Z"/>
          <path class="st95" d="M45.9,62.2c.2,0,.3,0,.5,0h0c-3.3.9-6.5,2-9.7,2.9s-2.3.6-2.5.5,0-.3-.2-.4-1.9.4-2.2.5l4.8-1.6c1.5-.1,4.3-1.5,5.9-1.9s.4,0,.6-.1c1.6-.3,1.4.3,2.7.3Z"/>
          <path class="st296" d="M66.6,47.2l-2.4.8c-.2.1-.4.3-.6.4-1.2-.6-1.3,1.2-2.3.2,0,.2,0,.3,0,.5h0c0-.5-.1-.9,0-1.4.3-.4.7-.3,1.1-.3,1.2.2,2.6,0,3.8-.1s.4,0,.5,0Z"/>
          <path class="st149" d="M54.3,59.3s0,.2-.1.2c-.2,0-.4.2-.6.3-.4,0-.7.2-1.1.4s-.6.3-.7.4c-.7.2-1.4-.3-2.4,0s-.7.5-1.1.6c-.8.3-1.8.5-2.3,1.1-1.3,0-1.2-.6-2.7-.3,1.2-.5,2.5-.8,3.7-1.2.7,0,1.4-.5,2.1-.6s1.6-.1,2.1-.3.5-.4.6-.4,1.5-.5,1.6-.5c.3,0,.7.2.9.4Z"/>
          <path class="st219" d="M60.1,56.5c-.3,0-1,.3-1.2.4-.5.4-.5,1.2-1.3,1.3-.3.1-.7.3-1,.4-.8.3-1.6.6-2.5.8.1,0,.1-.2.1-.2.4-.2,1.8-.4,2-.6s.3-1,.6-1.2c1-.3,2.1-.8,3.1-1Z"/>
          <path class="st238" d="M51.7,60.5c-.2.2-.3.4-.6.5-.6.3-3.9,1-4.7,1.1s-.3,0-.5,0c.6-.5,1.6-.8,2.3-1.1s.8-.5,1.1-.6c.9-.3,1.7.2,2.4,0Z"/>
          <path class="st276" d="M61.2,41.2c-.6.5-1.1,1.3-1.9,1.9s-.5.2-.6.4c0-.4,0-.9.2-1.2s1.6-.8,2-1.3c.4-.2.9-.7,1.2-1l-.9,1.3Z"/>
          <path class="st257" d="M62.9,39c-.2.3-.4.6-.7.9s-.8.8-1.2,1c0,0,.3-.2.3-.2,0,0-.2-.3-.2-.4.8-.7,1.5-1.5,2.2-2.2h0c0,.3-.3.7-.4.9Z"/>
          <path class="st142" d="M65.2,46c-.2.2-1.5,0-1.6-.1-.5-.3-.6-1.5-1.7-1.6s-.5.5-.7-.4c0-.4,0-1.2.2-1.5.3-.4.9-.1,1.2-1,0,.5.3,1.1.5,1.6s1.7,2.7,2.1,3.1Z"/>
          <path class="st122" d="M61.1,43.9c.2.9.2.3.7.4,1.2.2,1.2,1.3,1.7,1.6s1.4.3,1.6.1c0,0,.4.3.4.4-.5,0,.3.4,0,.6s-1.3-.1-1.6,0c-1.6-.2-2.9-1.4-3-3s0,0,0-.1Z"/>
          <path class="st290" d="M62.6,41.3c-.3.9-.9.6-1.2,1s-.2,1.2-.2,1.5,0,0,0,.1c-.2-.7,0-2.1.5-2.7s.7-.4,1.1-1.4c0,.4,0,1.1-.2,1.4Z"/>
          <path class="st272" d="M62.8,39.9c-.4,1.1-.7.8-1.1,1.4,0-.5-.2-.3-.4,0l.9-1.3c.3-.3.5-.6.7-.9.3-.2,0,.8,0,.9Z"/>
          <path class="st57" d="M65.6,46.4c.4.3,1,.5,1.5.5,0,.2-.4.3-.6.3s-.3,0-.5,0c.1-.1,0-.2-.1-.2-.5,0-1.2,0-1.8,0s0,0,0,0c.2-.2,1.5,0,1.6,0,.2-.2-.6-.5,0-.6Z"/>
          <path class="st314" d="M61.2,49.1c0,1.2-.2,1-.3,1.8s.1,1,0,1.5c0-.5-.2-1-.2-1.4,0-.4,0-.8,0-1.1s-.1-1.4,0-1.5.3,0,.4,0,0-.4.1-.6c0,.5,0,1,0,1.4Z"/>
          <path class="st91" d="M61.1,56.1c-.2.3-.4.9-.6,1.1-.5.4-2.1.9-2.8,1.1.8-.1.8-1,1.3-1.3s.9-.3,1.2-.4.7-.2,1-.4Z"/>
          <path class="st294" d="M62.5,47.4c0,0-.1,0-.2,0-.4,0-.9-.1-1.1.3s-.1.6-.1.6c0,0-.3,0-.4,0,0,0,0,1.3,0,1.5h0c0-.5-.2-1.4-.1-1.8,0-.6,1.4-.9,2-.6Z"/>
          <path class="st124" d="M66.1,47.2c-1.2.2-2.5.3-3.8.1,0,0,.1,0,.2,0,.5,0,3.6,0,1.7-.4.6,0,1.2,0,1.8,0s.2,0,.1.2Z"/>
          <path class="st303" d="M56.9,57.5c-.3.2-.4,1-.6,1.2s-1.6.4-2,.6c-.2-.2-.7-.4-.9-.4s-1.3.5-1.6.5-.4.4-.6.4c-.5.1-1.5.1-2.1.3s-1.4.5-2.1.6c.4-.2,1.2-.4,1.6-.6,2.6-.8,5.2-1.7,7.8-2.5.2,0,.5,0,.6-.1Z"/>
          <path class="st74" d="M61.6,41.3c-.4.6-.7,2-.5,2.7.2,1.6,1.4,2.8,3,3s0,0,0,0c1.9.4-1.2.3-1.7.4-.6-.2-1.9,0-2,.6h0c0-.2,0-.4,0-.5,0-.5,0-.9-.1-1.4s0-.8-.1-1.2-.4-1.8-.5-1.9-.2,0-.2,0c.8-.6,1.3-1.4,1.9-1.9s.4-.4.4,0Z"/>
        </g>
      </g>
    </g>
  </g>
  <g>
    <path class="st322" d="M103.3,52.3c2.3,0,3.9-.5,5.1-1.5,1.1-1,1.7-2.2,1.7-3.7s-.4-2.3-1.3-3.2c-.9-.8-2.2-1.5-4-2l-4.1-1.2c-1.6-.5-3.1-1.2-4.3-1.9-1.2-.8-2.2-1.7-2.8-2.8-.7-1.1-1-2.5-1-4.1,0-2.8,1-5.1,3.1-6.7,2.1-1.6,4.9-2.4,8.5-2.4s3.7.2,5.3.6c1.6.4,2.8,1,3.7,1.6.9.7,1.3,1.5,1.3,2.3s-.1,1.1-.4,1.5c-.3.4-.7.8-1.1,1.1-.9-.7-2-1.3-3.5-1.7-1.5-.5-3.1-.7-4.8-.7s-3.5.4-4.6,1.2c-1.1.8-1.7,1.9-1.7,3.2s.4,1.9,1.2,2.6c.8.7,2,1.2,3.7,1.7l3.2,1c3,.9,5.3,2.1,7,3.6,1.7,1.6,2.5,3.7,2.5,6.4s-1.1,5.2-3.2,7-5.2,2.7-9.1,2.7-4.1-.2-5.8-.7c-1.7-.5-3-1.1-3.9-1.9-.9-.8-1.4-1.6-1.4-2.5s.2-1.3.7-1.8c.4-.5.9-.9,1.5-1.1.9.8,2.1,1.5,3.6,2.3,1.5.7,3.3,1.1,5.3,1.1Z"/>
    <path class="st322" d="M144.4,52.6h-5.5v-16.6c-.5-.3-1.2-.6-2-.9-.8-.3-1.7-.4-2.8-.4s-2.8.3-4,.9c-1.2.6-2.1,1.6-2.8,2.9-.7,1.3-1,3.1-1,5.2s.7,5.2,2.1,6.6,3.3,2.1,5.6,2.1,2.3-.2,3.2-.6c1-.4,1.7-.9,2.3-1.4v4.8c-.7.4-1.6.8-2.6,1.2-1.1.3-2.3.5-3.7.5-2.4,0-4.6-.5-6.4-1.4-1.9-.9-3.4-2.4-4.5-4.3-1.1-2-1.6-4.4-1.6-7.4s.6-5.6,1.7-7.6c1.2-2,2.7-3.5,4.7-4.5,2-1,4.3-1.5,6.9-1.5s3.4.2,4.9.7c1.5.4,2.7,1,3.6,1.6.6.4,1,.8,1.4,1.3.4.5.5,1.1.5,1.9v16.9ZM138.8,51.7h5.5c0,0,0,14.2,0,14.2-.2.1-.6.2-1.1.3-.5,0-.9.1-1.5.1-1,0-1.8-.2-2.3-.6-.5-.4-.7-1.1-.7-2v-12.1Z"/>
    <path class="st322" d="M157.3,44.9h-5.5v-13.8c.2,0,.6-.2,1.1-.3.5-.1,1-.2,1.5-.2,1,0,1.7.2,2.2.6.5.4.7,1,.7,2v11.6ZM151.8,46.7v-4.6h5.5v4.4c0,2.1.5,3.6,1.6,4.5,1.1.9,2.6,1.4,4.5,1.4s2.4-.1,3.3-.4c.9-.3,1.6-.5,2.1-.8v-9h5.5v9.2c0,.8-.1,1.4-.4,1.9-.3.5-.8,1-1.5,1.5-.9.5-2.1,1-3.7,1.5-1.5.4-3.3.6-5.4.6s-4.5-.4-6.2-1.1c-1.8-.7-3.1-1.8-4-3.3-.9-1.5-1.4-3.4-1.4-5.8ZM174.4,44.9h-5.5v-13.8c.2,0,.6-.2,1.1-.3.5-.1.9-.2,1.5-.2,1,0,1.8.2,2.3.6.5.4.7,1,.7,2v11.6Z"/>
    <path class="st322" d="M181.5,23.3c0-.9.3-1.7,1-2.3.6-.6,1.4-.9,2.4-.9s1.8.3,2.4.9c.6.6.9,1.4.9,2.3s-.3,1.7-.9,2.3c-.6.6-1.4.9-2.4.9s-1.7-.3-2.4-.9c-.6-.6-1-1.4-1-2.3ZM187.6,44.8h-5.5v-13.6c.2,0,.6-.2,1-.2.5,0,1-.1,1.5-.1,1,0,1.7.2,2.2.6.5.4.7,1,.7,2v11.4ZM182.1,42h5.5v14.1c-.3.1-.6.2-1,.3-.4,0-.9.1-1.5.1-1,0-1.8-.2-2.3-.6-.5-.4-.8-1-.8-1.9v-12Z"/>
    <path class="st322" d="M194.9,23.3c0-.9.3-1.7,1-2.3.6-.6,1.4-.9,2.4-.9s1.8.3,2.4.9c.6.6.9,1.4.9,2.3s-.3,1.7-.9,2.3c-.6.6-1.4.9-2.4.9s-1.7-.3-2.4-.9c-.6-.6-1-1.4-1-2.3ZM201.1,44.8h-5.5v-13.6c.2,0,.6-.2,1-.2.5,0,1-.1,1.5-.1,1,0,1.7.2,2.2.6.5.4.7,1,.7,2v11.4ZM195.5,42h5.5v14.1c-.3.1-.6.2-1,.3-.4,0-.9.1-1.5.1-1,0-1.8-.2-2.3-.6-.5-.4-.8-1-.8-1.9v-12Z"/>
    <path class="st322" d="M227.4,49.2c0,2.4-.9,4.3-2.7,5.6-1.8,1.4-4.3,2-7.7,2s-5.1-.4-6.9-1.3c-1.8-.8-2.7-1.9-2.7-3.1s.1-1,.4-1.5c.3-.4.6-.8,1.1-1.1,1,.6,2.2,1.2,3.5,1.8,1.3.5,2.8.8,4.4.8,3.4,0,5.1-1.1,5.1-3.2s-.3-1.7-.9-2.2c-.6-.6-1.5-1-2.6-1.2l-3.7-1c-2.4-.6-4.2-1.5-5.3-2.6-1.1-1.2-1.7-2.7-1.7-4.6s.9-3.8,2.6-5.3c1.7-1.4,4.2-2.1,7.4-2.1s3.2.2,4.5.5c1.3.3,2.3.8,3.1,1.4.7.6,1.1,1.3,1.1,2s-.1,1.1-.4,1.5c-.3.4-.6.7-1,1-.4-.3-1-.6-1.7-.9-.7-.3-1.5-.6-2.4-.8-.9-.2-1.9-.3-2.8-.3-1.5,0-2.7.3-3.6.8-.9.5-1.3,1.3-1.3,2.2s.2,1.3.8,1.8c.5.5,1.3.9,2.5,1.2l3.2.8c2.7.6,4.7,1.5,5.9,2.8,1.3,1.3,1.9,2.9,1.9,5Z"/>
    <path class="st322" d="M239,44.8h-5.5v-23.5c.2,0,.6-.2,1.1-.3s1-.2,1.5-.2c1,0,1.7.2,2.2.6.5.4.7,1.1.7,2v21.3ZM233.5,42h5.5v14.1c-.3.1-.6.2-1,.3-.4,0-.9.1-1.5.1-1,0-1.8-.2-2.3-.6-.5-.4-.8-1-.8-1.9v-12ZM256,45.3h-5.5v-4.9c0-2-.5-3.4-1.6-4.4-1.1-.9-2.5-1.4-4.1-1.4s-2.5.3-3.7.8c-1.1.5-2,1.1-2.8,1.8l-.6-4.5c.8-.6,1.9-1.1,3.3-1.7,1.4-.6,2.9-.8,4.6-.8,3.1,0,5.6.8,7.6,2.5,1.9,1.7,2.9,4.2,2.9,7.5v5.1ZM250.5,42h5.5v14c-.2.1-.6.2-1,.3-.5,0-1,.1-1.5.1-1,0-1.8-.2-2.3-.6-.5-.4-.7-1-.7-1.9v-11.9Z"/>
  </g>
</svg>