<?xml version="1.0" encoding="UTF-8"?>
<svg id="Layer_1" xmlns="http://www.w3.org/2000/svg" version="1.1" viewBox="0 0 538 384">
  <!-- Generator: Adobe Illustrator 29.3.1, SVG Export Plug-In . SVG Version: 2.1.0 Build 151)  -->
  <defs>
    <style>
      .st0 {
        fill: #ff3385;
      }

      .st1 {
        fill: #f7f7f7;
        fill-opacity: .2;
      }
    </style>
  </defs>
  <rect class="st0" width="122" height="119" rx="20" ry="20"/>
  <path class="st1" d="M96,85v-53c0-5-3-8-8-8h-53c-5,0-8,3-8,8v53c0,5,3,8,8,8h53c5,0,8-3,8-8ZM48,64l10,12,13-17,17,23h-53l13-18Z"/>
  <rect class="st0" width="122" height="119" rx="20" ry="20"/>
  <path class="st1" d="M96,85v-53c0-5-3-8-8-8h-53c-5,0-8,3-8,8v53c0,5,3,8,8,8h53c5,0,8-3,8-8ZM48,64l10,12,13-17,17,23h-53l13-18Z"/>
  <rect class="st0" x="138" width="122" height="119" rx="20" ry="20"/>
  <path class="st1" d="M234,85v-53c0-5-3-8-8-8h-53c-5,0-8,3-8,8v53c0,5,3,8,8,8h53c5,0,8-3,8-8ZM186,64l10,12,13-17,17,23h-53l13-18Z"/>
  <rect class="st0" x="138" width="122" height="119" rx="20" ry="20"/>
  <path class="st1" d="M234,85v-53c0-5-3-8-8-8h-53c-5,0-8,3-8,8v53c0,5,3,8,8,8h53c5,0,8-3,8-8ZM186,64l10,12,13-17,17,23h-53l13-18Z"/>
  <rect class="st0" x="276" width="122" height="119" rx="20" ry="20"/>
  <path class="st1" d="M371,85v-53c0-5-3-8-8-8h-53c-5,0-8,3-8,8v53c0,5,3,8,8,8h53c5,0,8-3,8-8ZM323,64l10,12,13-17,17,23h-53l13-18Z"/>
  <rect class="st0" x="276" width="122" height="119" rx="20" ry="20"/>
  <path class="st1" d="M371,85v-53c0-5-3-8-8-8h-53c-5,0-8,3-8,8v53c0,5,3,8,8,8h53c5,0,8-3,8-8ZM323,64l10,12,13-17,17,23h-53l13-18Z"/>
  <rect class="st0" y="133" width="122" height="118" rx="20" ry="20"/>
  <path class="st1" d="M96,218v-53c0-5-3-8-8-8h-53c-5,0-8,3-8,8v53c0,5,3,8,8,8h53c5,0,8-3,8-8ZM48,197l10,12,13-17,17,23h-53l13-18Z"/>
  <rect class="st0" y="133" width="122" height="118" rx="20" ry="20"/>
  <path class="st1" d="M96,218v-53c0-5-3-8-8-8h-53c-5,0-8,3-8,8v53c0,5,3,8,8,8h53c5,0,8-3,8-8ZM48,197l10,12,13-17,17,23h-53l13-18Z"/>
  <rect class="st0" x="138" y="133" width="122" height="118" rx="20" ry="20"/>
  <path class="st1" d="M234,218v-53c0-5-3-8-8-8h-53c-5,0-8,3-8,8v53c0,5,3,8,8,8h53c5,0,8-3,8-8ZM186,197l10,12,13-17,17,23h-53l13-18Z"/>
  <rect class="st0" x="138" y="133" width="122" height="118" rx="20" ry="20"/>
  <path class="st1" d="M234,218v-53c0-5-3-8-8-8h-53c-5,0-8,3-8,8v53c0,5,3,8,8,8h53c5,0,8-3,8-8ZM186,197l10,12,13-17,17,23h-53l13-18Z"/>
  <rect class="st0" x="276" y="133" width="122" height="118" rx="20" ry="20"/>
  <path class="st1" d="M371,218v-53c0-5-3-8-8-8h-53c-5,0-8,3-8,8v53c0,5,3,8,8,8h53c5,0,8-3,8-8ZM323,197l10,12,13-17,17,23h-53l13-18Z"/>
  <rect class="st0" x="276" y="133" width="122" height="118" rx="20" ry="20"/>
  <path class="st1" d="M371,218v-53c0-5-3-8-8-8h-53c-5,0-8,3-8,8v53c0,5,3,8,8,8h53c5,0,8-3,8-8ZM323,197l10,12,13-17,17,23h-53l13-18Z"/>
  <rect class="st0" y="265" width="122" height="119" rx="20" ry="20"/>
  <path class="st1" d="M96,351v-53c0-5-3-8-8-8h-53c-5,0-8,3-8,8v53c0,5,3,8,8,8h53c5,0,8-3,8-8ZM48,330l10,12,13-17,17,23h-53l13-18Z"/>
  <rect class="st0" y="265" width="122" height="119" rx="20" ry="20"/>
  <path class="st1" d="M96,351v-53c0-5-3-8-8-8h-53c-5,0-8,3-8,8v53c0,5,3,8,8,8h53c5,0,8-3,8-8ZM48,330l10,12,13-17,17,23h-53l13-18Z"/>
  <rect class="st0" x="138" y="265" width="122" height="119" rx="20" ry="20"/>
  <path class="st1" d="M234,351v-53c0-5-3-8-8-8h-53c-5,0-8,3-8,8v53c0,5,3,8,8,8h53c5,0,8-3,8-8ZM186,330l10,12,13-17,17,23h-53l13-18Z"/>
  <rect class="st0" x="138" y="265" width="122" height="119" rx="20" ry="20"/>
  <path class="st1" d="M234,351v-53c0-5-3-8-8-8h-53c-5,0-8,3-8,8v53c0,5,3,8,8,8h53c5,0,8-3,8-8ZM186,330l10,12,13-17,17,23h-53l13-18Z"/>
  <rect class="st0" x="276" y="265" width="122" height="119" rx="20" ry="20"/>
  <path class="st1" d="M371,351v-53c0-5-3-8-8-8h-53c-5,0-8,3-8,8v53c0,5,3,8,8,8h53c5,0,8-3,8-8ZM323,330l10,12,13-17,17,23h-53l13-18Z"/>
  <rect class="st0" x="276" y="265" width="122" height="119" rx="20" ry="20"/>
  <path class="st1" d="M371,351v-53c0-5-3-8-8-8h-53c-5,0-8,3-8,8v53c0,5,3,8,8,8h53c5,0,8-3,8-8ZM323,330l10,12,13-17,17,23h-53l13-18Z"/>
  <rect class="st0" x="416" width="122" height="119" rx="20" ry="20"/>
  <path class="st1" d="M512,85v-53c0-5-3-8-8-8h-53c-5,0-8,3-8,8v53c0,5,3,8,8,8h53c5,0,8-3,8-8ZM464,64l10,12,13-17,17,23h-53l13-18Z"/>
  <rect class="st0" x="416" width="122" height="119" rx="20" ry="20"/>
  <path class="st1" d="M512,85v-53c0-5-3-8-8-8h-53c-5,0-8,3-8,8v53c0,5,3,8,8,8h53c5,0,8-3,8-8ZM464,64l10,12,13-17,17,23h-53l13-18Z"/>
  <rect class="st0" x="416" y="133" width="122" height="118" rx="20" ry="20"/>
  <path class="st1" d="M512,218v-53c0-5-3-8-8-8h-53c-5,0-8,3-8,8v53c0,5,3,8,8,8h53c5,0,8-3,8-8ZM464,197l10,12,13-17,17,23h-53l13-18Z"/>
  <rect class="st0" x="416" y="133" width="122" height="118" rx="20" ry="20"/>
  <path class="st1" d="M512,218v-53c0-5-3-8-8-8h-53c-5,0-8,3-8,8v53c0,5,3,8,8,8h53c5,0,8-3,8-8ZM464,197l10,12,13-17,17,23h-53l13-18Z"/>
  <rect class="st0" x="416" y="265" width="122" height="119" rx="20" ry="20"/>
  <path class="st1" d="M512,351v-53c0-5-3-8-8-8h-53c-5,0-8,3-8,8v53c0,5,3,8,8,8h53c5,0,8-3,8-8ZM464,330l10,12,13-17,17,23h-53l13-18Z"/>
  <rect class="st0" x="416" y="265" width="122" height="119" rx="20" ry="20"/>
  <path class="st1" d="M512,351v-53c0-5-3-8-8-8h-53c-5,0-8,3-8,8v53c0,5,3,8,8,8h53c5,0,8-3,8-8ZM464,330l10,12,13-17,17,23h-53l13-18Z"/>
</svg>