<?xml version="1.0" encoding="UTF-8"?>
<svg id="Layer_1" xmlns="http://www.w3.org/2000/svg" version="1.1" viewBox="0 0 1024 950.108">
  <!-- Generator: Adobe Illustrator 29.3.1, SVG Export Plug-In . SVG Version: 2.1.0 Build 151)  -->
  <defs>
    <style>
      .st0 {
        fill: #2853a5;
      }

      .st1 {
        fill: #5f48b4;
      }

      .st2 {
        fill: #e78bc3;
      }

      .st3 {
        fill: #91a7e0;
      }

      .st4 {
        fill: #3d7ecc;
      }

      .st5 {
        fill: #2e65b3;
      }

      .st6 {
        fill: #5a92df;
      }

      .st7 {
        fill: #f3378b;
      }

      .st8 {
        fill: #3569be;
      }

      .st9 {
        fill: #d12488;
      }

      .st10 {
        fill: #e1327e;
      }

      .st11 {
        fill: #3877c6;
      }

      .st12 {
        fill: #2e6ab9;
      }

      .st13 {
        fill: #7b69d4;
      }

      .st14 {
        fill: #ba1c75;
      }

      .st15 {
        fill: #d5287b;
      }

      .st16 {
        fill: #96c4fa;
      }

      .st17 {
        fill: #e32a85;
      }

      .st18 {
        fill: #2455a8;
      }

      .st19 {
        fill: #f43688;
      }

      .st20 {
        fill: #9dc8fb;
      }

      .st21 {
        fill: #c9e0fc;
      }

      .st22 {
        fill: #b0c5f4;
      }

      .st23 {
        fill: #4f8bd9;
      }

      .st24 {
        fill: #5f44bd;
      }

      .st25 {
        fill: #fabddf;
      }

      .st26 {
        fill: #f9aad6;
      }

      .st27 {
        fill: #eb94cb;
      }

      .st28 {
        fill: #3672bc;
      }

      .st29 {
        fill: #65a5ef;
      }

      .st30 {
        fill: #f996cb;
      }

      .st31 {
        fill: #fcd9ec;
      }

      .st32 {
        fill: #cce0fc;
      }

      .st33 {
        fill: #fbc3e2;
      }

      .st34 {
        fill: #e32985;
      }

      .st35 {
        fill: #fdddee;
      }

      .st36 {
        fill: #b2d3fb;
      }

      .st37 {
        fill: #5239ac;
      }

      .st38 {
        fill: #cce0fb;
      }

      .st39 {
        fill: #f33589;
      }

      .st40 {
        fill: #d6267d;
      }

      .st41 {
        fill: #f13c98;
      }

      .st42 {
        fill: #f890c8;
      }

      .st43 {
        fill: #fab1d9;
      }

      .st44 {
        fill: #b3cef6;
      }
    </style>
  </defs>
  <path class="st38" d="M959.323,509.387c.15-7.566-1.156-16.461,1.239-23.535-.185,7.576,1.182,16.452-1.239,23.535Z"/>
  <path class="st11" d="M953.13,688.993c.014-6.296-1.053-14.28,1.239-19.819-.035,6.306,1.068,14.274-1.239,19.819Z"/>
  <g>
    <g>
      <path class="st43" d="M195.069,691.47c1.625-1.095,2.243-.452,1.239,1.239l2.654,1.179,3.093,34.529c.118,4.156,1.38,7.139,3.785,8.95l157.01-24.199,20.496-.64c1.596-3.508,10.004-3.914,11.148,0l14.663-.764c40.326,4.165,79.594,8.131,117.804,11.897l1.308,2.492c-12.449,7.041-30.347,9.982-44.592,8.671l-10.999,3.775c-41.181,8.967-82.877,16.057-124.467,23.073-3.78.638-7.619.941-11.469,1.215s-7.735.375-11.612.426l-4.728,2.173c-30.017,4.816-59.782,9.756-89.297,14.821l-2.59-.891c-.213.03-1.478-.946-2.812-.773-23.942,3.113-46.681,4.84-53.87-23.677l-10.206-75.881,3.267-.371c7.939,6.492,17.448,9.816,28.528,9.973l1.649,2.785Z"/>
      <path class="st41" d="M86.067,353.316c4.795,8.451,8.298,22.715,6.193,32.205-10.457,7.473-21.571,13.769-33.34,18.888l-.199,2.123,56.386,114.312,5.642,17.032c4.076,1.339,7.025,10.649,3.716,13.625l4.305,9.236,13.705,75.351c.1,4.193-1.84,5.872-4.384,2.119-29.066-54.067-58.914-107.55-85.292-163.059-6.585-13.858-28.811-56.362-30.847-68.246-3.339-19.492,5.701-25.399,20.732-33.179,14.116-7.307,29.151-13.333,43.383-20.408Z"/>
      <path class="st40" d="M145.523,587.423c3.011,7.243,6.358,25.269,7.432,33.444l2.704,2.386c-2.807,18.38-.636,35.455,6.511,51.224l-1.784,3.369c-10.965-11.56-14.977-26.024-22.296-39.637,4.121.417,1.73-.88,1.393-3.241-3.918-27.516-9.764-56.093-15.019-83.465.387-.503.801-.952,1.312-1.208,4.196-2.107,19.743,31.261,19.746,37.129Z"/>
      <path class="st15" d="M100.931,345.884c.076.105,1.977-.536,2.445.869,2.647,7.938,3.398,22.412,4.987,31.336-1.009,5.229-11.38,9.516-16.103,7.432-2.104-10.703-5.044-21.317-6.193-32.205,4.676-2.324,9.339-6.477,14.864-7.432Z"/>
      <path class="st10" d="M430.415,705.095l-1.231,3.239c-11.264,2.969-22.828,4.367-34.69,4.193-3.646-.35-7.502.352-11.148,0-40.813.176-81.966-4.294-122.621-8.837-18.439-2.061-36.863-4.162-55.188-7.01-3.29-.821-6.365-2.148-9.229-3.971-1.414-.233-1.152-1.224-1.239-1.239l.242-5.328.997-.866c77.989,6.825,156.102,13.162,234.107,19.819Z"/>
      <path class="st2" d="M569.145,717.482c-11.797,2.618-29.026,8.544-40.876,8.671-6.03.064-18.024-1.886-25.387-2.483-36.113-2.927-72.318-7.685-108.388-11.142,11.365-4.229,25.057-2.15,35.921-7.432,46.185,3.941,92.957,7.116,138.73,12.387Z"/>
      <path class="st14" d="M145.523,587.423c-3.201-7.701-12.535-24.336-17.098-31.834-1.059-1.74-1.94-3.301-3.959-4.087-.948-4.937-2.834-9.027-3.716-13.625-13.537-49.739-22.528-101.162-28.489-152.355,5.332-2.495,11.007-4.401,16.103-7.432,12.415,69.737,26.519,139.262,37.16,209.334Z"/>
      <path class="st39" d="M383.346,712.527l-177.677,27.275c-1.408-.116-2.333-.798-3.243-1.813-4.354-4.854-4.834-37.029-6.118-45.281,58.719,9.667,127.08,14.034,187.038,19.819Z"/>
      <path class="st9" d="M120.75,537.876l-64.408-130.802c-.415-2.527.262-4.703,2.519-6.03,11.184-5.065,22.293-10.327,33.4-15.524,9.961,50.679,18.765,101.631,28.489,152.355Z"/>
    </g>
    <g>
      <path class="st26" d="M198.785,167.517c-.299,3.458.306,7.038-.012,10.522l-3.704,35.309c-2.242-.262-3.034-1.831-2.377-4.709l-66.243,13.83c-1.507.406-2.397,1.635-3.069,2.911,14.084,72.32,27.427,144.808,40.256,217.364.857,4.845,1.375,9.752,1.866,14.669s.809,9.867,1.077,14.815l1.238,13.63c-4.096,44.68-8.182,89.257-12.259,133.731l-2.605,1.278-2.646-1.059c-1.594-10.17-3.399-20.475-6.622-30.27l1.836-2.116-5.576-19.613c-10.592-59.826-21.067-119.648-31.424-179.465l-.159-10.255-2.766-1.542c-1.062-10.353-2.617-20.574-4.666-30.663-.198-.271,1.444-3.685,1.153-6.615-3.98-40.147-17.798-83.465-22.201-124.095-.634-14.265,7.161-22.814,20.508-26.521l98.394-21.136Z"/>
      <path class="st7" d="M166.58,472.227c-15.383-82.236-29.436-164.768-45.596-246.854.617-2.49,2.189-4.486,4.689-5.244l67.627-14.149c3.45-.723,1.176,5.408,1.769,7.367-8.167,91.201-15.644,182.514-23.535,273.744-2.958-2.516-4.14-10.511-4.955-14.864Z"/>
    </g>
    <g>
      <g>
        <path class="st25" d="M783.433,146.46c3.479,1.421,3.364,3.452,0,4.955-11.857-1.058-23.971-1.411-35.921-2.477l-2.751-1.265c-.924-11.571-2.723-22.89-5.395-33.957-28.416,2.44-57.162,5.953-86.237,10.538-25.405,4.577-50.923,7.851-76.553,9.82-46.635-4.14-93.318-8.292-139.969-12.387l.665-2.647c27.066-5.121,54.176-10.249,81.329-15.387l9.667.692c7.223-3.008,15.183-4.651,23.88-4.929,14.433-3.59,28.768-5.25,43.008-4.98,44.463-6.604,100.543-17.27,144.317-19.806,13.238-.767,21.266.156,29.745,11.105,7.64,9.866,11.778,46.389,14.214,60.725Z"/>
        <path class="st30" d="M747.512,148.937c-56.949-5.081-113.985-9.808-170.935-14.864,53.029-9.858,106.902-16.445,160.45-23.603,1.398.029,2.676.292,3.798,1.181,3.558,2.821,5.286,31.019,6.687,37.285Z"/>
      </g>
      <g>
        <path class="st35" d="M342.47,113.016c10.251-3.032,23.828-2.219,33.444,2.477,3.067-1.042,6.222-1.639,9.463-1.607,16.182.158,35.888,3.323,51.231,7.8,46.912,1.04,93.601,5.184,139.969,12.387,57.199,1.309,114.392,6.099,170.935,14.864,11.161-2.916,25.425-2.331,35.921,2.477l2.734-1.398c13.738,1.927,27.278,3.632,40.619,5.114,6.513,1.428,13.284,3.522,19.819,4.955,9.14,4.076,13.767,10.177,15.562,20.012.662,3.627.691,13.666-3.176,14.671.589.933,1.132,1.883,1.512,2.894,1.705,4.526-1.646,37.09-2.645,44.931-.258,2.027-1.445,3.795-2.584,5.437-1.115,5.077-.598,8.515,1.55,10.314-.878,9.66-1.756,19.321-2.635,28.983l-2.631,1.58c1.552,31.03-1.173,62.477-7.432,92.9,1.337,22.076-.3,44.026-4.955,65.649l2.191,3.482c-1.944,12.981-3.141,26.007-3.591,39.08l-2.315,3.269,1.375,13.337c-2.904,34.846-5.801,69.609-8.691,104.29l-2.593,1.285c.141,26.276-.809,53.797-3.431,80.257-2.257,22.773-7.999,45.677-35.215,44.837-24.135-.745-48.463-2.114-72.595-4.733-46.569-5.122-93.247-9.809-139.902-13.275l-5.26-1.8-16.453.686-106.158-9.24c-5.497-.752-10.87-2.031-16.119-3.833-78.26-2.823-156.512-9.225-234.107-19.819l-2.968,1.883c-25.082-3.421-39.891-13.622-38.478-40.971,2.568-49.686,7.647-99.057,13.228-148.51.203-1.799.745-3.565,1.322-5.34.582-1.79,1.329-3.526,2.122-5.247,3.947-91.462,11.502-182.988,23.535-273.744,1.052-4.196.502-6.869-1.65-8.02,1.656-11.928,2.591-23.91,2.805-35.946l2.561-1.864c1.063-12.297,2.33-39.26,7.21-49.149,5.058-10.249,14.119-15.557,25.631-15.347,34.579.632,75.598,6.947,110.844,9.995Z"/>
        <g>
          <path class="st36" d="M826.786,155.13c-1.291,2.317-4.446,1.094-6.433.884-12.178-1.293-25.044-3.539-36.92-4.6-.173-1.582.253-3.463,0-4.955,14.499,2.457,28.999,5.524,43.353,8.671Z"/>
          <g>
            <path class="st27" d="M171.535,487.091c-4.505,52.083-12.455,107.304-14.846,159.176-1.403,30.438,13.724,33.297,39.619,39.01,1.983,2.313,2.369,5.454-1.239,6.193-15-2.606-21.528-1.151-33.444-12.387-.424-.4-.838-.816-1.239-1.239-2.097-10.276-6.496-19.942-7.274-30.505-.692-9.398,1.113-16.797-.158-26.473l13.625-148.639,2.827,1.695,2.128,13.169Z"/>
            <path class="st17" d="M806.968,376.85c-.226,6.88-2.477,15.762-2.477,21.677v19.819c0,.421-1.165,2.079-1.287,3.668-.292,3.81,1.302,9.048-1.191,11.815-1.922-.353-2.771-1.054-2.323-2.854-.071,6.096-2.651,6.569-7.903,4.963-2.639,12.249-8.384,11.602-17.482,5.479-1.371-.037-2.717.317-3.97.873-.803.356-3.926,11.896-4.161,13.436-1.144,7.488,12.172,13.411,18.747,12.042,6.821,1.866,8.646,14.202,2.229,16.845-8.225,10.579-7.709,3.144-11.764-1.238-4.922-5.32-7.293,6.689-10.04,7.344-4.466,1.064-10.232-13.224-17.217,2.562-1.125,2.542-1.206,6.018-2.104,7.8-3.327,6.597-16.225-5.174-20.49-6.257-5.385-1.368-12.095.97-17.659-1.54-4.214,2.994-7.101-3.441-8.474-7.171-4.16-11.302-2.003-24.488,7.026-32.692,1.097-4.825,3.471-7.966,7.123-9.422,8.148-1.001,11.413-2.417,14.091-10.395,6.803-3.365,7.232-6.594,1.288-9.687-3.574,8.214-21.363,13.843-29.127,11.305-10.703-7.986-16.15-6.896-20.653,5.864-8.208,10.442-14.762,6.233-21.306-2.473-3.068.451-5.383.095-6.947-1.068-1.68,1.815-2.439,1.036-1.239-1.239l156.699-68.118c1.088,2.366.699,6.007.611,8.662Z"/>
            <path class="st34" d="M787.149,484.614c.132-2.096,1.331-4.249,1.34-6.803.047-12.27-10.339-5.807-17.386-9.976-.975-.577-6.051-7.156-6.561-8.323-2.233-5.107.478-5.576,1.272-9.246,1.248-5.768-1.306-9.84,7.101-11.26,5.658-.956,8.478,6.965,13.385,3.598,3.892-2.67.137-13.08,10.745-7.537-.337-2.805.391-8.601,3.126-9.898,2.998-1.423,1.805,7.238,1.841,8.66.031,1.23.046,2.487,0,3.716-.606,3.264-1.019,6.567-1.239,9.909-6.46,73.464-10.31,147.945-18.557,221.124-.235,2.087-1.043,6.09-3.232,6.576-.782.174-13.45-.879-15.978-1.038-36.9-2.319-74.003-6.782-110.872-9.897-.348-4.32,16.713-8.549,19.229-8.482,2.456.065,4.444,1.868,6.446,2.038,3.088.262,5.479-1.686,9.309-.719,4.151,1.047,9.296,6.861,15.204,7.248,4.692.308,9.378-1.995,14.88-1.361,6.962.802,17.53,4.087,24.698,4.394,5.77.248,17.052-3.062,23.627-3.16,8.766-.13,10.998,7.685,14.881-7.317,1.901-7.344,1.755-19.045,1.78-26.721.015-4.523.771-12.2.032-16.128-.526-2.799-2.743-2.391-3.704-4.032-3.401-5.803,2.229-6.358,3.401-9.829,4.303-12.749,6.359-41.468,6.459-55.476.057-8.005-.909-17.053-2.7-24.412-.805-3.306-3.626-6.423-3.566-10.312.064-4.174,4.262-5.45,4.859-8.905.573-3.315-.048-12.824.179-16.432Z"/>
            <path class="st17" d="M802.013,437.545c-.148,3.969-.986,7.032-1.239,9.909,1.631-10.17-2.499-6.378-3.716-7.436-2.627-2.281,3.108-3.084,4.955-2.473Z"/>
            <path class="st42" d="M649.658,436.306c.47.685,1.099,1.034,1.239,1.239,4.586,4.558,9.117,9.227,12.83,14.54,21.994,31.477,43.761,64.275,61.49,98.178,2.113,3.225,4.414,5.952,6.193,8.671,5.845,1.775,11.904,11.347,11.148,17.341.486.78,2.841,5.854,2.471,6.187-162.003-15.466-323.837-34.258-485.915-49.794-1.807-.899-4.607-3.208-4.598-5.301.019-4.323,31.22-33.497,36.568-39.02,9.998-10.328,19.702-21.335,29.091-32.222h1.239l2.169-1.472,105.473,78.84,120.349-54.23,2.4,1.635c5.285,7.429,7.282-.132,12.369-4.353,22.334-18.53,44.385-37.343,66.537-56.085,9.437-3.069,14.203,8.94,18.949,15.846Z"/>
            <path class="st33" d="M551.804,480.898l-123.027,55.48-107.364-80.254c35.732-40.295,74.204-78.211,110.16-118.373,4.404-3.765,14.6-4.915,18.483.258,34.808,46.989,67.891,95.293,101.748,142.888Z"/>
            <path class="st34" d="M650.896,437.545c11.819-6.454,10.948,7.325,17.748,7.112,12.085-.378,8.257-14.662,17.83-16.78,8.528-1.887,11.537,6.026,18.305,6.023.94,0,17.114-5.203,17.924-5.68,2.796-1.645,4.419-13.492,12.489-1.244,2.886,4.381-2.991,4.864-5.596,8.131-1.626,2.039-2.04,5.381-3.518,7.022-3.614,4.013-11.249,3.095-13.982,5.212-1.719,1.331-2.171,5.316-3.649,7.499-1.478,2.184-4.033,3.251-5.209,5.938-.514,1.175-3.921,12.311-3.851,12.985.178,1.709,2.326,11.756,2.843,13.395,1.118,3.542,4.867,4.824,5.644,6.126,4.316,7.242.532,10.492,0,15.591-.405,3.88,2.487,9.592,1.236,14.142,2.91,1.12,8.474-1.736,10.402-1.155,1.664.502,1.558,3.546,2.782,3.734,4.37.672,6.419-5.731,8.553,4.776,2.04,10.041-2.491,7.179-2.996,9.423-.495,2.202,3.319,7.997-2.635,10.467-24.557-37.49-49.087-75.735-74.32-112.718Z"/>
            <g>
              <path class="st34" d="M320.174,456.125l-1.58,4.353c-20.01,23.03-39.768,44.286-59.272,63.767-3.302,1.642-2.253,5.795.381,6.07,154.096,16.112,308.265,31.839,462.418,47.449,12.072,6.171,18.725,6.743,20.436-1.489-2.595-11.512.509-16.766,9.311-15.761,2.362-1.704,10.185-19.156,2.178-14.234,1.304,12.969-1.924,14.551-12.038,6.455-3.544,2.427-7.077,4.494-10.599,6.2-3.978.774-8.174-5.088-6.193-8.671.797-3.822.868-6.767.314-11.034,3.906-2.778,4.492-6.884,1.757-12.317-3.666,1.962-7.336,1.658-8.708-2.641-13.804,6.339-14.547-14.871-11.164-23.861-1.043-3.136-.89-5.511.46-7.125,2.458-1.939,14.277-2.037,17.525-1.025,5.699,3.195,11.522,5.981,17.471,8.358,4.294-17.023,11.453-21.191,21.477-12.505,5.51-9.951,11.06-11.864,16.698-.639,1.952-2.718,3.986-3.671,6.103-2.86.591.067,1.156.179,1.63.45,2.906,1.659.331,22.411-4.209,24.942,10.733,28.341,5.549,62.468-.554,91.524-5.085,3.784-4.99,7.401.286,10.852,2.188,5.21-1.892,50.672-5.032,53.931-1.287,1.336-2.539,2.259-4.468,2.23-10.775-1.822-22.101-1.419-33.976,1.211-14.418-3.079-26.673-5.053-41.123-3.451-7.412-5.295-14.775-7.319-22.089-6.074-7.839-2.619-16.332-1.29-25.479,3.989-150.701-12.73-301.498-25.289-452.099-39.03-3.045-2.341-5.409-5.797-5.017-9.834,7.74-79.047,15.105-158.186,22.346-237.266l102.809,78.036Z"/>
              <path class="st34" d="M742.557,576.275c-3.477-5.576-7.609-11.935-11.148-17.341-.579-3.246,8.758-8.558,10.516-8.623,4.625-.173,10.352,10.803,9.962,2.434-.186-3.983-2.475-8.781,3.958-9.723,9.615-1.407.077,18.32-3.324,20.219-1.06.592-6.038-1.551-8.189,1.892-1.737,2.78,3.709,9.112-1.774,11.143Z"/>
              <path class="st34" d="M773.267,521.529c-.391.651-2.942.834-4.039,2.745-1.203,2.096-2.847,14.304-7.978,6.674-3.806-5.66-1.219-12.833-1.231-18.466-.01-4.554-3.339-9.767.536-12.995,1.164-.35,11.992,6.79,12.369,7.404.919,1.493,1.082,13.408.342,14.639Z"/>
              <path class="st34" d="M728.92,523.012c-3.106-1.539-4.697-6.105-6.205-9.291-2.345-4.954,4.382-1.915,5.609.61,1.244,2.561.46,5.917.596,8.681Z"/>
            </g>
            <g>
              <path class="st19" d="M806.968,376.85c-1.797-.835-2.699-2.518-2.707-5.05l-144.59,62.854c-3.5.272-6.838.822-10.013,1.652l-3.392-.671c-1.384-3.28-10.225-16.501-14.295-13.105l-66.178,55.887c-3.831,5.472-13.977,13.727-13.99,2.48l-7.316-7.452c-32.191-44.533-64.301-89.152-96.331-133.856-2.903-4.023-11.322-2.866-14.907-.034-32.959,35.845-66.326,71.344-99.723,106.781-1.759,1.866-3.745,3.521-5.765,5.153-2.035,1.645-4.177,3.158-6.349,4.634-.352,1.082-.765,1.066-1.239,0l-2.175,1.459c-33.155-25.166-66.325-50.343-99.512-75.533l-1.122-3.962c6.85-74.821,11.737-150.121,19.826-224.809.482-4.453.368-13.9,5.559-13.124l578.293,53.541c2.845.89,2.174,5.481,2.024,7.858-3.306,52.389-9.434,104.94-13.631,157.327-.445,5.556-1.12,12.645-2.47,17.968Z"/>
              <circle class="st31" cx="627.39" cy="301.424" r="56.591"/>
            </g>
          </g>
        </g>
      </g>
    </g>
    <g>
      <path class="st32" d="M595.157,94.436c-22.115,3.285-44.296,9.073-66.888,9.909l-9.999-.537-120.884-37.966c-3.448.52-6.595,1.87-8.323,5.067l-10.318,43.396-2.831,1.188c-11.061-.961-22.529-1.533-33.444-2.477,4.997-17.082,7.796-35.02,12.995-52.035,6.431-21.047,19.152-34.999,43-29.353,39.57,9.368,85.445,28.249,125.139,40.842,23.771,7.541,47.732,14.619,71.553,21.966Z"/>
      <path class="st20" d="M528.269,104.345l-91.661,17.341c-20.183-1.771-40.822-4.467-60.694-6.193l10.864-45.495c2.161-4.275,6.204-6.202,10.86-6.583l130.631,40.93Z"/>
    </g>
    <g>
      <path class="st38" d="M960.562,473.466c-1.089.919-1.543,2.388-1.362,4.405-11.024,47.424-23.345,95.002-40.752,140.518-10.892,51.689-25.343,102.696-43.353,152.355l2.02,1.84-9.273,28.32c7.874-1.122,15.785-.379,23.356,2.045,6.598-3.827,19.254-3.467,26.012,0l-53.211,1.293-17.539,59.874c-9.807,17.497-21.893,20.556-40.756,17.515-33.507-5.402-71.222-20.947-103.779-25.102-1.803-.23-3.379-.334-5.197-.318l-11.542-1.189c-45.78-11.231-92.208-22.652-139.283-34.265l-10.2-4.183c-26.561-2.529-53.352-9.719-78.036-19.819-25.431-2.33-50.702-8.9-74.32-18.58l.493-2.576c51.251-7.537,102.63-15.093,154.135-22.667l13.83.47c8.459.572,16.843,1.7,25.151,3.385l232.673,58.305c3.65.708,6.773.786,8.328-2.825,17.642-60.253,35.651-120.403,53.854-180.491,2.023-6.679,4.419-13.247,6.826-19.818s4.983-13.087,7.606-19.582c4.16-18.105,8.382-36.213,13.62-54.043l63.291-213.08c-36.224-11.932-73.173-23.114-110.846-33.548l-.748-2.8,3.716-40.876c.908,4.351,2.122,5.286,3.643,2.806,18.254,4.393,36.262,9.267,54.026,14.622,1.944-1.712,10.587-47.094,10.561-50.726-.005-.725-.23-1.458-.824-1.912-20.557-6.049-41.431-11.109-62.622-15.179l-1.068-2.873c.323-7.579,2.23-11.667-.629-19.808-2.308-6.573-8.008-9.413-11.758-14.874,27.392,6.007,63.77,10.655,89.454,18.928,7.672,2.471,17.636,11.078,19.268,19.131,4.467,22.039-12.817,55.769-11.944,78.838,18.24,10.191,57.781,9.443,59.357,37.281-7.967,43.896-24.221,86.222-35.387,129.455-2.296,8.889-6.016,20.925-6.792,29.748Z"/>
      <path class="st13" d="M279.298,794.279l3.964,2.215c7.719,19.458,17.334,37.237,28.842,53.338,28.351-10.838,56.483-22.235,84.397-34.191l10.379-1.543c-.173-.582-.289-1.155-.207-1.699.273-1.804,20.688-10.174,24.104-10.613,4.957-.638,18.662,1.346,20.695,6.119,1.382-.324,2.768-.597,4.166-.694,1.372-.095,2.713-.162,3.963.13,19.566,4.576,40.112,9.716,58.793,15.121l-1.273,2.784c-5.879,2.941-11.779,5.835-17.755,8.565-5.973,2.728-11.943,5.445-18.053,7.791-49.956,19.179-101.604,38.607-149.991,56.725-5.003-2.576-10.051,1.871-15.476,2.485-16.703,1.888-25.943-5.421-34.279-18.997-17.839-29.051-35.546-67.596-50.576-98.683-.011-.979.141-2.477.812-2.597,4.598-.819,36.802-5.136,38.608-4.42,2.832,1.124,12.183,15.28,8.888,18.165Z"/>
      <path class="st12" d="M341.231,911.952l1.171-2.536c41.23-19.905,84.852-38.642,128.023-55.323,14.703-5.681,28.432-10.317,43.738-11.587,12.75-12.098,25.972-16.303,41.95-7.749l21.654,2.494c9.459.661,15.344,4.946,21.581,11.441,14.049-.47,27.173,1.547,39.37,6.049,9.457-.659,16.82,1.483,22.088,6.426-97.605,16.465-194.201,41.425-291.855,58.067-13.751.978-17.724,1.419-27.719-7.282Z"/>
      <path class="st0" d="M696.727,856.212c-8.719.074-26.554,3.375-35.921,4.955-3.625,1.772-5.247-2.103-5.555-2.187-4.449-1.217-12.335-.804-17.069-1.821-4.407-.947-8.263-3.942-12.787-4.554-7.265-.983-20.236.336-26.893-1.596-2.961-.859-5.913-6.929-10.997-8.821-9.527-3.546-21.32-3.296-31.018-4.832-4.806-.761-14.601-5.845-17.502-5.586-2.128.19-14.138,5.4-16.53,6.863-2.606,1.594-5.631,5.666-7.44,6.186-5.403,1.551-13.042,1.171-20.14,3.394-38.808,12.157-86.283,34.956-125.138,50.752-9.593,3.9-19.488,7.885-28.506,12.989-.3-.261-1.874-.088-3.005-1.281-2.161-2.279-6.915-9.305-6.904-12.344.006-1.751.28-2.837,2.067-3.492,61.414-22.75,122.586-46.18,183.732-69.588,1.849-5.279,12.898-7.538,18.58-8.671,38.787,9.528,77.874,18.131,116.692,27.612,14.785,3.611,30.079,6.993,44.334,12.026Z"/>
      <path class="st37" d="M325.129,763.312c5.793.302,11.529,1.014,17.207,2.136l1.373,2.819c13.263-.843,28.3,3.046,39.637,9.909,24.796,6.016,49.533,12.515,74.32,18.58.881,1.462.316,2.83-1.697,4.105,3.057,5.379,1.838,8.089-4.497,7.043-5.088-1.209-15.811-4.298-20.337-3.674-4.345.6-18.831,7.69-24.255,9.867l-9.003,1.108c-38.241-5.94-76.435-11.873-114.584-17.799l-3.995-3.128c-1.378-2.533-8.233-15.537-9.507-15.957l-38.801,4.809c-.468-.968-2.317-2.129-2.477-3.716.197-.028,1.363-1.906,3.328-2.191,31.102-4.512,62.114-10.688,93.288-13.911Z"/>
      <path class="st23" d="M841.65,654.31l2.349,2.082c.384,18.689-.668,69.313-10.502,83.613-9.622,13.99-27,19.567-43.447,18.513-23.852-1.528-48.003-3.593-71.81-7.287-51.429-8.981-103.11-15.286-155.044-18.915-20.242,2.397-40.442,5.368-60.6,8.913-7.354,1.196-12.834-.114-16.441-3.929-3.476,6.211-11.542-.489-2.477-2.477,14.857-2.857,29.864-5.183,44.592-8.671l2.123-2.561c12.845-2.807,25.763-4.844,38.752-6.109,70.856,1.694,144.408,15.575,214.916,17.324,20.983.52,30.128-9.135,33.739-29.407,5.22-29.304,2.77-63.446,7.747-93.203,3.935-1.951,4.894,1.637,5.175,5.262-.328,10.468-.445,24.87,9.964,30.551l.964,6.301Z"/>
      <path class="st6" d="M850.321,526.728l1.202,6.089c-.728,36.896-3.299,73.989-6.608,110.82-.162,1.804-.679,3.581-1.227,5.372-.552,1.805-1.271,3.56-2.037,5.3-.337-4.738-5.552-5.639-8.006-8.716-3.522-4.417-4.915-13.555-5.601-19.173-.542-4.442,1.996-11.664-2.496-14.226l9.909-118.911,2.693,1.714c2.871,10.071,7.313,19.617,13.326,28.638l-1.155,3.092Z"/>
      <path class="st29" d="M856.514,536.638c9.846,18.498,18.797,37.756,29.728,55.74-22.064,73.55-44.453,147.038-65.984,220.766-2.491,5.177-5.882,5.21-11.136,4.372-85.881-20.83-171.242-44.131-257.319-64.112-13.105-.604-26.107-2.307-39.006-5.107-9.938-.284-19.232-1.885-27.882-4.803-3.706-.325-2.286-6.263,1.239-6.193,24.737,6.152,52.083-8.406,78.642-7.42,71.967,2.672,148.56,21.802,220.507,25.987,18.245,1.061,37.654-2.12,47.46-19.402,8.688-15.311,7.488-62.313,8.887-82.155,2.798-39.71,6.977-80.598,7.41-120.787.023-2.094-.791-5.508,1.26-6.795,1.893,3.627,4.795,7.282,6.193,9.909Z"/>
      <path class="st22" d="M484.916,743.494c23.449.53,44.15,4.631,66.888,9.909l-168.458,24.773c-13.182-3.198-26.424-6.925-39.637-9.909l1.32-3.263c45.206-10.927,90.972-18.928,137.3-24.003l2.588,2.493Z"/>
      <path class="st1" d="M535.701,816.575c-4.881,4.433-12.503,6.344-18.58,8.671-.842-2.946-3.367-2.16-5.473-2.582-20.413-4.097-40.042-9.975-60.176-14.759,7.95-.682.239-7.386,1.239-8.652l4.954-2.496c26.059,6.376,52.02,13.428,78.036,19.819Z"/>
      <path class="st3" d="M483.677,734.823l-2.466,1.255-.005,1.21c1.527.257,3.6-.323,4.948.013l-1.239,6.193c-27.274-.617-86.834,13.67-116.664,18.97-8.007,1.422-17.334,2.373-24.544,5.803-6.073-1.372-13.294-1.85-18.58-4.955,52.819-9.634,105.821-18.35,158.549-28.489Z"/>
      <path class="st24" d="M406.88,814.098c-31.509,12.648-62.508,26.798-94.584,38.089-2.599-.549-4.062-2.189-5.562-4.213-9.17-12.374-19.382-38.89-27.436-53.694l127.582,19.819Z"/>
      <g>
        <path class="st11" d="M955.607,610.957c-1.405,5.549-2.681,11.565-3.827,18.047-.497,24.533-.588,49.612,1.35,73.614-.401,22.824.287,51.457-2.583,73.595-2.299,17.727-16.902,25.73-33.338,26.737-8.321.51-17.572.035-26.012,0-.901-.363-2.207-1.018-2.104-1.716.695-4.683,6.061-25.713,7.916-29.402l2.858-1.087,2.133-2.494c4.208.714,7.592-.159,10.151-2.619-.976-12.649.296-24.57,3.818-35.763,11.557-64.065,24.779-129.217,39.666-195.456l2.448-5.207-2.477,81.752Z"/>
        <path class="st28" d="M960.562,473.466c-.346,3.936.099,8.343,0,12.387l-1.239,23.535c-.147,7.434-.174,12.479-1.239,19.819-8.458,58.288-25.357,116.541-35.258,174.695l-6.857,25.968c-.999-38.507-.174-75.666,2.477-111.479,13.393-46.846,26.841-93.714,39.514-140.774.586-2.175-1.326-4.898,2.601-4.15Z"/>
        <path class="st28" d="M955.607,610.957c.676,19.456-1.132,38.799-1.239,58.217l-1.239,19.819c-.01,4.529.08,9.098,0,13.625-1.242-5.193-2.165-12.629-2.481-17.959-1.067-17.987-1.665-37.466-1.344-55.737.128-7.27,5.977-15.096,5.076-22.914,2.172-.253,1.176,3.491,1.226,4.949Z"/>
        <path class="st4" d="M886.242,592.377c-1.174-.713-2.314-1.465-3.336-2.354-5.021-4.372-25.017-42.477-26.128-49.349-.214-1.325-.263-2.677-.265-4.036-1.325-3.427.37-6.5,5.084-9.219,1.347-5.696,1.628-12.085.842-19.166.669-19.811.758-39.252.267-58.321-1.648-1.731-.952-2.411,1.239-1.239l1.596-3.115c27.929-10.095,28.981-51.125.113-60.712l-1.709-3.061c-2.215,1.806-5.353,2.232-9.412,1.278-4.539,1.119-8.008.693-10.407-1.278,2.453-30.956,5.191-61.926,7.432-92.9l109.697,32.129c2.197.73,4.04,1.993,4.279,4.447-25.96,89.107-52.631,178.017-79.294,266.896Z"/>
        <path class="st16" d="M858.991,194.767c9.013,2.811,62.488,12.408,65.76,16.608.891,1.143,1.306,2.315,1.189,3.772l-11.222,53.942c-7.292-.919-52.669-17.566-55.511-15.93-.643.37-1.608,4.74-3.921,4.779-.016-3.293-.024-6.615-.012-9.909.061-17.406,2.961-35.579,3.716-53.262Z"/>
        <path class="st8" d="M862.707,449.931c2.216,2.09,2.329,5.181,2.524,8.009,1.497,21.719-1.258,45.082.014,66.991-.273,5.69-7.081,6.271-8.732,11.706-4.352,1.328-6.932-6.159-6.193-9.909-5.229-10.019-14.029-22.318-14.864-33.444-1.064-14.182,2.66-31.406,3.716-45.83,2.947-1.663,6.937-1.627,11.969.108,5.079-.494,8.934.296,11.566,2.369Z"/>
        <path class="st44" d="M863.946,381.805l2.477,1.873v62.721l-2.477,2.294c-.436.125-.925,1.18-1.239,1.239-6.868,1.291-16.907-.223-23.535-2.477,1.602-21.891,3.222-43.779,4.955-65.649,7.518-1.328,12.397-1.85,19.819,0Z"/>
        <path class="st18" d="M915.97,729.869c-.563,12.091-1.39,24.169-1.479,36.301-3.092,5.835-9.231,4.366-14.624,4.575-6.385,4.103-18.116,3.703-24.773,0,14.421-50.659,28.847-101.615,43.353-152.355,2.038,6.222,1.546,15.051,1.29,21.728-1.147,29.891-2.377,59.89-3.767,89.752Z"/>
        <path class="st5" d="M899.867,770.744l-8.671,32.205c-8.654-.036-17.353.033-26.007-.008-1.269-1.108,8.833-28.433,9.905-32.197,8.224-.231,16.556.319,24.773,0Z"/>
        <path class="st21" d="M863.946,381.805c34.182,8.52,33.682,57.242,0,66.888v-66.888Z"/>
      </g>
    </g>
  </g>
</svg>